<?xml version="1.0" encoding="UTF-8"?>
<!DOCTYPE svg PUBLIC "-//W3C//DTD SVG 1.1//EN" "http://www.w3.org/Graphics/SVG/1.1/DTD/svg11.dtd">
<!-- Creator: CorelDRAW X6 -->
<svg xmlns="http://www.w3.org/2000/svg" xml:space="preserve" width="3.41333in" height="3.41333in" version="1.1" style="shape-rendering:geometricPrecision; text-rendering:geometricPrecision; image-rendering:optimizeQuality; fill-rule:evenodd; clip-rule:evenodd"
viewBox="0 0 3413 3413"
 xmlns:xlink="http://www.w3.org/1999/xlink">
 <defs>
  <style type="text/css">
   <![CDATA[
    .fil7 {fill:none}
    .fil0 {fill:#0C0C0C}
    .fil20 {fill:#202020}
    .fil35 {fill:#212121}
    .fil39 {fill:#292929}
    .fil1 {fill:#2D2D2D}
    .fil34 {fill:#313131}
    .fil8 {fill:#343434}
    .fil36 {fill:#353535}
    .fil15 {fill:#373737}
    .fil38 {fill:#3E3E3E}
    .fil42 {fill:#3F3F3F}
    .fil12 {fill:#434343}
    .fil19 {fill:#474747}
    .fil50 {fill:#494949}
    .fil30 {fill:#4F4F4F}
    .fil27 {fill:#505050}
    .fil43 {fill:#535454}
    .fil24 {fill:#636363}
    .fil51 {fill:#707071}
    .fil18 {fill:#797979}
    .fil31 {fill:#7D7E7E}
    .fil40 {fill:#7F8080}
    .fil26 {fill:#848485}
    .fil32 {fill:#858586}
    .fil47 {fill:#868686}
    .fil17 {fill:#888888}
    .fil33 {fill:#8A8A8A}
    .fil9 {fill:#8B8B8B}
    .fil11 {fill:#8D8D8D}
    .fil5 {fill:#8E8E8E}
    .fil28 {fill:#8F8F8F}
    .fil48 {fill:#909090}
    .fil16 {fill:#919191}
    .fil14 {fill:#929292}
    .fil25 {fill:#939393}
    .fil23 {fill:#959596}
    .fil41 {fill:#979797}
    .fil45 {fill:#A5A5A5}
    .fil49 {fill:#A7A8A8}
    .fil44 {fill:#A9A9AA}
    .fil13 {fill:#BBBBBB}
    .fil3 {fill:#BDBDBE}
    .fil6 {fill:#C7C8C8}
    .fil2 {fill:#C9C9CA}
    .fil22 {fill:#CBCBCB}
    .fil10 {fill:#CDCDCE}
    .fil46 {fill:#D4D4D4}
    .fil21 {fill:#DADADA}
    .fil37 {fill:#E8E8E8}
    .fil29 {fill:#EAEBEB}
    .fil4 {fill:white}
   ]]>
  </style>
 </defs>
 <g id="Layer_x0020_1">
  <metadata id="CorelCorpID_0Corel-Layer"/>
  <g id="_1340644144">
   <path class="fil0" d="M563 2937c25,-2 49,-5 74,-8l146 -15c43,-4 112,-8 150,-13 28,-4 81,-5 112,-7l117 -6c24,0 52,-1 77,-3 7,0 11,-2 19,-2 7,0 15,1 21,1 5,0 12,-2 18,-3 8,0 14,1 21,2l79 -3c26,1 55,0 81,-1 197,-6 437,-1 634,11 40,2 119,9 153,9 23,0 253,20 264,21 12,2 23,1 36,3 48,7 97,10 147,17 15,2 79,6 85,16 11,17 1,115 3,137 5,48 7,102 -33,127 -13,8 -56,9 -72,8 -53,-2 -109,0 -163,0 -108,1 -216,1 -324,0 -216,0 -432,2 -648,2 -217,0 -433,0 -650,-1l-199 -1c-42,5 -104,8 -132,-29 -7,-9 -10,-16 -14,-27 -10,-33 1,-98 -1,-117l-3 -75c1,-12 2,-30 2,-41zm2132 365l-13 0c-32,0 -67,-3 -102,-3l-1267 1c-30,0 -617,-2 -630,2l-52 0c-21,-9 -109,-6 -132,-106 -8,-33 -5,-79 -4,-115 1,-41 1,-79 -2,-119 -59,-1 -142,34 -196,12 -27,-11 -39,-34 -41,-71 -2,-36 -2,-73 -2,-109 0,-74 0,-148 0,-222 0,-34 5,-203 -1,-222l0 -65c9,-23 -3,-44 19,-67 18,-19 38,-18 71,-18 145,0 291,-5 437,-3 21,0 67,4 86,1 -3,-10 -8,-16 -13,-22 -20,-25 -29,-50 -43,-67 -21,-26 -29,-18 -70,-77 -76,-109 -43,-179 -46,-201 -1,-11 -4,-22 -6,-32 -18,-84 -32,-169 -34,-259 -2,-102 6,-168 46,-248 35,-72 77,-110 143,-150 71,-43 159,-55 180,-75 21,-20 45,-27 73,-38 25,-10 55,-25 82,-27 18,-2 17,3 31,-6 15,-10 53,-35 69,-43 8,-4 18,-6 24,-12 28,-27 30,-189 26,-196 -4,-7 -55,-16 -84,-109 -12,-40 -13,-83 11,-119 7,-11 21,-17 21,-29 1,-35 -48,-143 24,-238 11,-14 23,-26 39,-34 5,-2 14,-4 17,-8 14,-16 -7,-52 115,-95 55,-19 123,-28 187,-22 68,6 109,22 161,50 42,22 67,48 60,97 -1,11 -2,11 5,18 5,5 8,9 13,14 42,53 22,103 9,170l-7 98c-1,23 3,26 6,46 3,21 -4,126 -5,152 -4,83 -7,136 -57,206 -6,8 -9,7 -9,17 0,8 2,17 3,24 8,7 50,22 65,26 24,7 45,12 69,21 22,9 42,18 62,29 28,15 20,26 62,27 11,-24 111,-163 128,-186 22,-30 43,-61 64,-93 10,-15 24,-30 26,-52 2,-15 14,-65 3,-72 -2,-1 -4,-2 -5,-2 -4,-1 -6,-2 -10,-4 -7,-3 -11,-5 -18,-8 -34,-14 -53,-15 -88,-21 -10,-2 -11,-3 -22,-4 -9,-1 -17,-2 -25,-4 -36,-9 -51,-29 -22,-57 15,-14 48,-29 72,-37 132,-45 250,-6 348,52 61,36 28,41 48,61 6,6 24,16 38,17 20,2 32,-9 50,-7 14,2 65,27 76,34 71,45 -6,181 -66,206 -27,11 -52,-6 -81,-20 -34,-17 -46,-15 -48,-61 -12,-12 -42,-20 -62,-14 -28,8 -20,23 -54,27 -12,1 -15,10 -21,19 -32,48 -174,244 -179,266 6,4 40,14 75,37 22,14 47,35 63,50 78,77 100,188 128,214 67,62 51,47 106,120 16,22 34,42 50,65 73,103 106,192 99,352 -3,64 -13,142 -45,183 -52,67 -142,24 -175,53 18,7 164,-2 193,-4 61,-5 123,-14 184,-16 111,-4 157,30 175,127 3,17 8,86 10,92l0 514c-3,6 -3,12 -5,18 -21,92 -139,39 -232,36 -2,53 1,104 1,156 0,49 -6,97 -31,128 -37,46 -89,55 -148,56zm-1691 -446c-12,3 -153,4 -160,-1 -4,-8 -4,-24 0,-32 4,-7 13,-8 18,-18 5,-11 -3,-49 -5,-62l-82 0c-2,19 -12,53 -1,64 7,7 16,9 20,17 4,9 3,27 -1,33 -6,3 -85,4 -94,1 -11,-4 -6,-28 -1,-37 7,-11 15,-13 19,-29 6,-28 20,-129 26,-166 3,-21 40,-238 35,-250 -5,-14 -18,-6 -19,-30 -1,-24 0,-28 22,-27 32,0 64,0 96,0 35,0 38,-5 45,51l49 335c8,54 4,81 32,112 8,9 5,30 2,40zm1715 0c-10,3 -148,3 -156,0 -4,-6 -5,-23 -1,-31 3,-8 13,-10 18,-18 7,-12 -2,-49 -4,-64l-82 0c-2,19 -12,53 -1,64 12,12 22,4 22,33 0,9 0,11 -3,16 -6,3 -86,4 -94,1 -11,-4 -6,-27 -1,-36 6,-11 15,-13 19,-29 6,-25 9,-57 13,-83 4,-28 9,-55 13,-83 3,-22 40,-239 35,-250 -5,-14 -18,-6 -19,-30 -1,-23 -1,-28 22,-27 32,0 64,0 96,0 36,0 38,-4 45,51 8,56 16,111 24,167 8,56 17,111 25,167 3,23 7,62 13,83 5,17 10,19 18,30 6,7 9,33 -1,41zm-1386 -501c-5,-27 0,-36 19,-37l171 0c64,3 107,51 126,101 39,101 35,304 -25,382 -50,65 -94,56 -170,56l-113 0c-19,-3 -10,-38 -8,-40 6,-7 24,-7 26,-32 3,-36 0,-179 0,-226l0 -171c0,-29 -21,-11 -25,-32zm1696 -35c5,6 6,19 5,29 -1,15 -9,11 -18,18 -13,8 -7,47 -7,65l0 425 -57 1 -129 -303c-3,52 0,113 0,166 0,17 -3,67 3,78 6,9 18,10 24,18 6,8 5,31 0,38 -6,4 -95,4 -101,0 -7,-5 -5,-28 -4,-33 3,-11 14,-10 21,-18 7,-8 4,-55 4,-71l0 -299c0,-19 6,-53 -10,-65 -9,-6 -16,-6 -17,-19 -2,-14 0,-24 6,-32 19,-4 71,-1 94,-1 6,2 55,123 58,130l56 131 0 -197c-3,-16 -15,-14 -24,-24 -6,-6 -12,-35 -1,-40 8,-3 92,-2 98,1zm-796 536c-9,-9 -4,-36 -2,-40 6,-10 21,-4 22,-23 2,-20 1,-262 0,-276l-59 222 -35 0c-5,-10 -45,-168 -53,-198 -1,-5 -2,-9 -6,-13 -2,73 0,150 0,224 0,13 -3,43 4,53 8,12 23,8 23,34 0,26 -13,21 -35,21 -39,0 -69,10 -63,-27 2,-12 8,-14 14,-20 12,-11 7,-44 7,-63l0 -341c0,-63 -26,-15 -24,-67 0,-3 0,-9 1,-11 1,-6 1,-4 4,-8 10,-6 109,-2 129,-2 5,24 47,195 53,204l53 -204c30,-3 80,0 112,0 25,0 28,4 25,31 -3,23 -21,13 -27,31 -4,12 -1,282 -1,334 0,19 0,37 0,56 0,28 -4,30 15,41 18,11 9,43 9,43 -5,9 -42,4 -54,4 -17,0 -103,3 -111,-2zm-1105 -537l111 261c2,-47 0,-98 0,-145 0,-20 5,-53 -8,-64 -7,-6 -17,-7 -21,-16 -4,-9 -4,-27 0,-33 8,-5 85,-3 100,-2 5,9 6,16 5,29 -1,16 -6,12 -17,19 -15,9 -8,44 -8,62l0 430 -57 0 -129 -303c-3,54 -1,112 -1,167 0,17 -3,68 4,78 5,9 18,9 24,18 5,7 5,31 0,37 -8,7 -35,3 -47,3 -54,0 -57,6 -58,-17 -2,-46 25,-15 26,-50 0,-23 2,-383 -1,-402 -3,-23 -14,-16 -23,-27 -6,-7 -6,-33 0,-39 7,-8 82,-4 99,-4zm-451 538c-12,3 -152,3 -164,0 -8,-47 11,-40 16,-55 3,-10 1,-195 0,-213l-53 0c0,20 -1,203 0,214 3,18 23,10 15,54 -7,2 -152,5 -159,-1 -8,-8 -4,-35 2,-41 11,-10 18,-5 19,-28 1,-31 0,-63 0,-94l0 -280c0,-18 3,-30 -8,-40 -10,-9 -16,-11 -17,-30 -1,-25 4,-24 26,-24 29,0 120,-2 136,2 3,7 4,18 4,29 -1,12 -7,11 -13,18 -9,10 -5,42 -5,57 0,42 0,84 0,126l54 0c0,-42 0,-84 0,-126 0,-15 5,-47 -5,-57 -8,-7 -10,-5 -11,-20 0,-4 0,-11 0,-16 0,-2 0,-5 1,-7 2,-6 1,-3 3,-5 8,-4 153,-4 158,0 7,6 5,31 4,34 -3,9 -15,10 -21,16 -11,10 -7,51 -7,69l0 295c0,19 -4,58 6,70 10,13 27,8 19,51zm1326 -536c13,39 -11,42 -19,59 -6,13 -51,171 -57,191 -8,27 -14,38 -14,69 0,21 -3,154 3,163 6,10 20,9 24,16 5,7 3,31 0,38 -12,4 -164,4 -177,0 -3,-8 -5,-28 0,-37 6,-9 21,-8 24,-18 3,-8 1,-144 1,-164 0,-20 -10,-49 -16,-68 -6,-21 -49,-181 -55,-192 -6,-11 -17,-13 -20,-20 -2,-6 -1,-13 -1,-20 0,-10 -1,-12 4,-17 7,-5 138,-5 152,-1 4,7 4,19 4,30 -1,19 -8,11 -13,21 -5,10 8,44 11,55 5,18 26,98 32,107 6,-10 36,-120 42,-141 9,-31 -16,-24 -17,-48 0,-6 -1,-17 2,-21 5,-7 77,-6 89,-3zm-112 -45c6,-6 22,-8 30,-11l0 -160c-6,-7 -20,-7 -28,-10l1 -13c16,-3 126,-1 151,-1 102,0 81,-9 103,32 1,1 3,5 3,6l0 3c0,0 0,1 0,1 -7,4 -23,3 -32,2 -13,-1 -15,-6 -21,-13 -16,-17 -22,-16 -52,-16l1 72c8,0 19,1 27,0 24,-2 5,-20 33,-21 29,0 28,1 28,16 0,41 5,43 -30,40 -12,-1 -12,-2 -17,-10 -9,-15 -22,-10 -43,-10l0 87c34,0 38,2 55,-20 14,-18 38,-18 55,-12 1,7 -7,23 -10,30 -6,14 -5,16 -23,16l-201 0c-28,0 -29,3 -29,-11zm-368 10c-4,-23 7,-12 23,-22l-1 -158c-12,-7 -27,-4 -22,-22 9,-5 110,-3 134,-3 18,0 32,-5 30,14l-17 6c-3,13 -1,52 -1,68l52 -1c0,-8 1,-65 -2,-66l-4 -2c-2,-1 -3,-1 -4,-2 -8,-4 -14,-17 8,-17 30,0 135,-2 151,1 7,24 -14,10 -25,23 -4,8 -3,138 -1,157 11,10 31,4 24,23 -9,3 -112,2 -136,2 -18,0 -31,6 -30,-12 6,-5 8,-4 14,-7 10,-6 5,-67 4,-83l-52 0 1 82c10,7 18,3 15,19 -9,2 -150,3 -163,0zm-318 -157c-2,-8 1,-26 3,-37 3,-14 18,-11 32,-11 36,0 230,-2 249,1 4,8 11,35 7,45 -8,3 -19,3 -28,2 -33,-2 -9,-34 -54,-34l1 167c8,4 17,5 26,9l-1 13c-11,4 -164,4 -173,0l0 -11c8,-6 15,-4 24,-8 3,-12 2,-151 1,-169 -32,-1 -26,1 -36,24 -7,14 -33,11 -48,8zm386 -162c15,6 22,12 42,18 27,8 115,32 121,53l-518 3 -97 3c-4,9 -5,10 -11,16 -3,3 -4,4 -7,7 -1,1 -2,2 -3,3 -3,3 -1,1 -4,3l-1 6 3 169c-25,5 -37,-2 -55,-11 -69,-34 -62,-43 -104,-102 0,7 10,52 13,59 6,14 24,32 24,47 -18,-5 -33,-25 -43,-38l-35 -47c-30,-43 -39,-48 -63,-100 -22,-48 -27,-80 2,-125 15,-23 58,-73 81,-83 5,-6 23,-20 32,-25 60,-37 157,-68 227,-51 26,6 60,30 49,62 -12,9 -97,10 -118,23 10,13 107,12 130,15 65,8 170,34 230,57 21,8 88,35 105,39zm-722 -141c-4,12 -43,50 -57,67 -9,11 -17,24 -24,38 -6,13 -10,35 -16,44 -11,-20 -25,-79 -22,-106 4,-41 11,-60 34,-86l3 -3c0,-1 1,-1 1,-1l5 -12c2,-3 4,-7 6,-9 4,-5 12,-11 18,-15 44,-55 153,-106 229,-119 66,-11 166,0 195,58 12,23 11,44 17,69 -28,-7 -33,-22 -105,-23 -83,-1 -135,19 -206,52 -28,13 -66,47 -78,48zm1596 -136c7,-4 18,-7 28,-10 20,-4 18,1 18,18 -8,0 -16,-2 -25,-3 -4,0 -8,-1 -12,-1l-10 -4zm220 401c-9,18 -18,27 -30,38 -11,9 -10,5 -26,6 -12,0 -20,3 -33,3 -39,-1 -82,-13 -121,-12 0,0 1,1 2,1 0,0 1,0 2,1l3 1c4,1 7,1 11,4 3,3 1,0 3,3 -43,20 -183,22 -241,15 -18,-2 -28,-3 -39,-13 -8,-7 -8,-5 -9,-17 -4,-35 3,-25 -11,-67 -8,0 -17,-14 -39,-16 -16,-2 -39,-1 -55,0 -38,0 -127,6 -155,-6 -63,-25 -313,-153 -349,-135 7,7 10,5 16,9 -79,-4 -151,-44 -228,-63 -27,-6 -54,-8 -81,-15 -3,-17 5,-75 15,-83 9,-8 56,-27 71,-31 7,-10 52,-18 67,-20 28,-3 58,-2 87,-1 131,3 323,39 472,50 156,12 348,-37 494,-7 72,15 103,41 128,47 -4,-6 -33,-41 -40,-46 -21,-16 -50,-24 -57,-29 1,-16 11,-14 6,-40 5,-9 16,-10 20,-27 2,-10 4,-30 6,-40 20,0 27,19 49,36 36,28 75,119 88,163 23,80 13,222 -20,292zm-325 -432c44,-27 120,-51 174,-50 5,37 -4,30 -35,40 -20,6 -36,14 -55,22 -62,25 -56,13 -116,18 -6,0 -12,1 -16,-2l48 -27zm-303 -248c13,1 -2,-2 14,-5l53 3c9,0 32,1 37,8 5,7 6,61 6,73 -1,24 4,59 4,73 -1,18 -10,29 -18,40 -6,8 -9,7 -16,13l-29 26c-20,23 -18,15 -29,26l-28 28c-8,5 -65,0 -77,-1 -18,-2 -36,-2 -51,-4l-49 -7c2,-11 3,-13 9,-23l80 -119c15,-22 31,-45 46,-67 7,-11 16,-23 23,-34l16 -27c5,-7 6,-2 7,-3 0,-1 1,0 2,0zm250 170l-33 24c-26,25 -21,9 -28,27l52 -25c35,-14 69,-31 104,-44 17,-7 109,-23 128,-20 3,10 6,18 4,30 -16,10 -129,37 -176,59l-46 33c-14,10 -34,20 -52,26 -33,11 -107,13 -146,10 5,-18 21,-27 32,-41 15,-20 23,-24 35,-38 34,-41 28,-21 40,-33 4,-4 11,-25 43,-31 27,-13 53,-25 84,-35 21,-7 26,-10 51,-7 17,2 40,-4 53,5 -5,20 -46,23 -74,31 -31,8 -64,28 -74,29zm-918 -191c12,-2 19,-1 29,2 6,20 15,74 21,86 14,-1 31,2 45,3 14,0 29,2 44,3 92,4 168,16 267,11 -1,10 0,9 -8,13 -6,14 -30,46 -41,60 -5,6 -9,13 -14,19 -3,4 -5,6 -7,10l-35 48c-5,7 -8,13 -15,18 -7,3 -109,-12 -132,-12 -6,0 -9,-1 -16,0l-55 3c-28,0 -38,2 -64,8 -16,3 -53,17 -70,24 -5,2 -6,3 -12,5 -8,4 -16,11 -27,10 -2,-2 -3,-2 -6,-10l-10 -26c-10,-27 -15,-64 -16,-94 0,-11 -2,-24 1,-34 -1,-13 0,-23 -1,-37l-7 -62c-2,-11 -4,-20 -5,-32 12,0 22,-3 34,-5 9,-1 23,-4 33,-5 10,-1 23,-3 33,-5 9,-1 26,-5 33,1zm746 -66l7 36 3 8c1,5 0,7 -4,13l-3 5c-11,5 -51,4 -69,4 1,-10 5,-19 10,-27 3,-5 4,-4 8,-9 3,-4 4,-6 6,-9 5,-7 9,-13 13,-22 7,-14 3,-13 18,-18 6,7 6,8 10,18zm-1021 43c5,18 15,35 21,53 6,16 13,40 15,58 -5,-2 -9,-6 -12,-9l-25 -8c6,9 6,1 10,11 -7,-3 -13,-6 -19,-8 -2,-1 -8,-3 -10,-3 -3,0 -3,0 -5,0 -6,1 -1,-3 -5,2 10,3 31,20 40,26 31,23 71,79 81,118 -11,-1 -45,-13 -80,-17 -60,-6 -116,1 -172,20 -16,5 -59,26 -70,26l-78 57c-24,17 -59,63 -68,66 -11,-48 -15,-57 -21,-110 -5,-38 -9,-78 -12,-117 -6,-93 11,-194 62,-263 9,-12 18,-25 28,-37 38,-43 104,-78 164,-95l103 -26c6,9 14,10 23,29 38,31 92,146 114,198 15,36 11,24 10,48 -1,9 11,89 13,113l2 19c-2,7 2,0 -3,5 -8,-6 0,-4 -7,-13 -3,-4 -5,-4 -9,-10 -4,-8 -8,-19 -10,-28 -8,-10 -22,-66 -62,-121 -8,-11 -23,-23 -28,-33 -7,0 -3,0 -6,2 3,3 12,14 14,20 2,8 0,6 1,13 1,8 2,4 0,14zm1317 34c-1,2 -2,2 -2,6 9,6 12,8 16,20 7,13 88,64 94,98 -29,-3 -48,2 -55,-9 -4,-6 -3,-7 -8,-11 -23,-22 -112,-9 -143,-3 -19,4 -48,15 -65,15 -5,7 -30,20 -42,24l15 -48 11 -98c0,-9 1,-17 -1,-26 -1,-2 -2,-8 -4,-10 -3,-5 -2,-6 -7,-4 2,15 -6,45 -10,59 -3,9 -11,34 -18,42 -4,5 0,1 -5,5 -2,-16 -3,-34 -6,-50 -4,-23 -9,-10 -14,-39 -6,-31 -8,-63 -14,-95 -10,-51 -4,-44 19,-79 22,-33 22,-41 40,-35 75,23 147,106 182,171 21,40 23,57 31,75l-15 -7zm-1308 -333c1,-2 -3,0 3,-2 1,0 4,-1 6,-2l32 -13c26,-11 31,-7 41,7 14,18 9,6 22,24 4,6 2,3 6,7l20 24 2 10 6 7c33,35 90,144 103,194 1,5 1,10 4,15l4 4c0,0 1,1 1,1 3,5 3,2 2,8 -4,14 -56,14 -76,16 -22,3 -31,4 -38,-7 -1,-2 -2,-4 -3,-7 -2,-31 -40,-93 -54,-117l-48 -79c-6,-9 -10,-17 -16,-27 -14,-7 -13,-13 -23,-24 -7,-8 -16,-19 -20,-29l-1 -7 6 -2c1,0 5,-1 6,-1 5,-1 10,-1 15,-1zm876 14c16,10 13,-2 24,19 5,10 9,19 15,29 13,22 6,21 -16,57 -4,3 -11,15 -15,20 -8,11 -5,12 -18,17 -1,-4 -2,1 4,-6 -6,-4 -7,-15 -10,-23 -6,-17 -7,-12 -9,-13 -4,-13 -5,-23 -11,-37 -10,-23 -42,-80 -41,-95 24,-3 74,30 78,31zm-686 -40c7,3 74,68 86,77 51,38 124,69 193,79 82,12 200,-2 243,-77 17,-30 16,-52 12,-88 36,9 41,37 53,72l49 139c8,23 12,27 -2,45 -32,41 -70,102 -104,146 -10,13 -18,21 -42,22 -73,2 -229,-4 -297,-11 -8,0 -21,0 -29,-1 -8,-1 -10,-4 -12,-12 -4,-12 -5,-30 -7,-43 -6,-43 -28,-38 -39,-53 -8,-12 -20,-49 -27,-65 -10,-21 -19,-41 -30,-62l-32 -57c-8,-10 -15,-21 -23,-33 -15,-21 -64,-74 -73,-91 9,-8 46,-25 60,-27 5,17 14,23 21,40zm420 -177c2,-9 15,-19 24,16 2,8 1,15 -1,23 -3,12 -8,29 -21,32 -4,-8 6,-28 1,-48 -2,-8 -5,-14 -2,-23zm29 806c-12,0 -32,2 -40,-4 6,-14 29,-45 39,-58l79 -113c7,-10 37,-51 42,-54 1,-8 22,-35 29,-44 6,-8 24,-35 30,-40 1,-10 0,-4 4,-8 1,-6 7,-11 11,-16 23,-29 61,-83 81,-112 31,-45 61,-85 93,-129 30,-43 60,-88 91,-132 25,-34 37,-56 64,-89 10,-12 19,-32 30,-39 7,-14 15,-25 23,-36 11,-15 19,-5 37,3 7,3 7,5 14,9 4,3 10,5 14,7 -3,18 -16,30 -25,44l-100 149c-7,10 -11,17 -18,26l-109 161c-6,10 -11,20 -18,28l-18 26c-3,5 -6,10 -9,14 -3,5 -6,8 -9,14 -6,10 -11,17 -18,27l-216 325c-6,9 -12,19 -18,28 -5,8 -13,22 -18,28l-64 -11zm-106 -811l-4 6c-21,21 -28,10 -43,-1 -17,-12 -19,-10 -20,-22 -5,-41 0,-72 39,-84 22,-7 45,-11 71,-12 24,-4 32,-6 58,-1 23,4 32,7 42,25l5 1c4,33 14,92 -19,97l-26 -26c4,-10 10,-16 12,-30 -33,2 -72,5 -105,1l-18 -1c4,15 18,16 26,32 -4,6 -10,12 -16,15zm101 146l39 -19c12,28 13,86 0,113 -29,63 -139,64 -200,56 -25,-3 -88,-17 -96,-33 -28,-8 -85,-45 -101,-62l-36 -45c-63,-80 -3,-22 2,-143 1,-20 2,-39 1,-59 -1,-19 -2,-39 1,-57 10,7 8,14 13,29 3,11 7,21 10,32 7,20 17,41 29,53 14,14 29,29 43,41 15,13 31,26 43,39 25,26 64,46 108,59 72,20 89,4 144,-4zm938 -133c-4,7 -12,9 -22,8l-2 -6c-20,-31 45,-146 77,-132 16,11 -5,61 -10,73 -5,12 -10,22 -17,30 -8,9 -18,13 -19,27l-6 0zm-192 -114c10,-18 75,-6 78,24 -19,-2 -21,-10 -36,-15 -13,-4 -31,-3 -41,-9zm196 -8c-7,18 -27,31 -39,73l-61 -21c0,-29 26,-70 43,-76 3,-8 9,-13 16,-18 10,-8 11,-9 24,-5 14,5 34,14 43,24 -3,5 -21,20 -26,22zm-512 -141c8,-5 37,-1 46,1 26,5 55,13 78,26 14,8 21,12 20,28 -10,-2 -22,-12 -34,-17 -44,-19 -100,-25 -110,-37zm-897 -91c17,-10 46,11 52,19 17,22 22,95 24,125 1,20 11,57 -14,53 -73,-12 -107,-171 -62,-197zm887 66l-5 -2c8,-14 97,-28 108,-29 41,-4 85,2 121,13 24,7 128,48 134,72 4,17 0,46 -4,62 12,-9 12,-17 21,-26 22,6 51,31 76,33 -5,19 -17,26 -24,37 -24,-4 -57,-23 -81,-21l-11 1c-52,32 -36,23 -64,56 -3,4 -3,6 -7,10 -38,-13 -71,-47 -87,-56 -1,-27 13,-53 7,-80 -4,-22 -24,-36 -41,-45 -37,-19 -98,-29 -144,-24zm-304 -55c3,52 16,66 4,125 -4,18 -18,105 -24,114 -8,-12 -15,-31 -20,-37 -22,-21 -20,-26 -54,-41 5,-17 18,-25 13,-50 -2,-9 -6,-15 -9,-24 -5,-13 1,-5 -8,-22 -4,-6 -3,-9 -5,-16l-10 -45 14 -3c8,-1 2,-2 7,4 2,2 4,5 6,7 19,20 37,10 45,-16l21 4c10,0 4,1 7,-2 -6,-12 -9,-24 -21,-29 -12,-5 -32,-2 -41,-7 11,-8 43,-21 57,-16 8,3 17,11 19,20 1,7 3,29 -1,33zm13 -200c-3,-16 -4,-21 8,-29 14,12 11,19 10,37 -9,-1 -12,-4 -18,-8zm-554 64c2,-14 15,-43 23,-55 10,-17 25,-30 47,-28 8,23 -14,38 -26,49 -4,4 -5,7 -9,10 -5,5 -27,22 -35,24zm505 -88c24,26 34,99 34,143 -16,-2 -22,-11 -42,-7 -11,2 -24,8 -35,13 -7,2 -39,10 -40,10 -4,3 -15,24 -16,32 -5,28 31,120 34,160 -5,3 -8,6 -13,9 0,0 -1,1 -1,1 -5,6 -6,7 -9,14 -35,-3 -18,-17 -68,-14l-5 11c-11,1 -15,-2 -19,-10 -1,-3 -2,-6 -2,-10l4 -11 0 -12c-8,0 -2,-3 -7,4 -13,15 -17,33 -9,51 0,10 -15,11 -35,18 -60,21 -70,66 -85,81 -5,-6 -15,-34 -15,-39 -8,5 -3,13 -5,28l-13 -25 -5 12c-4,-4 -6,-11 -9,-17 -10,-20 -6,-12 -11,-14 -6,-2 -2,4 -6,-5 -1,-2 -3,-8 -4,-10 -2,-6 -5,-12 -7,-17 -2,2 -2,3 -4,5l-4 4c-6,-10 -6,-23 -12,-31 -1,11 3,15 -4,20 -3,-6 -17,-82 -16,-94 0,-3 0,0 -1,-7 -6,-32 7,-27 -7,-40 1,-5 3,-7 5,-15 9,-58 1,-42 38,-106 7,-13 11,-14 8,-31 -8,-43 -6,-60 11,-103 -5,7 -1,4 -8,6 1,-14 3,-19 16,-22l-3 8c3,-5 5,-4 8,-10 -8,-1 -12,1 -18,-4 18,-22 162,19 188,26 30,7 63,17 98,13 36,-4 63,-20 86,-26l7 12zm-527 47c3,-32 13,-48 26,-71 10,-18 6,-10 24,-23 16,-11 30,-7 37,-7 -11,26 -24,41 -41,53 -7,5 -5,7 -11,12 -5,4 -8,6 -13,10 -14,14 -10,19 -22,26zm199 -209c3,-10 2,-7 21,-13 8,-3 18,-6 26,-8 63,-20 156,-7 209,21 41,22 78,52 78,104 -8,-3 -4,2 -13,-12 -4,-7 -1,0 -3,-6 -4,-9 -8,-23 -20,-28 2,13 9,31 0,42 -14,-7 -14,-26 -35,-45 -3,-3 -2,-2 -5,-4 6,21 26,42 -3,78 -10,12 -18,14 -36,16 -3,-11 -4,-11 -10,-18l-13 -16c-15,-21 -48,-34 -73,-41 -8,-2 -15,-4 -23,-6 -10,-2 -15,-1 -26,-3 17,15 52,17 64,34 -5,5 -13,2 -22,0l-62 -15c-26,-7 -58,-17 -88,-14 1,7 1,5 -1,9 -9,1 -28,2 -37,1 -10,-1 -19,-8 -25,-14l20 -11c65,-42 130,-40 153,-54 -9,-1 -11,-3 -21,-2 -11,1 -49,7 -55,4z"/>
   <path class="fil1" d="M2572 3026l58 0 0 89 35 0 0 22 -93 0 0 -111zm-107 0l58 0 0 88 35 0 0 22 -93 0 0 -111zm-404 0l58 0 0 111 -58 0 0 -111zm-267 0l58 1 0 110 -58 -1 0 -110zm-269 0l58 0 0 88 35 1 0 22 -93 0 0 -111zm-107 0l58 0 0 89 35 1 0 22 -93 0 0 -111zm-81 0l58 0 0 111 -58 0 0 -111zm973 111c2,-16 10,-40 15,-57 2,-10 5,-19 8,-29 3,-10 4,-24 10,-25l81 0 32 111c-14,0 -48,3 -59,-1l-4 -18 -20 0 -4 18c-11,4 -45,2 -59,1zm-177 -111l127 0 0 22 -34 0 -1 89 -58 0 -1 -89 -34 0 0 -22zm-450 0l98 0 0 22 -40 0 1 21 35 0 0 21 -35 0 -1 46 -58 0 0 -111zm-742 0l97 0 0 22 -38 0 0 21 36 0 0 21 -36 0 0 24 42 0 0 22 -100 0 0 -111zm269 56l-16 55 -72 0 -26 -111 56 0 11 73 16 -73 61 1 12 74 16 -75 57 0 -26 111 -73 0 -17 -55zm-484 55l-25 -111 56 1c2,12 4,23 6,35l6 34 16 -70 61 0 13 73 16 -73 57 0 -26 111 -72 -1c-8,-15 -10,-41 -18,-55l-16 55 -72 0zm1140 0c2,-17 15,-40 19,-57 3,-11 -15,-40 -19,-54l56 0 12 28 12 -29 49 0c-9,29 -24,41 -16,58 6,11 23,43 25,53l-46 0c-16,0 -15,-26 -25,-38l-12 38 -55 0zm-1301 -200c0,12 -1,29 -2,41l3 75c2,20 -9,85 1,117 3,11 7,18 14,27 28,37 91,34 132,29l199 1c217,0 433,1 650,1 216,0 432,-2 648,-2 108,0 216,1 324,0 54,0 110,-2 163,0 17,1 59,0 72,-8 40,-25 38,-79 33,-127 -2,-22 7,-119 -3,-137 -6,-10 -70,-14 -85,-16 -50,-7 -99,-10 -147,-17 -13,-2 -23,-1 -36,-3 -11,-2 -242,-21 -264,-21 -35,0 -113,-6 -153,-9 -197,-12 -437,-17 -634,-11 -26,1 -55,2 -81,1l-79 3c-7,0 -13,-2 -21,-2 -6,0 -13,2 -18,3 -6,0 -14,-1 -21,-1 -8,0 -12,2 -19,2 -24,1 -53,3 -77,3l-117 6c-31,2 -85,4 -112,7 -39,5 -107,9 -150,13l-146 15c-25,3 -48,6 -74,8z"/>
   <path class="fil2" d="M2709 1958c3,10 0,26 -3,34 -2,-2 -1,0 -3,-3 -4,-6 -4,-18 -5,-26 -2,-9 -5,-18 -7,-27 7,2 15,14 17,22zm-1321 -244c-13,26 5,63 19,80 7,8 55,32 68,37 25,10 60,15 89,18 68,5 100,-32 280,23 36,11 116,42 156,57 25,9 53,18 80,26 27,8 54,17 81,25 56,16 114,30 173,40 42,7 198,25 243,22 25,-1 26,-5 46,6 22,13 60,43 64,44 33,-70 43,-211 20,-292 -13,-45 -51,-135 -88,-163 -22,-17 -29,-36 -49,-36 -1,11 -3,31 -6,40 -4,17 -15,18 -20,27 5,26 -5,24 -6,40 7,5 36,13 57,29 7,5 37,40 40,46 -24,-5 -55,-32 -128,-47 -146,-30 -338,19 -494,7 -149,-11 -342,-47 -472,-50 -29,-1 -59,-2 -87,1 -15,2 -60,10 -67,20z"/>
   <path class="fil3" d="M1785 1237c9,-9 22,-10 31,-18 11,-9 19,-15 28,-22 21,-16 30,-45 42,-57 13,32 -50,90 -101,96zm-471 -195l-31 -2c-13,19 8,31 19,41 6,6 11,11 18,17l26 27c15,21 7,9 27,25 7,6 11,11 18,16 99,75 108,67 217,95 -75,10 -166,-29 -222,-69 -22,-16 -4,-6 -29,-20 -6,-4 -16,-18 -23,-24l-4 3c0,0 -1,1 -1,1l32 57c11,21 21,41 30,62 7,17 19,53 27,65 11,15 33,10 39,53 15,17 26,35 37,40l-1 13c14,0 11,2 12,3 68,6 224,13 297,11 25,-1 32,-9 42,-22 34,-43 72,-105 104,-146 14,-18 10,-21 2,-45l-49 -139c-13,-35 -18,-62 -53,-72 5,37 5,58 -12,88 -43,75 -161,89 -243,77 -69,-10 -142,-41 -193,-79 -12,-9 -79,-75 -86,-77z"/>
   <path class="fil4" d="M333 2855c7,6 152,3 159,1 9,-44 -11,-36 -15,-54 -2,-11 0,-194 0,-214l53 0c0,18 2,204 0,213 -4,15 -24,8 -16,55 12,3 152,3 164,0 9,-43 -8,-38 -19,-51 -10,-12 -6,-51 -6,-70l0 -295c0,-19 -4,-59 7,-69 6,-6 18,-6 21,-16 1,-3 3,-28 -4,-34 -6,-4 -151,-5 -158,0 -2,2 -1,-1 -3,5 -1,2 -1,4 -1,7 0,4 0,11 0,16 1,15 4,13 11,20 10,9 5,41 5,57 0,42 0,84 0,126l-54 0c0,-42 0,-84 0,-126 0,-15 -4,-48 5,-57 6,-7 12,-5 13,-18 1,-11 -1,-22 -4,-29 -17,-4 -107,-2 -136,-2 -22,0 -27,-1 -26,24 0,19 7,21 17,30 11,11 8,22 8,40l0 280c0,31 1,63 0,94 -1,22 -7,18 -19,28 -7,6 -10,32 -2,41z"/>
   <path class="fil4" d="M2233 2856c8,5 94,2 111,2 12,0 49,5 54,-4 0,0 9,-32 -9,-43 -19,-12 -15,-14 -15,-41 0,-19 0,-37 0,-56 0,-52 -3,-321 1,-334 6,-17 24,-8 27,-31 3,-27 0,-31 -25,-31 -32,0 -81,-3 -112,0l-53 204c-6,-9 -48,-180 -53,-204 -20,0 -119,-3 -129,2 -3,3 -3,2 -4,8 -1,3 -1,8 -1,11 -2,52 24,4 24,67l0 341c0,19 5,52 -7,63 -6,6 -12,8 -14,20 -6,37 24,27 63,27 22,0 36,5 35,-21 0,-26 -15,-21 -23,-34 -6,-9 -4,-40 -4,-53 0,-74 -2,-150 0,-224 3,4 4,8 6,13 8,30 49,188 53,198l35 0 59 -222c1,14 2,256 0,276 -2,19 -16,14 -22,23 -3,4 -7,31 2,40z"/>
   <path class="fil3" d="M883 1636c11,0 55,-21 70,-26 56,-18 113,-26 172,-20 35,4 70,16 80,17 -9,-40 -50,-95 -81,-118 -9,-7 -30,-23 -40,-26l-29 -18c-9,-6 -18,-11 -27,-17 -17,-11 -37,-24 -55,-33 0,0 1,-1 1,-1l5 -1c6,0 36,8 41,10 15,5 30,10 44,15 15,6 26,13 39,21 10,6 26,18 36,22l-1 7c4,3 7,6 12,9 -2,-19 -10,-42 -15,-58 -6,-17 -17,-35 -21,-53 0,0 -1,-1 -1,-1l-9 -13c-4,-5 -6,-9 -9,-14 -6,-9 -12,-20 -16,-30 -10,-21 -25,-33 -33,-58l58 65c0,0 1,1 1,1 5,10 20,22 28,33 39,54 54,110 62,121 1,0 1,0 1,1l25 27c-2,-24 -13,-104 -13,-113 2,-24 6,-12 -10,-48 -22,-52 -77,-166 -114,-198 -20,-3 -137,29 -148,38 6,13 40,14 48,31 -25,-3 -45,-14 -73,-8 -22,4 -40,15 -53,32 -57,72 -38,192 -19,279 6,25 30,111 44,123z"/>
   <path class="fil4" d="M1481 2359c27,0 39,3 48,24 9,22 5,177 5,206 0,34 4,181 -5,208 -8,23 -21,23 -48,23l0 -462zm-123 200c0,48 2,190 0,226 -2,25 -20,26 -26,32 -2,3 -11,38 8,40l113 0c76,0 120,9 170,-56 60,-78 64,-282 25,-382 -19,-49 -61,-97 -126,-101l-171 0c-19,1 -24,9 -19,37 4,22 25,4 25,32l0 171z"/>
   <path class="fil5" d="M2100 2036c-7,-9 -56,-17 -70,-22 -57,-18 -139,-53 -192,-81l2 -9c31,6 175,52 216,64 36,11 72,21 107,33 25,8 69,25 94,29 13,2 11,3 11,6 -2,7 -8,5 -16,4 -14,-1 -47,-5 -58,-8 14,42 7,33 11,67 1,13 2,11 9,17 12,10 21,11 39,13 58,6 198,4 241,-15 -2,-3 1,0 -3,-3 -4,-3 -7,-3 -11,-4l-3 -1c0,0 -1,0 -2,-1 0,0 -1,0 -2,-1 40,-1 82,11 121,12 13,0 21,-2 33,-3 16,-1 15,3 26,-6 12,-10 21,-19 30,-38 -4,-1 -42,-31 -64,-44 -20,-11 -21,-8 -46,-6 -45,2 -201,-16 -243,-22 -60,-10 -117,-24 -173,-40 -27,-8 -54,-16 -81,-25 -27,-8 -55,-16 -80,-26 -39,-15 -120,-46 -156,-57 -180,-55 -212,-17 -280,-23 -29,-2 -64,-8 -89,-18 -13,-5 -61,-29 -68,-37 -15,-17 -32,-54 -19,-80 -15,4 -62,22 -71,31 -9,9 -17,67 -15,83 27,6 55,8 81,15 77,19 150,58 228,63 -6,-4 -9,-2 -16,-9 36,-18 286,110 349,135 28,11 117,6 155,6z"/>
   <path class="fil6" d="M936 1845l-3 8c31,48 32,101 106,203 21,29 23,27 43,34 7,2 11,8 16,11 0,0 1,-1 1,-1 0,0 1,-1 1,-1 5,-8 5,-12 13,-21l1 -6 -4 -4c3,-6 3,-5 9,-10 7,-7 3,-5 7,-13l12 -2 97 -3 0 -8c-10,-5 -14,-3 -19,-11 10,4 6,6 20,6l81 6c76,7 167,-15 236,-43 13,-5 32,-9 36,-22 -17,-4 -84,-31 -105,-39 -60,-23 -165,-49 -230,-57 -24,-3 -121,-2 -130,-15 21,-13 105,-14 118,-23 12,-32 -23,-56 -49,-62 -70,-18 -167,14 -227,51 -8,5 -27,18 -32,25z"/>
   <path class="fil4" d="M3029 2320c-6,-3 -90,-4 -98,-1 -11,5 -5,34 1,40 9,9 21,7 24,24l0 197 -56 -131c-3,-7 -52,-129 -58,-130 -22,0 -75,-3 -94,1 -7,8 -8,18 -6,32 2,13 9,13 17,19 16,12 10,46 10,65l0 299c0,15 3,63 -4,71 -7,8 -18,7 -21,18 -1,4 -3,27 4,33 6,4 95,3 101,0 5,-7 5,-30 0,-38 -6,-8 -18,-9 -24,-18 -6,-11 -3,-61 -3,-78 0,-53 -3,-114 0,-166l129 303 57 -1 0 -425c0,-18 -6,-57 7,-65 10,-7 17,-3 18,-18 1,-11 1,-23 -5,-29z"/>
   <path class="fil4" d="M1299 2366c11,-7 16,-3 17,-19 1,-13 0,-20 -5,-29 -15,-1 -92,-4 -100,2 -5,6 -4,25 0,33 4,9 13,10 21,16 13,11 8,44 8,64 0,48 2,98 0,145l-111 -261c-17,0 -92,-4 -99,4 -6,7 -6,32 0,39 9,11 20,4 23,27 2,19 1,379 1,402 0,35 -28,4 -26,50 1,24 4,17 58,17 12,0 39,4 47,-3 5,-6 5,-30 0,-37 -6,-9 -18,-9 -24,-18 -7,-11 -4,-62 -4,-78 0,-55 -2,-113 1,-167l129 303 57 0 0 -430c0,-18 -6,-53 8,-62z"/>
   <path class="fil4" d="M816 2452l36 251 -72 0 36 -251zm-24 404c4,-6 5,-24 1,-33 -4,-8 -13,-10 -20,-17 -11,-11 -1,-46 1,-64l82 0c2,13 10,52 5,62 -5,10 -14,11 -18,18 -4,8 -4,25 0,32 7,4 147,4 160,1 4,-10 6,-31 -2,-40 -28,-31 -24,-59 -32,-112l-49 -335c-8,-55 -10,-51 -45,-51 -32,0 -64,0 -96,0 -22,0 -23,4 -22,27 1,24 14,16 19,30 4,12 -32,228 -35,250 -6,37 -19,138 -26,166 -4,16 -12,18 -19,29 -5,9 -10,33 1,37 9,3 88,2 94,-1z"/>
   <path class="fil4" d="M2535 2448l35 256 -72 0 37 -256zm-26 408c4,-5 3,-7 3,-16 0,-29 -10,-21 -22,-33 -11,-11 0,-46 1,-64l82 0c2,15 11,52 4,64 -5,9 -15,10 -18,18 -4,9 -3,26 1,31 8,3 146,3 156,0 10,-8 7,-34 1,-41 -9,-10 -13,-12 -18,-30 -6,-21 -10,-60 -13,-83 -8,-56 -16,-111 -25,-167 -8,-56 -17,-111 -24,-167 -8,-55 -10,-51 -45,-51 -32,0 -64,0 -96,0 -22,0 -23,4 -22,27 1,24 14,16 19,30 5,12 -32,228 -35,250 -4,28 -9,55 -13,83 -4,26 -7,58 -13,83 -4,16 -12,18 -19,29 -5,9 -10,33 1,36 8,3 88,2 94,-1z"/>
   <path class="fil7" d="M683 3302l2426 0 0 -394c-3,6 -3,12 -5,18 -21,92 -139,39 -232,36 -2,53 1,104 1,156 0,49 -6,97 -31,128 -37,46 -89,55 -148,56m-13 0c-32,0 -67,-3 -102,-3l-1267 1c-30,0 -617,-2 -630,2"/>
   <path class="fil4" d="M253 3302l378 0c-21,-9 -109,-6 -132,-106 -8,-33 -5,-79 -4,-115 1,-41 1,-79 -2,-119 -59,-1 -142,34 -196,12 -27,-11 -39,-34 -41,-71 -2,-36 -2,-73 -2,-109 0,-74 0,-148 0,-222 0,-34 5,-203 -1,-222l0 952z"/>
   <path class="fil4" d="M2004 2320c-11,-3 -84,-5 -89,3 -3,4 -2,15 -2,21 1,24 26,17 17,48 -6,21 -36,131 -42,141 -6,-9 -27,-90 -32,-107 -3,-11 -16,-45 -11,-55 5,-10 12,-2 13,-21 1,-11 1,-23 -4,-30 -14,-4 -146,-3 -152,1 -5,5 -4,7 -4,17 0,6 -1,14 1,20 3,7 14,8 20,20 7,12 49,171 55,192 5,19 16,48 16,68 0,20 1,156 -1,164 -3,10 -18,9 -24,18 -5,8 -4,29 0,37 13,4 164,4 177,0 2,-7 4,-31 0,-38 -5,-7 -18,-6 -24,-16 -6,-9 -3,-142 -3,-163 0,-31 6,-43 14,-69 6,-19 51,-178 57,-191 8,-17 32,-19 19,-59z"/>
   <path class="fil8" d="M1339 1414c5,-1 -5,-1 5,-1 29,-1 64,43 39,81 -16,24 -48,30 -73,-9 -4,-6 -5,-10 -7,-16 -4,-12 -2,-28 5,-37 1,-1 2,-3 4,-4 10,-10 15,-11 27,-14zm-70 121c10,28 3,28 6,48 16,9 20,14 30,27 9,11 30,10 33,25l68 -2c4,0 8,1 13,1l125 16c23,0 125,15 132,12 7,-5 10,-11 15,-18l35 -48c3,-4 5,-6 7,-10 5,-6 9,-12 14,-19 11,-14 36,-46 41,-60 -5,0 -8,-1 -13,-2 -4,0 -5,0 -11,0l-12 -1c-5,0 -7,-1 -12,-1 -40,-5 -24,5 -69,0 -8,-1 -16,0 -24,-1 -15,-2 -31,-1 -47,-1 -17,0 -32,2 -50,0 -18,-2 -28,0 -46,0 -9,0 -16,-1 -24,-2 -6,-1 -55,2 -64,-8l15 -3c0,-7 -5,-19 -6,-26 -9,-35 -8,-37 -26,-68 -5,2 -14,3 -19,0 -7,-4 -2,-1 -5,-6l15 2c-7,-6 -24,-2 -33,-1 -10,1 -23,3 -33,5 -10,1 -24,4 -33,5 -12,2 -22,6 -34,5 2,11 4,21 5,32l7 62c1,13 0,23 1,37z"/>
   <path class="fil9" d="M883 1636c-14,-13 -38,-98 -44,-123 -19,-86 -38,-207 19,-279 13,-16 31,-27 53,-32 28,-6 48,5 73,8 -9,-17 -42,-18 -48,-31 11,-9 128,-41 148,-38 -9,-19 -17,-20 -23,-29l-103 26c-60,16 -125,52 -164,95 -11,12 -19,24 -28,37 -51,69 -67,170 -62,263 2,39 7,79 12,117 7,53 10,62 21,110 10,-4 45,-49 68,-66l78 -57z"/>
   <path class="fil3" d="M2240 1356c5,-18 3,-45 11,-60 6,10 7,91 1,100l-11 98c15,-9 25,-31 32,-40 7,-9 48,-54 63,-54 -3,3 -7,9 -10,13 -24,30 -30,31 -44,73 -5,13 -8,0 -14,33 17,-1 47,-11 65,-15 30,-7 119,-19 143,3 4,4 4,6 8,11 7,10 26,6 55,9 -6,-34 -87,-85 -94,-98l-20 -7c-15,-9 -41,-25 -51,-37 13,-2 49,10 57,17l15 7c-9,-18 -10,-35 -31,-75 -35,-65 -107,-148 -182,-171 -18,-5 -18,2 -40,35 -23,35 -29,28 -19,79 6,32 8,64 14,95 6,30 10,17 14,39 3,16 4,34 6,50 5,-3 1,0 5,-5 7,-8 15,-32 18,-42 4,-14 12,-44 10,-59z"/>
   <path class="fil10" d="M1514 455c12,-7 17,-12 37,-14 16,-1 33,0 48,3 19,3 73,18 86,17l11 1c3,27 -20,34 -1,81 8,21 24,51 27,74 -32,-3 -45,-8 -60,10 -6,8 0,4 -7,5l0 12 1 6c36,1 63,18 99,14 5,-4 8,-6 13,-9 -2,-41 -39,-132 -34,-160 1,-8 12,-29 16,-32 1,-1 33,-8 40,-10 11,-4 24,-10 35,-13 19,-4 26,5 42,7 0,-44 -10,-117 -34,-143 -13,-1 -27,6 -38,10 -59,19 -146,9 -206,-2 -33,-6 -56,-17 -74,-17 -13,26 -9,90 -9,124 0,25 -6,37 7,36z"/>
   <path class="fil11" d="M1114 2078c-9,9 -8,13 -13,21 0,0 -1,1 -1,1 0,0 -1,1 -1,1 -5,-3 -9,-9 -16,-11 -20,-6 -22,-4 -43,-34 -74,-103 -74,-156 -106,-203l3 -8c-23,10 -66,60 -81,83 -29,45 -24,78 -2,125 24,52 33,57 63,100l35 47c10,13 24,33 43,38 0,-15 -18,-33 -24,-47 -3,-7 -13,-52 -13,-59 42,59 35,68 104,102 18,9 30,16 55,11l-3 -169z"/>
   <path class="fil4" d="M1524 2083c-4,17 10,15 22,22l1 158c-16,10 -27,-1 -23,22 13,2 154,2 163,0 3,-16 -5,-12 -15,-19l-1 -82 52 0c0,16 6,77 -4,83 -5,3 -7,2 -14,7 -1,18 12,12 30,12 24,0 127,2 136,-2 7,-19 -13,-13 -24,-23 -1,-19 -3,-149 1,-157 10,-13 32,1 25,-23 -16,-3 -121,-2 -151,-1 -22,0 -16,13 -8,17 2,1 3,1 4,2l4 2c3,2 2,59 2,66l-52 1c0,-16 -2,-55 1,-68l17 -6c2,-19 -12,-14 -30,-14 -24,0 -125,-3 -134,3z"/>
   <path class="fil12" d="M2373 810c-5,19 -19,31 -28,45l-103 140c-36,42 -67,100 -99,142l-58 82c-5,7 -9,13 -14,20 -22,33 -50,69 -72,102 -9,13 -19,28 -28,41 -10,14 -19,27 -29,40 -6,9 -21,35 -30,40 -17,32 -2,6 -26,36 -2,2 -3,5 -5,7l-4 6c-6,9 -9,18 -16,26 -4,5 -7,5 -11,10 -4,5 -4,7 -7,12l-18 24c-6,9 -12,16 -18,25l-5 6c-26,31 -34,30 -24,37 -5,6 -5,1 -13,14 -2,4 -1,2 -3,5l64 11c4,-6 13,-20 18,-28 6,-9 12,-19 18,-28l216 -325c6,-9 11,-17 18,-27 3,-5 6,-9 9,-14 3,-4 5,-9 9,-14l18 -26c7,-8 12,-19 18,-28l109 -161c7,-10 11,-17 18,-26l100 -149c9,-14 22,-26 25,-44 -4,-2 -10,-4 -14,-7 -6,-4 -7,-7 -14,-9l-1 12z"/>
   <path class="fil13" d="M818 1741l2 7c8,2 12,-5 22,-7 2,-2 27,-14 33,-16 10,-5 28,-10 40,-12 -3,11 -12,17 -18,24 -12,15 -47,70 -27,88 12,-1 50,-34 78,-48 70,-33 123,-53 206,-52 72,1 77,17 105,23 -6,-25 -5,-46 -17,-69 -29,-58 -129,-69 -195,-58 -77,13 -186,64 -229,119z"/>
   <path class="fil14" d="M1498 1123l-20 -72c-6,-21 -12,-50 -15,-73 13,0 16,9 23,15 6,5 17,12 25,17 9,6 16,11 25,17 41,29 93,54 147,64 -3,-13 -18,-26 17,-52 16,-12 25,-12 41,-22l13 -10c0,0 1,-1 1,-1 -55,8 -72,24 -144,4 -44,-12 -82,-33 -108,-59 -13,-13 -29,-26 -43,-39 -14,-13 -29,-28 -43,-41 -12,-12 -22,-33 -29,-53 -4,-10 -7,-21 -10,-32 -4,-15 -3,-21 -13,-29 -3,18 -1,38 -1,57 1,20 -1,39 -1,59 -5,121 -65,63 -2,143l36 45c16,16 73,53 101,62z"/>
   <path class="fil15" d="M1507 143c7,3 44,-3 55,-4 10,-1 12,2 21,2 -23,14 -88,12 -153,54l-20 11c6,6 15,13 25,14 9,1 29,0 37,-1 2,-4 2,-3 1,-9 29,-3 62,6 88,14l62 15c9,2 17,4 22,0 -12,-17 -48,-20 -64,-34 11,1 16,1 26,3 9,2 15,3 23,6 25,7 58,21 73,41l13 16c6,8 7,8 10,18 18,-2 26,-4 36,-16 29,-36 9,-57 3,-78 4,2 3,1 5,4 21,19 21,38 35,45 10,-11 3,-29 0,-42 12,5 16,19 20,28 3,7 -1,-1 3,6 9,14 5,10 13,12 0,-52 -37,-82 -78,-104 -53,-28 -146,-41 -209,-21 -8,3 -18,6 -26,8 -20,7 -19,3 -21,13z"/>
   <path class="fil16" d="M1505 747c-3,-19 1,-25 -11,-58 -15,-45 -39,-55 -38,-104 0,-29 7,-36 16,-56 7,0 17,2 23,4 9,3 14,8 26,0l-19 1c5,-10 18,-15 27,-21 10,-7 16,-13 32,-16 11,-2 34,-5 44,-4 11,1 31,12 32,11 7,-7 -81,-36 -121,-21 -15,5 -23,14 -36,19 7,-24 13,-29 28,-40 5,-4 3,0 6,-6 -13,1 -7,-11 -7,-36 0,-34 -3,-98 9,-124 17,0 41,11 74,17 60,11 147,21 206,2 11,-4 25,-11 38,-10l-7 -12c-23,7 -50,22 -86,26 -35,4 -69,-6 -98,-13 -27,-7 -171,-48 -188,-26 6,5 10,4 18,4 -3,6 -6,5 -8,10l3 -8c-13,3 -14,8 -16,22 7,-2 3,1 8,-6 -17,43 -19,60 -11,103 3,16 -1,18 -8,31 -37,63 -29,47 -38,106 -1,8 -4,10 -5,15 14,13 1,8 7,40 1,6 1,3 1,7 -1,13 13,88 16,94 7,-6 3,-10 4,-20 6,8 6,22 12,31l4 -4c1,-2 2,-3 4,-5 2,5 5,11 7,17 1,2 3,8 4,10 4,9 0,3 6,5 5,2 0,-6 11,14 3,6 5,13 9,17l5 -12 13 25c2,-15 -4,-22 5,-28z"/>
   <path class="fil4" d="M1893 2095c8,3 22,3 28,10l0 160c-8,3 -23,5 -30,11 0,13 1,11 29,11l201 0c18,0 17,-2 23,-16 3,-7 11,-23 10,-30 -17,-6 -41,-6 -55,12 -17,22 -21,20 -55,20l0 -87c21,0 34,-4 43,10 5,8 5,9 17,10 35,2 30,1 30,-40 0,-15 1,-16 -28,-16 -28,0 -9,18 -33,21 -8,1 -19,0 -27,0l-1 -72c30,0 36,-1 52,16 6,7 9,12 21,13 10,1 25,3 32,-2 0,0 0,-1 0,-1l0 -3c0,-1 -2,-5 -3,-6 -22,-41 -1,-32 -103,-32 -25,0 -135,-2 -151,1l-1 13z"/>
   <path class="fil2" d="M1498 1123c8,16 72,29 96,33 61,9 171,8 200,-56 13,-27 12,-86 0,-113l-39 19c0,0 -1,1 -1,1l-13 10c-16,10 -25,10 -41,22 -35,26 -20,40 -17,52 -54,-10 -105,-35 -147,-64 -9,-6 -17,-11 -25,-17 -8,-5 -19,-12 -25,-17 -7,-6 -11,-15 -23,-15 2,23 8,52 15,73l20 72z"/>
   <path class="fil4" d="M1205 2128c15,3 42,6 48,-8 11,-23 5,-25 36,-24 2,18 2,157 -1,169 -9,5 -15,3 -24,8l0 11c10,4 163,4 173,0l1 -13c-9,-3 -18,-5 -26,-9l-1 -167c46,0 21,33 54,34 10,0 20,1 28,-2 3,-10 -4,-37 -7,-45 -19,-3 -212,-1 -249,-1 -14,0 -29,-4 -32,11 -2,10 -5,28 -3,37z"/>
   <path class="fil10" d="M1521 532c-12,7 -17,2 -26,0 -6,-2 -16,-3 -23,-4 -9,20 -16,27 -16,56 0,50 23,60 38,104 11,33 7,39 11,58 0,5 10,33 15,39 14,-14 25,-60 85,-81 20,-7 35,-8 35,-18l-21 -4c0,-13 6,-17 12,-24 7,-9 21,-65 26,-80 -47,-8 -34,5 -57,8 3,-6 10,-14 16,-19 13,-13 7,-14 16,-22 -3,-11 3,-23 -7,-19 0,0 -4,2 -5,3 -20,12 -11,18 -27,21 -30,7 -35,-17 -40,-25l-32 6z"/>
   <path class="fil17" d="M2411 751c16,-6 17,22 3,16 -2,-2 -2,1 -4,-7 -1,-5 0,-6 1,-9zm-235 -166c47,-4 108,5 144,24 17,9 37,24 41,45 5,27 -9,53 -7,80 15,9 48,44 87,56 4,-4 4,-6 7,-10 28,-33 12,-24 64,-56 0,-19 6,-39 7,-60 1,-28 -8,-32 -26,-42 -69,-40 -120,-59 -205,-59 -27,0 -97,6 -111,21z"/>
   <path class="fil18" d="M2313 831c-11,7 -20,27 -30,39 -27,33 -39,55 -64,89 -31,43 -60,88 -91,132 -31,44 -62,84 -93,129 -20,29 -58,84 -81,112 -4,5 -10,10 -11,16 2,6 0,3 11,3l-1 9c-4,-1 -5,3 -6,3 -5,-1 -7,-3 -8,-6 0,-1 0,-1 -1,-1 -6,5 -24,32 -30,40 -6,9 -27,36 -29,44 7,5 2,-1 13,-5 4,-2 12,2 15,5l2 22c9,-5 24,-30 30,-40 9,-14 18,-27 29,-40 9,-13 20,-27 28,-41 22,-34 50,-69 72,-102 5,-7 10,-13 14,-20l58 -82c32,-43 63,-100 99,-142l103 -140c9,-14 23,-26 28,-45 -8,0 -9,0 -15,-4 -2,-2 -11,-7 -11,-8 -3,3 -3,5 -5,9 -5,8 -14,22 -21,28l-8 -4z"/>
   <path class="fil19" d="M1097 1080l10 -1c2,10 14,19 20,27 10,12 17,9 15,18 -1,3 -2,1 -3,9 6,9 10,17 16,27l48 79c14,24 52,86 54,117 9,-1 20,0 31,0l71 -5c11,-2 8,-2 9,-10 -2,-5 -3,-10 -4,-15 -13,-50 -70,-159 -103,-194l-6 -7 -13 -5c-7,-5 -5,-7 -16,-8 -6,14 -5,19 5,28 -6,-6 -5,-1 -7,0 -6,2 -5,2 -9,4 3,5 3,1 9,14 2,4 1,3 3,6 8,13 13,29 20,45 4,8 8,15 8,26 0,-6 -7,-16 -9,-25 -2,-5 -3,-9 -6,-14 -6,-11 -8,-4 -16,-22 -6,-12 -15,-23 -26,-32 -7,-6 -4,-5 -8,-11l-74 -56c14,-1 3,0 8,-5 -5,0 -10,1 -15,1 -2,0 -5,1 -6,1l-6 2 1 7z"/>
   <path class="fil8" d="M2057 1411c0,1 1,2 1,3 0,12 2,-3 0,3l-15 22c0,0 0,1 -1,1 -16,27 -23,46 -37,75l-32 68c-2,6 -5,11 -7,14 -3,6 -18,37 -18,43 -2,32 33,20 38,20l61 -2c39,-1 25,-11 56,-25 21,-9 48,-38 53,-52 -5,-2 -11,-1 -17,0 -2,-15 16,-41 16,-63 0,-13 -6,-18 -9,-30 -5,-15 4,-15 -5,-29 2,13 -3,37 -10,47 -11,15 -16,13 -25,17 -4,2 -1,-1 -4,3 -5,5 -1,0 0,2 -10,-13 -16,-4 -32,-22 -9,-9 -14,-19 -14,-32 0,-8 0,-15 2,-22 5,-16 26,-30 42,-31l-5 -8c13,-10 25,2 32,-2l-53 -3c-16,2 -2,6 -14,5z"/>
   <path class="fil0" d="M1481 2821c27,0 40,0 48,-23 9,-27 5,-174 5,-208 0,-30 4,-185 -5,-206 -9,-21 -21,-24 -48,-24l0 462z"/>
   <polygon class="fil3" points="1120,3137 1192,3137 1208,3082 1225,3137 1298,3137 1324,3026 1267,3026 1251,3101 1239,3027 1179,3026 1162,3099 1151,3026 1095,3026 "/>
   <path class="fil3" d="M724 3137l72 0 16 -55c8,13 10,40 18,55l72 1 26 -111 -57 0 -16 73 -13 -73 -61 0 -16 70 -6 -34c-2,-12 -4,-23 -6,-35l-56 -1 25 111z"/>
   <path class="fil10" d="M1773 531l-4 5c2,11 4,20 7,30 7,29 2,19 0,22 -2,3 -2,-1 -3,6 8,17 3,8 8,22 3,9 7,14 9,24 5,25 -8,33 -13,50 34,15 32,20 54,41 6,5 12,25 20,37 6,-8 20,-95 24,-114 12,-58 -1,-73 -4,-125 -5,1 -6,2 -9,3 -3,1 -2,1 -5,0 -4,0 -3,1 -5,-2l-21 -4c-8,26 -25,36 -45,16 -2,-3 -4,-5 -6,-7 -5,-6 1,-5 -7,-4z"/>
   <path class="fil9" d="M842 1741c-3,19 -8,13 -21,24 -5,4 -8,6 -14,10 -10,6 -5,3 -8,10l-11 -2 1 -6c0,0 -1,0 -1,1l-3 3c-23,26 -30,45 -34,86 -3,27 11,86 22,106 6,-9 10,-31 16,-44 7,-14 15,-27 24,-38 14,-17 53,-54 57,-67 -20,-17 15,-73 27,-88 6,-8 15,-13 18,-24 -11,2 -30,7 -40,12 -6,3 -31,14 -33,16z"/>
   <path class="fil20" d="M2172 1564c-9,-2 -11,10 -16,18 -5,14 -32,43 -53,52 -31,14 -17,24 -56,25l-61 2c-5,1 -40,13 -38,-20 0,-6 15,-37 18,-43 2,-4 5,-9 7,-14l32 -68c14,-28 21,-47 37,-75 0,0 0,-1 1,-1l15 -22c2,-7 0,8 0,-3 0,0 0,-2 -1,-3 0,0 -1,-1 -2,0 -1,1 -2,-3 -7,3l-16 27c-8,11 -16,23 -23,34 -15,22 -31,45 -46,67l-80 119c-6,9 -8,11 -9,23l49 7c15,2 34,2 51,4 11,1 69,6 77,1l28 -28c11,-12 9,-3 29,-26l29 -26c6,-6 10,-6 16,-13 8,-11 17,-22 18,-40z"/>
   <path class="fil16" d="M1236 2040l518 -3c-7,-21 -94,-46 -121,-53 -19,-5 -26,-11 -42,-18 -4,13 -23,17 -36,22 -70,29 -160,51 -236,43l-81 -6c-15,0 -10,-2 -20,-6 5,9 9,6 19,11l0 8z"/>
   <path class="fil5" d="M2360 1633c-26,6 -57,33 -94,34 3,-16 12,-20 20,-28 13,-14 14,-8 13,-30l-52 25c7,-18 1,-3 28,-27l33 -24c-25,0 -34,17 -53,25 -17,7 -28,15 -39,17 4,-18 43,-41 50,-64 -31,6 -39,27 -43,31 -12,12 -6,-8 -40,33 -12,14 -20,18 -35,38 -11,14 -27,23 -32,41 39,3 112,1 146,-10 18,-6 38,-17 52,-26l46 -33z"/>
   <path class="fil21" d="M1655 860c2,-8 0,-10 -4,-15 -7,2 -5,1 -10,6 -3,-2 -9,-4 -14,-6l9 -8c0,-11 -6,-21 0,-29 8,-4 5,-2 13,1l13 4c1,0 1,1 2,1 32,4 72,1 105,-1 -2,13 -8,20 -12,30l26 26c33,-6 23,-64 19,-97l-5 -1 -15 1c-3,7 -7,6 -16,6l-160 0c12,-19 84,-28 111,-27 -2,-1 -1,-1 -5,-2 -3,-1 -3,0 -6,-1 -5,-1 -4,1 -9,-1 -26,1 -48,6 -71,12 -38,12 -43,43 -39,84 1,12 3,10 20,22 15,11 22,23 43,1l4 -6z"/>
   <path class="fil0" d="M1514 455c-4,6 -1,2 -6,6 -16,10 -22,16 -28,40 13,-5 21,-13 36,-19 40,-15 128,14 121,21 -2,1 -21,-10 -32,-11 -10,-1 -33,2 -44,4 -16,3 -21,9 -32,16 -9,6 -22,11 -27,21l19 -1 32 -6c6,8 10,33 40,25 16,-4 7,-10 27,-21 0,0 5,-3 5,-3 10,-3 4,8 7,19 0,8 0,5 2,7 19,-12 29,-23 31,-54 4,-2 38,-16 20,-38 -13,1 -67,-14 -86,-17 -15,-2 -32,-4 -48,-3 -20,2 -25,7 -37,14z"/>
   <path class="fil3" d="M2382 3053l8 44 -19 0 11 -44zm-73 84c14,1 49,3 59,-1l4 -18 20 0 4 18c11,5 44,2 59,1l-32 -111 -81 0c-6,1 -7,15 -10,25 -3,9 -5,19 -8,29 -4,17 -13,41 -15,57z"/>
   <path class="fil22" d="M2299 1608c2,23 1,16 -13,30 -8,9 -16,13 -20,28 37,-1 68,-28 94,-34 46,-22 160,-49 176,-59 2,-12 -1,-20 -4,-30 -19,-2 -111,14 -128,20 -35,14 -69,30 -104,44z"/>
   <path class="fil3" d="M1864 3137l55 0 12 -38c9,11 9,38 25,38l46 0c-2,-10 -20,-42 -25,-53 -9,-17 7,-28 16,-58l-49 0 -12 29 -12 -28 -56 0c4,14 22,43 19,54 -4,17 -17,40 -19,57z"/>
   <path class="fil23" d="M1289 558c3,-6 10,-19 16,-23 22,9 39,53 42,83 -6,-2 -6,-4 -13,-4 -6,23 3,30 3,47 -20,-3 -30,-28 -29,-49 1,-28 16,-41 -8,-59l-12 5zm-1 -40c-45,27 -11,185 62,197 26,4 16,-34 14,-53 -2,-30 -7,-103 -24,-125 -6,-8 -35,-30 -52,-19z"/>
   <path class="fil24" d="M1881 1441c-6,3 -35,44 -42,54l-79 113c-9,13 -33,44 -39,58 8,6 28,4 40,4 3,-3 1,-1 3,-5 7,-13 7,-8 13,-14 -9,-8 -1,-7 24,-37l5 -6c6,-9 11,-16 18,-25l18 -24c3,-5 2,-7 7,-12 4,-5 7,-5 11,-10 7,-8 10,-17 16,-26l4 -6c1,-2 3,-5 5,-7 24,-30 9,-5 26,-36l-2 -22c-4,-3 -11,-7 -15,-5 -11,4 -6,11 -13,5z"/>
   <path class="fil9" d="M1328 1152c0,0 1,-2 1,-1l4 -3c7,5 17,20 23,24 25,14 8,5 29,20 56,40 147,79 222,69 -109,-28 -118,-21 -217,-95 -7,-6 -11,-11 -18,-16 -20,-15 -12,-4 -27,-25l-26 -27c-6,-6 -11,-11 -18,-17 -10,-10 -32,-22 -19,-41l31 2c-7,-17 -16,-23 -21,-40 -14,2 -51,19 -60,27 9,16 58,69 73,91 8,12 15,23 23,33z"/>
   <path class="fil2" d="M2100 2036c16,-1 40,-1 55,0 22,3 31,16 39,16 10,3 43,7 58,8 8,1 14,3 16,-4 0,-3 3,-3 -11,-6 -25,-4 -69,-21 -94,-29 -35,-11 -71,-22 -107,-33 -41,-13 -185,-58 -216,-64l-2 9c53,28 135,63 192,81 14,4 63,13 70,22z"/>
   <path class="fil20" d="M1543 1650l-125 -16c-5,0 -8,-1 -13,-1l-68 2c-3,-15 -24,-14 -33,-25 -11,-13 -14,-18 -30,-27 -3,-19 4,-20 -6,-48 -3,10 -2,23 -1,34 1,30 6,67 16,94l10 26c3,8 4,8 6,10 10,0 19,-6 27,-10 5,-3 7,-3 12,-5 16,-7 53,-21 70,-24 27,-5 36,-8 64,-8l55 -3c7,-1 10,1 16,0z"/>
   <polygon class="fil0" points="2498,2704 2570,2704 2535,2448 "/>
   <polygon class="fil0" points="780,2704 853,2704 816,2452 "/>
   <polygon class="fil3" points="939,3137 1039,3137 1040,3115 997,3115 997,3091 1033,3090 1033,3069 997,3069 998,3048 1036,3048 1036,3026 939,3026 "/>
   <polygon class="fil3" points="1681,3137 1739,3137 1739,3091 1775,3090 1775,3069 1740,3069 1739,3049 1779,3048 1779,3026 1681,3026 "/>
   <path class="fil25" d="M1631 546c-9,8 -3,9 -16,22 -6,6 -13,13 -16,19 24,-3 10,-16 57,-8 -6,15 -20,72 -26,80 -6,8 -12,11 -12,24l21 4c-7,-19 -4,-37 9,-51 6,-6 -1,-4 7,-4 7,-2 1,2 7,-5 14,-18 27,-13 60,-10 -3,-23 -19,-52 -27,-74 -19,-48 4,-54 1,-81l-11 -1c18,22 -16,35 -20,38 -2,31 -12,42 -31,54 -2,-2 -2,1 -2,-7z"/>
   <polygon class="fil3" points="2131,3048 2165,3048 2166,3137 2223,3137 2224,3049 2258,3048 2258,3026 2131,3026 "/>
   <path class="fil2" d="M2313 1686c4,3 11,2 16,2 60,-5 54,7 116,-18 19,-8 35,-15 55,-22 30,-10 39,-3 35,-40 -53,-1 -129,23 -174,50l-48 27z"/>
   <path class="fil19" d="M2022 1187l-13 -53c-3,-12 -11,-43 -10,-53 -3,-1 -53,-33 -78,-31 0,15 31,71 41,95 6,14 7,24 11,37 2,1 3,-4 9,13 3,8 4,19 10,23 -6,7 -5,1 -4,6 12,-6 10,-6 18,-17 3,-5 11,-17 15,-20z"/>
   <path class="fil22" d="M2266 1559c-7,23 -46,47 -50,64 11,-2 22,-11 39,-17 19,-8 28,-24 53,-25 10,-1 43,-21 74,-29 28,-8 69,-11 74,-31 -13,-10 -36,-3 -53,-5 -25,-3 -30,0 -51,7 -31,10 -58,22 -84,35z"/>
   <polygon class="fil3" points="1417,3137 1510,3137 1510,3115 1475,3115 1475,3026 1417,3026 "/>
   <polygon class="fil3" points="2464,3137 2557,3137 2557,3115 2522,3115 2522,3026 2464,3026 "/>
   <polygon class="fil3" points="1524,3137 1617,3137 1617,3115 1582,3115 1582,3026 1524,3026 "/>
   <polygon class="fil3" points="2571,3137 2664,3137 2665,3115 2630,3115 2630,3026 2572,3026 "/>
   <path class="fil8" d="M1123 1068c-5,5 7,3 -8,5l74 56c5,6 2,5 8,11 11,9 20,20 26,32 9,18 10,11 16,22 2,5 4,9 6,14 3,8 9,19 9,25 0,-11 -4,-18 -8,-26 -7,-16 -12,-32 -20,-45 -2,-4 -2,-2 -3,-6 -6,-12 -7,-8 -9,-14 4,-3 3,-3 9,-4 2,-1 1,-6 7,0 -10,-9 -11,-14 -5,-28 11,2 10,3 16,8l13 5 -2 -10 -20 -24c-4,-4 -3,-1 -6,-7 -13,-18 -8,-6 -22,-24 -10,-13 -15,-17 -41,-7l-32 13c-2,1 -5,1 -6,2 -6,3 -3,0 -3,2z"/>
   <path class="fil0" d="M1339 1414c-12,3 -18,4 -27,14 -1,1 -2,2 -4,4 -8,10 -10,25 -5,37 2,5 4,10 7,16 25,39 57,33 73,9 25,-38 -10,-82 -39,-81 -10,0 0,0 -5,1z"/>
   <path class="fil0" d="M2141 1459c-1,-10 -8,-22 -13,-27 -8,-7 -17,-10 -29,-11 -16,1 -36,15 -42,31 -2,6 -2,13 -2,22 1,14 6,23 14,32 16,17 21,9 32,22 -1,-2 -4,3 0,-2 3,-3 0,-1 4,-3 9,-4 14,-2 25,-17 7,-10 12,-34 10,-47z"/>
   <polygon class="fil3" points="1336,3137 1393,3137 1394,3026 1336,3026 "/>
   <polygon class="fil3" points="2060,3137 2118,3137 2118,3026 2060,3026 "/>
   <polygon class="fil3" points="1793,3136 1851,3137 1851,3027 1793,3026 "/>
   <path class="fil26" d="M2670 875c4,-2 6,-4 11,-6 1,0 5,-1 6,-1 12,2 3,-1 7,5l6 0c1,-15 11,-18 19,-27 7,-9 12,-19 17,-30 5,-12 26,-62 10,-73 -32,-14 -97,101 -77,132z"/>
   <path class="fil27" d="M1787 1507c8,-4 7,-3 8,-13 -100,5 -175,-7 -267,-11 -15,-1 -30,-3 -44,-3 -14,0 -31,-3 -45,-3 -6,-12 -15,-67 -21,-86 -9,-3 -16,-4 -29,-2l-15 -2c3,5 -2,2 5,6 6,3 14,2 19,0 17,31 17,32 26,68 2,6 6,19 6,26l-15 3c9,10 58,7 64,8 9,1 16,2 24,2 18,0 28,-2 46,0 18,2 33,-1 50,0 16,0 31,-1 47,1 8,1 16,0 24,1 45,5 29,-5 69,0 5,1 6,1 12,1l12 1c5,1 6,0 11,0 4,0 8,1 13,2z"/>
   <path class="fil28" d="M2697 750l-56 -24c-17,6 -43,47 -43,76l61 21c12,-42 32,-56 39,-73z"/>
   <path class="fil29" d="M2175 584c15,-15 85,-21 111,-21 85,0 137,19 205,59 18,11 27,14 26,42 -1,21 -7,41 -7,60l11 -1c-3,-7 3,-2 -3,-6 3,-6 -1,2 2,-3l8 -16c4,-16 8,-45 4,-62 -6,-25 -111,-65 -134,-72 -36,-11 -80,-17 -121,-13 -11,1 -100,16 -108,29l5 2z"/>
   <path class="fil30" d="M2098 1421c13,1 22,4 29,11 5,5 12,17 13,27 9,14 0,14 5,29 4,12 9,17 9,30 0,22 -17,49 -16,63 6,-1 12,-2 17,0 6,-7 8,-20 16,-18 0,-14 -5,-49 -4,-73 0,-13 -1,-67 -6,-73 -5,-6 -28,-7 -37,-8 -7,5 -19,-8 -32,2l5 8z"/>
   <path class="fil31" d="M2530 700l-8 16c-3,5 1,-3 -2,3 6,4 0,-1 3,6 24,-2 57,18 81,21 8,-11 19,-18 24,-37 -25,-2 -54,-27 -76,-33 -9,9 -9,17 -21,26z"/>
   <path class="fil0" d="M1782 771c-12,-16 -41,-19 -66,-20 -27,-1 -98,8 -111,27l160 0c9,0 13,1 16,-6z"/>
   <path class="fil32" d="M1085 1463c3,-5 -1,-1 5,-2 2,0 2,0 5,0 3,0 8,2 10,3 7,3 12,6 19,8 -4,-10 -4,-2 -10,-11l25 8 1 -7c-10,-4 -25,-16 -36,-22 -12,-7 -24,-14 -39,-21 -14,-6 -29,-11 -44,-15 -6,-2 -35,-10 -41,-10l-5 1c0,0 -1,0 -1,1 18,9 38,22 55,33 9,6 18,11 27,17l29 18z"/>
   <path class="fil33" d="M2240 1494l-15 48c12,-4 37,-16 42,-24 5,-33 9,-19 14,-33 14,-41 20,-42 44,-73 3,-4 8,-10 10,-13 -14,0 -56,45 -63,54 -7,9 -17,31 -32,40z"/>
   <path class="fil0" d="M1289 558l12 -5c24,18 8,31 8,59 -1,22 9,46 29,49 0,-17 -10,-24 -3,-47 7,0 7,1 13,4 -3,-31 -20,-74 -42,-83 -6,4 -13,17 -16,23z"/>
   <path class="fil34" d="M1307 352c12,-7 8,-12 22,-26 5,-5 8,-6 13,-10 6,-5 4,-6 11,-12 17,-12 30,-27 41,-53 -7,0 -21,-4 -37,7 -18,13 -14,5 -24,23 -14,23 -24,39 -26,71z"/>
   <path class="fil35" d="M2142 1360c-7,18 -25,17 -38,4 3,-14 17,-34 30,-40 -4,-10 -5,-12 -10,-18 -15,4 -11,4 -18,18 -4,8 -8,14 -13,22 -2,3 -3,5 -6,9 -4,5 -5,5 -8,9 -5,8 -10,18 -10,27 18,0 57,1 69,-4l3 -5c4,-7 4,-9 4,-13l-3 -8z"/>
   <path class="fil15" d="M1330 393c8,-2 29,-19 35,-24 4,-4 5,-6 9,-10 12,-12 33,-26 26,-49 -22,-2 -36,12 -47,28 -7,12 -21,40 -23,55z"/>
   <path class="fil36" d="M2022 1187c22,-36 29,-35 16,-57 -6,-10 -10,-19 -15,-29 -11,-21 -8,-9 -24,-19 -1,9 7,41 10,53l13 53z"/>
   <path class="fil37" d="M2641 727l56 24c5,-3 23,-17 26,-22 -8,-10 -28,-19 -43,-24 -13,-5 -14,-3 -24,5 -7,5 -13,10 -16,18z"/>
   <path class="fil38" d="M2186 609c10,12 67,18 110,37 12,5 24,15 34,17 0,-15 -6,-20 -20,-28 -23,-13 -53,-21 -78,-26 -9,-2 -38,-6 -46,-1z"/>
   <path class="fil16" d="M1852 531c3,2 1,2 5,2 3,0 2,0 5,0 3,-1 4,-2 9,-3 5,-4 2,-26 1,-33 -2,-9 -11,-17 -19,-20 -14,-5 -46,8 -57,16 10,5 30,3 41,7 11,5 15,17 21,29 -3,3 3,2 -7,2z"/>
   <path class="fil39" d="M1258 1355c1,3 2,5 3,7 7,11 16,9 38,7 20,-3 73,-2 76,-16 2,-6 2,-3 -2,-8 0,0 -1,-1 -1,-1l-4 -4c-1,9 2,8 -9,10l-71 5c-10,0 -22,-1 -31,0z"/>
   <path class="fil34" d="M1735 935c13,-2 19,-20 21,-32 2,-8 3,-15 1,-23 -9,-35 -21,-26 -24,-16 -2,9 1,15 2,23 5,20 -4,40 -1,48z"/>
   <path class="fil40" d="M1114 1367c2,-10 1,-6 0,-14 -1,-6 1,-5 -1,-13 -2,-6 -10,-18 -14,-20 2,-2 -1,-1 6,-2 0,0 -1,-2 -1,-1l-58 -65c7,25 22,37 33,58 5,10 11,20 16,30 3,5 5,8 9,14l9 13c0,0 1,1 1,1z"/>
   <path class="fil23" d="M1785 1237c51,-6 115,-64 101,-96 -12,12 -21,41 -42,57 -9,7 -17,13 -28,22 -10,8 -22,9 -31,18z"/>
   <path class="fil41" d="M1757 665c-36,5 -63,-12 -99,-14l-1 -6 -4 11c0,4 0,8 2,10 4,8 8,11 19,10l5 -11c51,-2 34,12 68,14 3,-7 5,-8 9,-14 0,0 1,-1 1,-1z"/>
   <path class="fil42" d="M2142 1360l-7 -36c-13,6 -27,26 -30,40 12,13 31,14 38,-4z"/>
   <path class="fil2" d="M1655 860c7,-3 12,-9 16,-15 -8,-16 -22,-16 -26,-32l18 1c-1,0 -1,-1 -2,-1l-13 -4c-8,-3 -5,-5 -13,-1 -6,7 -1,18 0,29l-9 8c5,2 11,4 14,6 5,-4 3,-4 10,-6 4,5 6,7 4,15z"/>
   <path class="fil43" d="M2502 759c11,5 28,4 41,9 15,5 17,13 36,15 -3,-30 -67,-41 -78,-24z"/>
   <path class="fil33" d="M1505 1445c-1,-1 2,-2 -12,-3l1 -13c-11,-5 -22,-23 -37,-40 2,13 3,31 7,43 3,8 4,11 12,12 8,1 20,1 29,1z"/>
   <path class="fil44" d="M789 1777l-1 6 11 2c3,-8 -2,-4 8,-10 6,-4 9,-6 14,-10 13,-11 18,-5 21,-24 -10,2 -15,9 -22,7l-2 -7c-6,4 -14,10 -18,15 -2,2 -4,6 -6,9l-5 12z"/>
   <path class="fil33" d="M2313 831l8 4c7,-6 16,-19 21,-28 2,-4 3,-6 5,-9 0,0 9,6 11,8 6,4 6,4 15,4l1 -12c-17,-8 -25,-18 -37,-3 -8,11 -17,22 -23,36z"/>
   <path class="fil45" d="M1697 747c5,2 4,1 9,1 3,0 2,0 6,1 4,1 3,1 5,2 25,1 54,5 66,20l15 -1c-10,-18 -19,-21 -42,-25 -27,-5 -34,-3 -58,1z"/>
   <path class="fil40" d="M2425 1421c0,-5 -1,-5 1,-9l3 -4c0,-4 0,-4 2,-6 -8,-8 -44,-19 -57,-17 10,12 36,28 51,37z"/>
   <path class="fil40" d="M2240 1356c5,-2 4,-1 7,4 1,2 3,8 4,10 2,9 1,16 1,26 7,-9 5,-90 -1,-100 -8,16 -6,42 -11,60z"/>
   <path class="fil15" d="M1097 1080c3,10 13,21 20,29 10,12 9,17 23,24 1,-8 2,-6 3,-9 2,-9 -6,-6 -15,-18 -6,-8 -18,-18 -20,-27l-10 1z"/>
   <path class="fil46" d="M2466 1690l10 4c4,1 8,1 12,1 9,1 16,2 25,3 0,-17 2,-23 -18,-18 -10,2 -21,6 -28,10z"/>
   <path class="fil39" d="M1884 329c6,4 9,6 18,8 1,-18 3,-25 -10,-37 -11,8 -10,13 -8,29z"/>
   <path class="fil5" d="M1773 595c0,-7 1,-3 3,-6 2,-3 6,7 0,-22 -2,-10 -4,-20 -7,-30l4 -5 -14 3 10 45c1,7 1,10 5,16z"/>
   <path class="fil47" d="M2706 1992c3,-8 6,-24 3,-34 -2,-7 -10,-20 -17,-22 1,9 5,17 7,27 1,7 1,19 5,26 2,3 1,1 3,3z"/>
   <path class="fil48" d="M1220 1500l-25 -27c0,-1 -1,-1 -1,-1 2,10 5,21 10,28 3,6 6,6 9,10 6,9 -2,8 7,13 5,-5 1,2 3,-5l-2 -19z"/>
   <polygon class="fil34" points="2371,3097 2390,3097 2382,3053 "/>
   <path class="fil49" d="M1115 2072c3,-2 0,0 4,-3 1,-1 2,-2 3,-3 3,-3 4,-4 7,-7 6,-6 8,-7 11,-16l-12 2c-4,8 0,6 -7,13 -6,5 -5,4 -9,10l4 4z"/>
   <path class="fil49" d="M2670 875l2 6c10,1 18,-1 22,-8 -4,-6 6,-3 -7,-5 -2,0 -5,1 -6,1 -5,2 -7,4 -11,6z"/>
   <path class="fil50" d="M2425 1421l20 7c-4,-12 -6,-14 -16,-20l-3 4c-2,5 -2,5 -1,9z"/>
   <path class="fil51" d="M2409 760c2,7 3,5 4,7 14,6 13,-22 -3,-16 -1,4 -2,4 -1,9z"/>
   <path class="fil24" d="M1940 1357c0,0 1,1 1,1 1,3 2,5 8,6 1,0 2,-4 6,-3l1 -9c-11,0 -9,3 -11,-3 -4,4 -2,-2 -4,8z"/>
  </g>
 </g>
</svg>
