<?xml version="1.0" encoding="UTF-8"?>
<!DOCTYPE svg PUBLIC "-//W3C//DTD SVG 1.1//EN" "http://www.w3.org/Graphics/SVG/1.1/DTD/svg11.dtd">
<!-- Creator: CorelDRAW X6 -->
<svg xmlns="http://www.w3.org/2000/svg" xml:space="preserve" width="8.5in" height="11in" version="1.1" style="shape-rendering:geometricPrecision; text-rendering:geometricPrecision; image-rendering:optimizeQuality; fill-rule:evenodd; clip-rule:evenodd"
viewBox="0 0 8500 11000"
 xmlns:xlink="http://www.w3.org/1999/xlink">
 <defs>
  <style type="text/css">
   <![CDATA[
    .fil20 {fill:#09263A}
    .fil0 {fill:#0A1219}
    .fil13 {fill:#0A1319}
    .fil31 {fill:#0C1319}
    .fil36 {fill:#0C2D44}
    .fil1 {fill:#12354E}
    .fil25 {fill:#143A54}
    .fil7 {fill:#153A55}
    .fil41 {fill:#1B4463}
    .fil18 {fill:#224C68}
    .fil29 {fill:#285473}
    .fil52 {fill:#321D14}
    .fil49 {fill:#32251B}
    .fil35 {fill:#423E47}
    .fil34 {fill:#4A2B17}
    .fil63 {fill:#4D3728}
    .fil60 {fill:#524634}
    .fil15 {fill:#542D17}
    .fil43 {fill:#545452}
    .fil68 {fill:#59331A}
    .fil10 {fill:#66391A}
    .fil54 {fill:#6B3C1E}
    .fil62 {fill:#70684F}
    .fil66 {fill:#714B2A}
    .fil65 {fill:#72471B}
    .fil51 {fill:#73706D}
    .fil61 {fill:#797875}
    .fil30 {fill:#837D76}
    .fil26 {fill:#8A847A}
    .fil16 {fill:#8A8884}
    .fil24 {fill:#8D572D}
    .fil53 {fill:#8F6E4A}
    .fil27 {fill:#948F8A}
    .fil69 {fill:#966833}
    .fil17 {fill:#A86A38}
    .fil55 {fill:#AAA9A7}
    .fil50 {fill:#B46D09}
    .fil38 {fill:#B4700E}
    .fil47 {fill:#B6733D}
    .fil59 {fill:#BA844D}
    .fil32 {fill:#BB740C}
    .fil45 {fill:#BC7A45}
    .fil64 {fill:#BFC0BF}
    .fil5 {fill:#C17D4A}
    .fil8 {fill:#C27A0E}
    .fil48 {fill:#C37C12}
    .fil12 {fill:#C4824D}
    .fil23 {fill:#C88653}
    .fil37 {fill:#C98314}
    .fil39 {fill:#CB8A54}
    .fil44 {fill:#D39966}
    .fil42 {fill:#D69458}
    .fil58 {fill:#D9A674}
    .fil40 {fill:#DD9B25}
    .fil57 {fill:#E9AC72}
    .fil67 {fill:#EDBC8A}
    .fil2 {fill:#EDC18E}
    .fil6 {fill:#EEBE8D}
    .fil14 {fill:#EEC191}
    .fil22 {fill:#EEC495}
    .fil21 {fill:#EFD5AF}
    .fil33 {fill:#EFE7DE}
    .fil11 {fill:#F0AE26}
    .fil9 {fill:#F1C596}
    .fil19 {fill:#F1C699}
    .fil28 {fill:#F1EAE2}
    .fil3 {fill:#F2B126}
    .fil4 {fill:#F2B129}
    .fil46 {fill:#F2CDA2}
    .fil56 {fill:#F9EDC9}
    .fil70 {fill:#FEFEFE;fill-rule:nonzero}
    .fil71 {fill:#F2B126;fill-rule:nonzero}
   ]]>
  </style>
 </defs>
 <g id="Layer_x0020_1">
  <metadata id="CorelCorpID_0Corel-Layer"/>
  <g id="_1336386528">
   <path class="fil0" d="M1668 8222c173,-21 341,-38 519,-55 1350,-128 2727,-114 4077,0 121,10 669,67 753,88 21,45 10,257 11,324 1,102 15,221 -48,284 -31,31 -63,41 -118,42 -40,1 -97,3 -148,3l-4327 2c-116,0 -230,2 -346,1 -135,-1 -283,29 -352,-94 -37,-66 -25,-163 -22,-238 5,-113 -10,-246 2,-356zm2466 -2333c39,18 46,28 95,40 48,12 271,77 295,126l-1243 7c-76,0 -167,10 -231,9 -15,25 -37,48 -56,66l-9 24 9 400c-78,5 -79,-1 -140,-32 -150,-76 -152,-108 -250,-254l34 148c18,41 55,82 62,120 -40,-12 -79,-59 -104,-95 -11,-16 -11,-16 -23,-29l-145 -201c-142,-248 -156,-331 33,-534 57,-61 41,-46 104,-91 127,-118 437,-229 626,-173 63,19 138,83 105,149 -107,22 -119,6 -284,50 8,8 -2,4 15,12 33,16 250,20 302,26 91,11 197,35 287,56 84,20 188,49 265,81 43,18 83,31 125,48 41,17 90,37 129,47zm-1735 -337c-19,50 -167,145 -213,299 -4,12 -4,18 -7,28l-7 20c0,-1 -2,4 -4,6 -24,-67 -57,-161 -53,-244 4,-71 33,-183 84,-215 5,-21 -1,-3 12,-28 8,-14 7,-16 16,-28 12,-17 27,-25 49,-43 20,-16 29,-32 49,-49 210,-180 593,-324 850,-200 106,51 140,104 155,252l8 20 -19 -9c-126,-75 -379,-54 -527,-10 -81,24 -143,56 -213,89 -63,30 -143,102 -179,113zm3859 -338c4,-1 22,-7 26,-8 67,-18 54,2 60,7l-1 32 -112 -15c15,-13 -1,-5 27,-16zm499 975c-101,181 -316,68 -521,79 30,12 43,2 69,24 -115,34 -225,43 -353,43 -461,-1 -277,-34 -371,-238 -28,-7 -29,-33 -88,-41 -40,-5 -94,-2 -136,-2l-296 3c-72,0 -112,-35 -219,-79 -212,-88 -516,-264 -706,-263 28,23 18,13 51,24 -133,-2 -252,-56 -369,-94 -174,-57 -188,-63 -379,-90 -1,-5 10,-176 36,-198 21,-18 132,-66 166,-73 21,-21 120,-44 160,-48 151,-17 445,14 595,32 253,30 491,72 757,88 513,30 960,-133 1351,35 48,20 103,49 144,65l-97 -112c-19,-15 -93,-58 -129,-68l-18 -4 3 -18c21,-30 19,-47 13,-85 69,-45 42,-70 64,-158 41,0 61,43 114,87 89,74 179,277 211,395 52,187 30,529 -51,699zm-879 -968l-25 9c0,-36 -3,-8 12,-19 84,-30 146,-92 235,-118 91,-26 191,-65 293,-62 19,80 -12,72 -74,91 -82,25 -210,93 -264,94 -60,1 -119,0 -178,5zm-618 -659l16 -14c31,4 204,5 213,19 16,9 14,-6 18,33 1,10 1,29 2,41 6,93 2,181 14,270 -10,81 -69,120 -99,146 -8,7 -16,16 -21,21 -7,6 -9,6 -19,15 -8,7 -15,15 -22,23 -43,48 -31,24 -60,52 -34,33 -49,51 -77,75 -58,2 -377,-21 -407,-39 16,-44 107,-166 131,-207l247 -360c21,-28 31,-55 49,-82l16 7zm579 404c-15,18 11,-3 -19,20 -1,1 -14,8 -16,10 -50,31 -54,52 -91,67 -5,27 -16,30 -33,42 1,0 64,-35 74,-40 22,-11 52,-25 74,-36l29 -9 234 -101c32,-12 258,-49 297,-47 8,22 15,42 14,72 -26,18 -167,52 -211,66l-202 71 -119 83c-162,106 -233,85 -477,89 17,-50 49,-59 78,-98 50,-67 64,-64 83,-90 67,-91 73,-54 100,-82 0,0 16,-53 102,-74 39,-23 156,-70 200,-84 58,-18 63,-25 120,-17 52,7 79,-9 131,10 -15,60 -131,43 -284,113 -26,12 -53,31 -83,34zm-2220 -464l94 6c19,67 28,139 49,209l424 29c137,12 296,12 433,11 -10,26 4,19 -20,23 -8,17 -23,45 -34,59 -11,13 -11,9 -21,22l-212 292 -301 -30c-219,4 -270,-13 -482,67 -41,15 -84,42 -116,55 -18,-46 -54,-125 -59,-171 -8,-74 -22,-149 -14,-228 4,-58 -16,-247 -31,-299 28,-10 248,-43 288,-45zm1813 -150l19 86 7 21c-1,2 -3,4 -3,5l-14 30c-57,9 -97,6 -155,4 39,-86 31,-51 61,-99 13,-20 19,-30 29,-50 18,-39 -3,-17 31,-42 19,19 16,19 26,44zm-2452 64c20,11 5,-4 9,16 7,35 8,0 -6,11 11,41 38,90 55,136 16,44 30,96 36,137l-30 -25 -66 -22c16,19 10,12 29,24 3,2 15,4 20,9 -33,23 -11,4 -19,-2 -25,-13 -69,-36 -99,-27 50,33 100,63 143,107 62,64 130,154 154,248 -204,-68 -393,-64 -610,5 -58,18 -122,56 -166,65l-188 134c-57,40 -144,151 -159,161 -41,-108 -73,-417 -80,-547 -10,-187 18,-374 86,-528 26,-58 95,-145 127,-184 40,-48 108,-92 175,-137 138,-92 356,-120 463,-156 35,30 34,28 58,68 24,17 112,149 134,187 37,65 74,135 106,207 110,248 43,115 62,240 15,95 23,186 32,281 0,2 2,4 2,5l-15 -4 -2 -22c-31,-24 -41,-59 -53,-100 -22,-57 -64,-152 -92,-206 -21,-39 -35,-55 -59,-88 -22,-31 -53,-52 -64,-77 -18,7 -20,-13 -15,8 20,17 27,35 39,57l-6 21zm3194 115l12 19 -21 -12 -14 -9 -12 6 4 15c25,17 22,9 35,44 10,21 186,135 224,219l11 18 -23 -8 -107 -5c-21,-43 -44,-61 -95,-66 -222,-21 -381,56 -432,56 -6,7 -2,6 -15,15l-85 43 37 -112 28 -230c4,-50 -1,-86 -26,-117 -7,91 -35,208 -81,269 -16,-216 -29,-135 -43,-197 -14,-60 -20,-150 -32,-213 -26,-140 -35,-120 9,-182 32,-46 60,-97 95,-136 224,44 480,364 534,581zm-3190 -795c28,0 65,-15 98,-28 16,-6 26,-11 42,-19l50 -10c34,42 74,76 121,138 20,27 23,19 35,56 56,43 248,385 263,517 18,14 12,-21 16,25 -26,27 -117,26 -155,30 -115,10 -93,22 -120,-33 -12,-69 -97,-224 -132,-277l-152 -252c-29,-14 -37,-35 -55,-59 -11,-14 -15,-17 -26,-34 -9,-13 -12,-17 -23,-33l-2 -14 41 -7zm2117 31c50,13 51,19 73,66 17,36 37,61 44,97 -19,31 -41,53 -59,87 -23,30 -35,52 -55,78l-19 12c-29,-52 -22,-67 -39,-120 -3,-68 -107,-228 -121,-297 33,-5 59,16 93,29 30,12 64,22 82,47zm-1640 -104l206 189c26,17 48,32 79,51 472,290 1092,138 1002,-258 91,30 94,86 128,177l118 340c20,61 22,63 -14,104l-125 178c-187,251 -101,216 -392,214 -187,-1 -382,-15 -568,-25l-55 -2c-22,-30 -22,-79 -28,-119 -23,-128 -67,-96 -96,-136 -13,-18 -52,-129 -66,-160 -26,-56 -47,-97 -74,-150 -15,-29 -23,-46 -40,-73 -17,-30 -30,-43 -42,-71 -23,-20 -36,-48 -55,-74l-171 -209c36,-21 99,-55 144,-64 16,50 33,50 49,90zm1063 -80l94 -47c28,64 31,202 3,266 -99,232 -651,142 -714,60 -53,-13 -217,-119 -241,-147l-127 -159c-13,-21 -24,-42 -29,-69 106,-92 70,-355 78,-502 27,21 15,22 32,76 21,66 48,156 95,199 34,31 65,64 100,98l56 49c44,33 104,129 306,186 140,39 212,23 347,-9zm3 -267c-1,17 -10,38 -17,55 -17,40 -17,29 -35,39 5,-40 16,-62 9,-101 -6,-33 -16,-43 -4,-79 31,1 21,-10 36,32 9,25 13,24 11,54zm11 1859l-92 -2c14,-39 -1,-13 24,-43l285 -411c19,-15 88,-118 108,-148 34,-51 74,-101 108,-151l2 -12 52 -64c99,-131 269,-385 354,-494l399 -575c18,-12 52,-67 68,-93l20 -21c16,-33 51,-84 79,-107l62 29 33 24c13,7 23,10 34,14 -6,34 -23,51 -41,75l-566 837c-17,25 -20,41 -44,69 -22,26 -6,3 -21,30l-707 1063c-1,-2 -4,4 -7,5l-150 -26zm-248 -1946c-22,23 -33,34 -68,48l-95 -66c-1,-1 -30,-168 51,-208 40,-19 160,-49 210,-42 37,-16 95,-11 136,-4 54,9 79,17 98,55l15 8c9,132 31,200 -44,233 -32,-26 -26,-36 -65,-63 12,-26 28,-42 32,-75 -57,12 -234,9 -286,1 -15,1 -12,-3 -12,11l63 66 -35 35zm2538 -24c-25,15 -16,16 -35,35l-2 15c0,16 2,10 -12,0 -7,9 4,14 -27,24 -28,9 -23,3 -31,-7 -33,-80 58,-241 109,-289 19,-18 77,-62 88,-12l-6 59c-10,46 -51,150 -84,176zm-411 -199c-31,-10 -75,-10 -100,-20 41,-42 188,2 184,54 -33,1 -47,-23 -83,-35zm370 -38l-54 80c-14,26 -34,63 -40,95l-146 -49c5,-36 20,-78 37,-107 20,-35 34,-54 64,-76 17,-22 41,-50 75,-61 41,13 103,38 127,66l-63 53zm-883 -222c-13,3 24,26 -38,-11 -122,-74 -263,-70 -307,-109 123,-11 350,66 344,120zm-2498 -336c42,-21 109,28 124,47 49,64 56,294 65,381 9,89 -99,19 -100,18 -173,-144 -154,-413 -89,-446zm2978 441c16,-7 49,-59 49,-62 1,-3 3,-3 5,-5 38,19 141,79 182,83 -20,43 -30,53 -61,86l-168 -55 -20 0 -35 7 -28 18c-35,21 -65,42 -91,73 -7,8 -7,12 -14,21 -18,25 -19,14 -31,45 -88,-40 -139,-77 -208,-139 -1,-66 31,-125 18,-190 -31,-147 -330,-180 -450,-167 -19,-6 -1,3 -12,-7 238,-99 462,-88 700,21 39,18 158,81 173,111 9,58 5,106 -9,160zm-1577 -502c-21,104 39,220 17,341l-64 320c-11,-24 -40,-74 -45,-91 -14,-10 -6,-2 -20,-17 -10,-10 -2,-4 -12,-14l-31 -34c-25,-6 -45,-22 -73,-34 14,-30 40,-62 33,-112 -5,-38 -30,-66 -32,-104 -15,-10 -10,-5 -16,-32l-29 -124 22 -5 19 -6c2,2 3,5 4,6 41,66 107,71 128,-14l70 15c-38,-101 -56,-81 -154,-94 10,-8 63,-29 86,-38 49,-18 72,7 95,37zm31 -412c-5,-25 13,-42 17,-47 26,39 24,38 25,81 -17,-8 -37,-12 -42,-34zm-1328 170c12,-38 38,-102 58,-132 10,-16 75,-86 101,-57 38,42 -138,179 -159,189zm299 -206c-15,17 20,7 -20,15l12 -19c8,-35 2,-32 37,-47 -12,30 2,2 -18,32 -11,17 -5,5 -11,19zm907 -6c68,96 74,212 83,347 -68,-20 -63,-36 -140,-6 -54,21 -79,33 -143,40 -15,36 -43,55 -36,112 8,69 83,300 80,349l-28 22c-11,11 -19,18 -29,38 -66,-6 -72,-43 -148,-37 -7,6 -14,13 -21,19 -12,10 21,10 -26,11 -27,-18 -34,-48 -21,-62l2 -41c-3,-12 0,-11 -10,-5 -27,38 -61,80 -29,138l-2 11c-65,22 -141,42 -178,81 -88,91 -103,143 -104,139 -1,-1 -3,4 -4,6 -14,-35 -27,-63 -40,-106 -13,20 -7,41 -5,77 -11,-19 -24,-47 -35,-73 -6,31 4,19 -12,43 -57,-123 -34,-68 -51,-78 -8,-5 -10,-16 -14,-25 -11,-26 -16,-35 -22,-59l-18 31 -28 -92c-9,27 11,51 -9,66l-18 -104 -21 -118 -12 -4c0,-34 -3,-8 11,-18l1 -17c-15,-18 -10,-7 -4,-26l0 -9 3 -17c-10,-23 5,-3 -17,-26 -2,-14 -5,-11 7,-11 15,-71 4,-106 40,-181 25,-53 57,-93 81,-145l-16 -86c-1,-40 0,-57 8,-95 11,-53 30,-113 69,-136 -10,0 -26,0 -36,-2 -35,-7 -3,1 -18,-9 68,-39 374,47 459,68 138,34 205,50 340,2 19,-7 34,-11 51,-18l43 -18 17 27zm-1134 -109l35 -15c21,-4 17,-1 41,1l-15 24c-29,71 -174,152 -186,215 0,-38 22,-100 40,-133 5,-10 32,-54 37,-59 17,-19 28,-15 48,-35zm1148 -32c-47,-48 -25,-58 -57,-92 -25,-26 -12,-11 -31,-22 12,44 20,66 7,108 -46,-53 -47,-92 -104,-127 8,54 46,68 24,144 -14,50 -46,82 -106,88 -15,-35 -36,-54 -61,-86 -51,-63 -208,-119 -310,-116 46,31 132,47 169,91 -127,-11 -310,-93 -431,-77 27,2 13,0 21,23 -64,4 -90,21 -150,-27 38,-13 62,-33 97,-53 31,-18 68,-30 106,-42 58,-18 179,-43 226,-61 -54,-18 -137,3 -197,4 10,-10 -7,-9 32,-22l82 -27c39,-12 88,-21 126,-21 166,0 213,2 366,68 83,36 207,142 192,245zm825 952l91 19c42,6 82,16 121,30 41,15 72,36 111,45l14 12 -8 20 -21 169c-6,43 -505,717 -521,767 -119,-8 -58,-17 -154,-69 -53,-29 -91,-44 -148,-68 -53,-22 -110,-35 -166,-50 -59,-16 -97,-39 -149,-58l-8 -74c29,-25 82,-119 99,-158 25,-58 44,-132 54,-205l23 -490c-10,-130 -30,-28 -11,-233 4,-42 0,-86 6,-126 24,-150 90,-261 -6,-412 -23,-37 -37,-39 -57,-69 35,-175 -81,-227 -194,-286 -231,-122 -565,-122 -803,-31 -126,48 -231,96 -254,225 -56,13 -102,51 -134,96 -109,151 -113,304 -76,482 33,157 13,81 -42,171 -15,24 -26,51 -32,81 -26,128 23,255 93,355 48,69 94,77 123,102 3,111 -3,333 -41,426 -17,41 -21,51 -60,64 -54,18 -199,123 -211,125 -83,-9 -166,33 -239,62 -93,38 -133,44 -192,102 -23,23 -167,60 -216,78 -170,65 -243,108 -377,220 -147,123 -263,391 -278,606 -19,264 14,555 70,814 46,213 7,89 8,254 1,180 141,398 249,483 63,50 68,92 122,172 23,34 51,60 54,85 -390,-15 -840,2 -1243,3 -102,0 -142,-6 -195,58 -50,61 -27,365 -27,463 0,112 -12,1182 8,1236 77,211 336,85 561,74 15,123 2,325 2,457 0,150 61,250 152,303 131,76 244,53 407,53l4587 -2c150,0 293,21 406,-52 229,-146 136,-411 157,-760 108,3 351,62 437,38 149,-42 127,-190 128,-351 0,-320 0,-640 0,-961 0,-914 -401,-526 -1355,-562 175,-102 498,157 534,-563 19,-377 -61,-604 -237,-849 -39,-55 -77,-96 -121,-156 -106,-143 -113,-168 -255,-290 -36,-31 -116,-251 -185,-361 -98,-157 -279,-306 -454,-358 11,-31 39,-70 56,-95 19,-30 37,-56 55,-83l351 -505c46,-10 47,4 80,-24 20,-17 32,-30 62,-41 62,-23 116,6 156,28 5,97 14,100 90,137 30,15 118,62 148,69 109,28 212,-124 249,-190 51,-91 97,-256 -33,-320 -44,-22 -111,-58 -154,-70 -60,-16 -94,42 -181,-1 -97,-49 -30,-85 -95,-131 -34,-24 -91,-60 -134,-82 -234,-119 -456,-169 -720,-98 -68,19 -288,97 -247,192 34,41 99,56 171,59z"/>
   <path class="fil1" d="M1668 8222c-12,110 3,243 -2,356 -3,74 -15,172 22,238 69,123 217,93 352,94 1555,14 3118,-2 4673,-3 50,0 107,-2 148,-3 55,-1 87,-12 118,-42 63,-62 49,-181 48,-284 -1,-67 10,-279 -11,-324 -84,-20 -632,-77 -753,-88 -256,-22 -513,-39 -773,-56 -738,-50 -1465,-47 -2207,-17 -105,1 -198,7 -292,14 -283,17 -539,34 -805,59 -178,17 -345,34 -519,55z"/>
   <path class="fil2" d="M6770 5809c22,16 7,-2 28,26 1,1 16,27 17,28 10,29 -5,51 -4,89 -6,-8 -7,4 -16,-27 -4,-12 -3,-26 -5,-39 -4,-30 -14,-49 -20,-78zm-364 -559c9,20 -4,13 14,23 36,10 110,53 129,68l97 112c-41,-16 -96,-45 -144,-65 -391,-167 -838,-5 -1351,-35 -266,-15 -504,-57 -757,-88 -150,-18 -443,-48 -595,-32 -39,4 -139,27 -160,48 -5,42 -12,67 4,108 4,11 46,82 47,83 14,15 130,75 170,90 49,20 158,36 214,40 96,7 103,-20 242,-19 208,1 435,67 623,147l190 70c539,176 747,225 1273,259 29,2 88,6 114,1 40,-8 50,-7 89,17 141,86 76,53 146,105 1,1 4,3 5,4 81,-170 103,-512 51,-699 -33,-118 -123,-321 -211,-395 -53,-44 -72,-87 -114,-87 -21,87 5,112 -64,158 6,39 9,55 -13,85z"/>
   <path class="fil3" d="M4635 4111c2,-1 4,-1 6,-2 41,-14 14,-7 48,-31l68 -53c3,-3 5,-7 7,-10l33 -45c8,-12 13,-25 22,-38l22 -36c18,124 -152,233 -257,243l51 -28zm-1174 -448c-12,4 -20,8 -30,7 -46,-5 11,-8 -40,-7 -15,25 -24,35 14,69l128 124c41,66 46,39 106,102l69 52c58,45 132,86 210,120 62,27 234,52 258,67 -184,25 -402,-67 -545,-170 -18,-13 -18,-14 -33,-28 -11,-10 -6,-6 -21,-13 -21,-11 -4,3 -18,-9l-20 -25c-1,-1 -3,-3 -4,-4 -58,-62 7,10 -42,-28 11,28 24,42 42,71 16,28 25,44 40,73 27,53 48,95 74,150 15,31 53,142 66,160 29,41 73,8 96,136 54,33 30,52 86,87l-2 34c186,10 380,24 568,25 291,2 205,37 392,-214l125 -178c35,-42 34,-43 14,-104l-118 -340c-34,-91 -37,-147 -128,-177 90,396 -530,548 -1002,258 -31,-19 -52,-34 -79,-51l-206 -189z"/>
   <path class="fil4" d="M2429 5097c45,-9 109,-47 166,-65 218,-69 406,-73 610,-5 -24,-94 -92,-184 -154,-248 -43,-44 -93,-74 -143,-107 -18,-11 -23,-10 -41,-21 -11,-7 -21,-14 -31,-21l-161 -99c-23,-12 -16,-6 -32,-22 50,1 182,45 225,63 69,30 125,73 179,104l-4 14 30 25c-6,-42 -20,-93 -36,-137 -16,-46 -44,-95 -55,-136l-6 -10c-23,-17 -69,-105 -84,-135 -16,-30 -29,-37 -41,-62 -13,-26 -26,-42 -32,-70l144 163c12,25 42,46 64,77 24,34 38,49 59,88 29,55 70,150 92,206 20,10 92,90 53,100l2 22 13 -1c-9,-95 -18,-186 -32,-281 -19,-124 48,8 -62,-240 -32,-71 -69,-141 -106,-207 -21,-38 -110,-169 -134,-187 -41,-3 -313,70 -355,92 7,9 -7,7 33,22 48,18 64,23 91,57 -102,-21 -159,-52 -264,12 -42,26 -13,6 -45,42 -191,211 -33,799 58,965z"/>
   <path class="fil5" d="M5356 6052c-10,-8 5,-3 -25,-14l-62 -15c-276,-66 -502,-207 -547,-215 24,-18 -51,-40 138,17l645 195c71,22 188,69 255,75 -25,20 32,20 -52,15l-129 -15c36,79 16,146 33,189 52,42 260,49 338,49 128,0 238,-9 353,-43 -26,-21 -38,-12 -69,-24 152,-8 285,26 434,22 48,-38 57,-47 87,-101 -2,-1 -4,-3 -5,-4 -69,-52 -5,-19 -146,-105 -39,-24 -50,-25 -89,-17 -27,5 -85,1 -114,-1 -526,-34 -734,-84 -1273,-259l-190 -70c-188,-80 -415,-146 -623,-147 -140,-1 -146,26 -242,19 -56,-4 -164,-20 -214,-40 -39,-16 -156,-76 -170,-90 -1,-1 -42,-72 -47,-83 -16,-41 -9,-66 -4,-108 -34,7 -145,56 -166,73 -25,21 -36,193 -36,198 191,28 204,33 379,90 117,38 237,92 369,94 -33,-11 -23,-1 -51,-24 191,-1 495,174 706,263 107,45 147,79 219,79l296 -3z"/>
   <path class="fil6" d="M3896 5843c2,-1 4,-5 5,-5 35,-13 -7,-14 18,8l-23 -3zm-1332 -251l-12 23c27,18 96,234 158,337 35,58 106,181 157,215 33,23 15,6 45,16 19,6 28,19 39,29 13,-25 8,-29 33,-52l9 -24 -17 -4c8,-10 13,-14 22,-25 18,-21 8,5 18,-31l34 -6c64,1 155,-10 231,-9l1 -20c-32,-5 -39,-11 -53,-33l32 20c81,3 158,8 233,16 181,18 421,-50 591,-121 45,-19 37,-20 50,-34 -39,-10 -89,-30 -129,-47 -42,-17 -82,-30 -125,-48 -76,-32 -181,-60 -265,-81 -90,-22 -196,-45 -287,-56 -52,-6 -270,-10 -302,-26 -17,-8 -7,-4 -15,-12 165,-44 178,-28 284,-50 33,-67 -42,-131 -105,-149 -190,-56 -500,56 -626,173z"/>
   <path class="fil7" d="M3513 4559c32,-9 61,2 87,18 21,14 41,41 50,70 36,110 -87,202 -163,128 -96,-94 -63,-191 26,-217zm-152 286c18,29 12,81 13,115 36,20 44,27 74,62 16,19 15,14 43,28 24,12 27,10 40,34 86,-14 170,-4 257,6l217 22c53,11 -40,-15 15,3l13 7 301 30 212 -292c10,-13 11,-9 21,-22 11,-14 26,-43 34,-59l-137 -12c-42,-4 -71,8 -113,4 -62,-5 -145,-7 -207,-5l-329 -7c-42,0 -66,-10 -103,-12l43 -4 -32 -125c-15,-67 -23,-62 -45,-108 -12,0 -58,7 -58,-9 -41,2 -260,35 -288,45 15,52 35,242 31,299z"/>
   <path class="fil8" d="M2429 5097c-92,-166 -249,-755 -58,-965 32,-35 3,-16 45,-42 106,-64 162,-33 264,-12 -27,-33 -42,-39 -91,-57 -40,-15 -26,-13 -33,-22 43,-23 315,-95 355,-92 -24,-40 -22,-38 -58,-68 -107,37 -325,64 -463,156 -67,45 -135,88 -175,137 -32,39 -101,126 -127,184 -69,154 -96,341 -86,528 7,130 39,439 80,547 15,-10 102,-121 159,-161l188 -134z"/>
   <path class="fil4" d="M5692 4409c2,-28 5,-44 8,-71 5,-37 -8,-28 18,-66 5,62 13,199 0,254l-28 230 36 -37c1,-1 3,-3 4,-5 1,-1 14,-19 14,-20 21,-34 14,-31 52,-70 29,-30 90,-99 126,-102 -40,60 -117,120 -139,225l-17 8 -14 55c51,-1 210,-77 432,-56 51,5 74,22 95,66l107 5c18,1 15,6 13,-11 -38,-84 -214,-199 -224,-219l-46 -17 -108 -71c-2,-2 -4,-4 -6,-6l-11 -16c37,3 115,24 144,43l14 9 10 -7c-54,-217 -309,-537 -534,-581 -35,39 -64,90 -95,136 -43,62 -34,42 -9,182 12,63 18,154 32,213 14,62 27,-20 43,197 46,-61 74,-178 81,-269z"/>
   <path class="fil9" d="M3944 2264c83,-87 307,-4 419,14 39,-6 12,-5 22,8 -12,83 -43,87 -5,185 15,38 63,142 67,179 -50,-9 -66,-11 -123,-3l-24 24 -13 17 -2 41 21 2 28 4c58,7 143,44 195,26l28 -22c2,-49 -72,-281 -80,-349 -7,-57 21,-76 36,-112 64,-7 89,-20 143,-40 77,-30 72,-14 140,6 -9,-135 -15,-251 -83,-347 -82,7 -80,63 -388,48 -47,-2 -233,-28 -281,-45 -31,-11 -59,-25 -93,-23 -34,88 -17,247 -22,332 -4,61 -1,46 15,55z"/>
   <path class="fil5" d="M2983 6160c-25,23 -20,27 -33,52 -11,-10 -20,-23 -39,-29 -29,-9 -11,7 -45,-16 -51,-34 -122,-158 -157,-215 -62,-103 -130,-319 -158,-337l12 -23c-63,46 -47,30 -104,91 -189,203 -175,286 -33,534l145 201c13,13 12,13 23,29 25,36 64,83 104,95 -7,-38 -45,-79 -62,-120l-34 -148c98,146 99,178 250,254 61,31 62,36 140,32l-9 -400z"/>
   <path class="fil10" d="M6007 3111c-22,54 -42,67 -68,106 -19,27 -16,25 -38,48l-211 291c-89,103 -202,298 -242,346l-490 696c-8,12 -11,18 -17,26 -39,56 -45,55 -56,62 -4,27 -1,20 -17,36 -55,58 -78,113 -93,132 -1,1 -3,3 -4,5 -13,14 -13,2 -27,25 -15,25 2,5 -15,29l-84 114c-24,29 -54,71 -82,90l9 15c1,1 4,4 6,3 -23,4 -15,-4 -28,17 -18,29 13,-3 -11,20l150 26c2,-2 6,-7 7,-5l707 -1063c15,-27 0,-4 21,-30 23,-28 27,-44 44,-69l566 -837c18,-23 35,-41 41,-75 -11,-4 -21,-6 -34,-14l-33 -24 2 27z"/>
   <path class="fil11" d="M2276 5347l7 20 51 -26c21,-1 53,-23 78,-34 38,-17 61,-20 99,-30 -12,38 -31,37 -58,79 -41,65 -88,136 -54,194 36,-11 116,-84 179,-113 70,-33 132,-65 213,-89 148,-43 401,-65 527,10 15,2 11,5 12,-11 -15,-148 -49,-201 -155,-252 -257,-123 -640,20 -850,200 -20,17 -29,33 -49,49z"/>
   <path class="fil12" d="M3906 3862c-34,-156 -51,-150 -81,-347 34,9 31,21 54,38l180 123c82,48 197,89 297,114l-21 -58c13,-27 52,-68 79,-84 35,-21 85,-30 110,-65 -134,32 -207,48 -347,9 -202,-57 -262,-153 -306,-186l-56 -49c-35,-34 -66,-67 -100,-98 -47,-43 -74,-133 -95,-199 -17,-55 -6,-55 -32,-76 -8,147 28,411 -78,502 5,27 17,48 29,69l127 159c24,28 188,134 241,147z"/>
   <path class="fil13" d="M6074 6940c-82,19 -100,70 -102,167 -2,81 -6,478 9,533 32,117 268,182 269,-74 1,-87 8,-474 -12,-531 -23,-64 -75,-115 -164,-95z"/>
   <path class="fil0" d="M2465 7626c15,-89 14,-429 6,-527 -18,-211 -237,-198 -265,-42 -16,93 -11,429 -4,535 13,221 239,181 264,34z"/>
   <path class="fil12" d="M3676 2491c12,9 -1,4 23,-6l-16 60 0 9c12,17 -14,24 16,14l-12 12 -1 17c9,10 -12,11 13,8l-12 14 21 118c2,4 8,15 13,21 5,7 8,13 9,12 1,-2 3,4 5,6l28 92 18 -31c7,24 11,33 22,59 4,9 5,21 14,25 17,9 -6,-46 51,78 15,-24 6,-11 12,-43 10,26 24,54 35,73 -2,-35 -8,-56 5,-77 11,-8 5,3 7,-17 0,-3 -1,-12 -1,-14 0,-4 -7,-29 -8,-36 -15,-79 -41,-125 -76,-184 -55,-94 -34,-215 8,-265l65 11c12,-16 29,-24 50,-38 68,-45 46,-44 124,-56 70,-4 149,29 162,25 5,-2 -26,-23 -23,-27 -133,-35 -225,-73 -340,7 -8,5 -16,8 -28,16 31,-73 27,-75 86,-111 -15,-9 -18,6 -15,-55 5,-85 -12,-243 22,-332 33,-2 61,12 93,23 49,17 235,43 281,45 308,15 306,-40 388,-48l-17 -27 -43 18c-17,7 -33,11 -51,18 -135,48 -201,32 -340,-2 -86,-21 -391,-107 -459,-68 16,11 -17,2 18,9 10,2 25,2 36,2 -39,23 -58,83 -69,136 -8,38 -9,55 -8,95l16 86c-24,52 -56,92 -81,145 -36,75 -25,111 -40,181z"/>
   <path class="fil14" d="M3906 3862c64,82 616,172 714,-60 28,-65 25,-203 -3,-266l-94 47c-25,35 -75,44 -110,65 -27,16 -66,57 -79,84l21 58c-100,-24 -215,-65 -297,-114l-180 -123c-23,-18 -20,-30 -54,-38 30,197 47,191 81,347z"/>
   <path class="fil15" d="M3930 1511c61,-1 143,-22 197,-4 -47,18 -168,43 -226,61 -38,12 -75,24 -106,42 -35,20 -59,40 -97,53 60,49 86,31 150,27 -8,-23 5,-21 -21,-23 122,-16 304,66 431,77 -38,-44 -123,-59 -169,-91 102,-3 259,52 310,116 25,32 46,51 61,86 60,-6 92,-38 106,-88 22,-76 -16,-90 -24,-144 57,35 57,74 104,127 13,-42 5,-64 -7,-108 20,11 7,-4 31,22 32,34 11,45 57,92 15,-103 -109,-209 -192,-245 -153,-66 -199,-68 -366,-68 -38,0 -87,8 -126,21l-82 27c-40,13 -22,12 -32,22z"/>
   <path class="fil9" d="M3919 2952c13,42 26,71 40,106 1,-2 3,-7 4,-6 1,4 16,-48 104,-139 37,-38 114,-58 178,-81l2 -11 -51 -7c-4,-17 -11,15 -3,-24 0,-1 12,-25 12,-25 21,-30 11,3 25,-37l29 -91c1,-1 3,-4 4,-5l16 -60c9,-33 -11,6 9,-15 -13,2 -24,-12 -70,-5 -50,8 -35,23 -77,26l65 -73c4,-6 6,-9 10,-14 1,-1 3,-3 4,-6 1,-3 3,-4 4,-6 -1,-48 9,-65 -41,-36 -23,21 -26,51 -77,48 -56,-3 -54,-40 -70,-63 -42,6 -87,25 -126,17l-65 -11c-42,50 -63,171 -8,265 34,58 61,104 76,184 1,7 7,32 8,36 0,3 2,12 1,14 -1,20 5,9 -7,17z"/>
   <path class="fil16" d="M6112 2960c44,51 5,50 3,53 -11,-7 -22,7 -22,-25 -1,-44 6,-18 19,-28zm-583 -391c120,-13 419,20 450,167 14,65 -19,125 -18,190 70,62 120,99 208,139 12,-31 13,-20 31,-45 7,-9 7,-13 14,-21 26,-31 56,-53 91,-73l28 -18 4 -2c36,-229 24,-203 -71,-260 -161,-97 -333,-137 -523,-124 -63,5 -168,18 -214,47z"/>
   <path class="fil17" d="M5865 3162l-20 21c17,12 27,-26 13,12 0,0 -47,37 -28,81 -3,-1 -15,-7 -17,-7l-11 2c-26,5 6,8 -25,5l-399 575c-85,108 -255,363 -354,494l-52 64c12,0 29,1 30,1 2,1 9,13 9,14 0,67 -7,-22 -21,26 -27,-18 -26,27 -20,-29 -34,50 -74,101 -108,151 -20,29 -89,133 -108,148 59,-9 22,-83 115,-114 19,24 28,-12 33,43 3,32 -7,41 -18,39 11,-7 17,-6 56,-62 6,-8 9,-15 17,-26l490 -696c41,-48 153,-243 242,-346l211 -291c22,-23 20,-21 38,-48 26,-39 46,-52 68,-106 -38,-6 -13,-6 -65,-33l-7 13c-1,2 -2,4 -3,6 -1,2 -5,9 -6,12l-21 30c-1,2 -2,4 -3,6 -21,27 -13,23 -36,17z"/>
   <path class="fil18" d="M2944 3757l21 -5 66 78c14,11 19,5 26,19 11,21 1,23 -8,34l152 252c35,53 120,208 132,277 44,10 90,3 141,-3 13,-1 113,6 118,-18 -15,-131 -207,-474 -263,-517 -49,-14 -39,-23 -72,-38 -21,76 15,20 30,104 -30,-13 -24,2 -12,-40l-45 8c39,31 6,5 35,43l61 139c6,23 9,46 9,79 -15,-70 -1,-12 -27,-71 -22,-51 -17,-60 -48,-91 -28,-28 -4,-23 -43,-61l-45 -49c-22,-31 -56,-49 -81,-75 -58,-59 -109,-62 -108,-86l-41 7 2 14z"/>
   <path class="fil7" d="M5491 4952l-45 6c28,-83 58,-137 32,-191 -37,-76 -3,-34 -18,-93l-8 -16c5,56 -2,130 -60,160 -34,17 -25,-10 -42,27 -10,-30 5,-10 -33,-28 -41,-21 -72,-54 -78,-106 -11,-85 49,-120 100,-136 15,-17 -26,-19 41,-19 1,0 29,6 35,7 21,3 52,4 74,5 -9,-14 -181,-15 -213,-19l-16 14c-13,39 -19,30 -38,59 -11,16 -26,46 -37,68l-176 378c-8,25 5,-3 -6,19 -18,37 7,-3 -10,14 9,80 51,46 119,45 56,-1 146,8 188,-22 29,-21 11,-21 39,-32 62,-26 67,-40 126,-106l22 -26c1,-2 3,-5 5,-7z"/>
   <path class="fil19" d="M4777 2446l-70 -15c-21,85 -87,80 -128,14 -1,-1 -3,-4 -4,-6l-19 6 27 124c24,14 7,-15 21,28 -5,3 -8,5 -16,8 -7,3 0,-1 -9,1 2,38 26,66 32,104 7,50 -20,82 -33,112 28,12 48,28 73,34 24,0 26,10 40,25 21,23 17,12 24,41 4,17 34,67 45,91l64 -320c22,-122 -38,-238 -17,-341l4 84c-3,1 -15,4 -17,5l-15 6z"/>
   <path class="fil8" d="M2333 5341c-11,51 -13,33 -33,46 -15,9 -4,-1 -14,9 -40,40 -68,37 -53,55l-35 -4c-51,32 -80,143 -84,215 -4,83 29,176 53,244 1,-2 3,-7 4,-6l7 -20c3,-9 3,-15 7,-28 46,-155 193,-249 213,-299 -34,-58 13,-129 54,-194 27,-43 46,-41 58,-79 -38,10 -61,13 -99,30 -25,11 -57,33 -78,34z"/>
   <path class="fil20" d="M5522 4910c-18,14 -24,15 -31,42 -2,2 -4,5 -5,7l-22 26c-60,66 -64,80 -126,106 -27,11 -10,11 -39,32 -42,30 -132,20 -188,22 -67,1 -110,35 -119,-45 17,-17 -7,23 10,-14 11,-22 -2,5 6,-19l176 -378c11,-22 26,-51 37,-68 19,-28 25,-20 38,-59l-16 -7c-17,26 -27,53 -49,82l-247 360c-24,41 -116,162 -131,207 30,18 350,40 407,39 27,-24 43,-41 77,-75 29,-28 17,-4 60,-52 7,-8 14,-16 22,-23 10,-9 12,-9 19,-15 6,-5 14,-14 21,-21 30,-26 89,-65 99,-146z"/>
   <path class="fil12" d="M3279 6062l1243 -7c-23,-49 -247,-114 -295,-126 -49,-12 -56,-22 -95,-40 -14,14 -5,15 -50,34 -169,71 -409,139 -591,121 -76,-8 -152,-13 -233,-16l-32 -20c14,22 21,29 53,33l-1 20z"/>
   <path class="fil0" d="M3944 2264c-59,36 -55,38 -86,111 12,-8 19,-11 28,-16 90,-58 141,-55 274,-20 102,19 96,59 59,30 -14,-11 -68,-22 -69,-21 -15,11 -17,-1 -63,6 -78,12 -56,11 -124,56 -20,14 -38,22 -50,38 39,7 84,-11 126,-17 16,23 14,60 70,63 52,3 55,-28 77,-48 10,1 28,-17 33,-16 13,4 2,30 8,52 6,15 -14,22 14,11 42,-24 68,-76 68,-128 22,-11 36,-13 47,-29 16,-23 15,-43 8,-57 -112,-19 -336,-102 -419,-14z"/>
   <path class="fil21" d="M4290 3230c-22,-51 -20,-31 -39,-18 -2,1 -5,3 -7,5 -19,-31 21,11 -7,-11l-26 -10 27 -26c-23,-76 1,-61 5,-66l31 15c51,8 229,11 286,-1 -3,33 -20,49 -32,75 39,27 33,36 65,63 75,-33 53,-101 44,-233 -20,21 -21,-25 -16,21 0,0 -5,-18 -8,-22l-20 -3c-11,13 1,13 -44,16 -139,9 -205,-8 -363,2l-34 16c-8,-42 -4,-7 10,-20 52,-46 201,-65 290,-64 -2,-1 -5,-2 -7,-2l-24 -3c-14,-1 -15,0 -32,-2 -50,-6 -170,23 -210,42 -82,40 -52,206 -51,208l95 66c35,-14 46,-25 68,-48z"/>
   <path class="fil5" d="M5987 5080c-76,24 -150,83 -235,87 15,-53 57,-61 82,-106 2,-17 1,-8 -1,-19 0,-2 -5,-11 -7,-14 -22,11 -52,25 -74,36 -10,5 -73,40 -74,40 18,-13 28,-16 33,-42 15,-46 2,-3 13,-26 5,-10 9,12 2,-16 -37,8 -50,31 -98,44 8,-23 12,-25 30,-41 24,-23 87,-91 95,-114 -85,21 -101,73 -102,74 -27,28 -33,-8 -100,82 -19,26 -33,23 -83,90 -29,39 -61,48 -78,98 244,-4 315,17 477,-89l119 -83z"/>
   <path class="fil22" d="M5856 5019l3 28c-13,12 13,7 -24,14 -25,45 -68,53 -82,106 85,-5 159,-64 235,-87l202 -71c44,-14 184,-48 211,-66 1,-30 -6,-50 -14,-72 -39,-2 -265,35 -297,47l-234 101z"/>
   <path class="fil23" d="M3526 2753c12,13 16,-17 8,18l-14 -11c-44,-24 -67,-50 -67,-119 0,-71 42,-88 -15,-143 -27,2 -25,14 -36,15l40 -62c64,16 97,149 108,206 -25,-12 -37,-31 -39,18 -1,27 6,57 16,79zm-122 -342c-65,33 -84,302 89,446 1,1 109,72 100,-18 -9,-87 -16,-317 -65,-381 -15,-19 -82,-69 -124,-47z"/>
   <path class="fil8" d="M3494 3920c49,38 -16,-34 42,28 1,1 3,3 4,4l20 25c14,11 -3,-2 18,9 14,7 10,3 21,13 15,14 16,15 33,28 143,102 361,194 545,170 -24,-15 -196,-40 -258,-67 -78,-33 -151,-75 -210,-120l-69 -52c-59,-63 -65,-36 -106,-102l-128 -124c-38,-35 -29,-45 -14,-69 51,-1 -6,2 40,7 10,1 19,-3 30,-7 -16,-40 -33,-40 -49,-90 -45,9 -107,43 -144,64l171 209c19,26 31,54 55,74z"/>
   <path class="fil24" d="M4755 4720l-285 411c-25,30 -10,4 -24,43l92 2c24,-23 -6,9 11,-20 13,-22 5,-13 28,-17 -2,0 -6,-2 -6,-3l-9 -15c27,-20 57,-62 82,-90l84 -114c17,-24 0,-4 15,-29 14,-23 13,-11 27,-25 1,-1 3,-3 4,-5 15,-19 38,-75 93,-132 16,-17 13,-10 17,-36 11,2 21,-8 18,-39 -5,-54 -14,-18 -33,-43 -93,32 -55,105 -115,114z"/>
   <path class="fil14" d="M5356 6052c42,0 95,-3 136,2 59,8 60,34 88,41l129 15c84,4 27,5 52,-15 -67,-6 -184,-53 -255,-75l-645 -195c-189,-57 -115,-36 -138,-17 45,9 271,149 547,215l62 15c29,11 15,6 25,14z"/>
   <path class="fil20" d="M4032 5123l-13 -7c-55,-18 39,8 -15,-3l-217 -22c-88,-10 -171,-21 -257,-6 -13,-24 -16,-22 -40,-34 -28,-14 -27,-9 -43,-28 -29,-36 -38,-42 -74,-62 -1,-34 5,-86 -13,-115 -9,79 6,154 14,228 5,47 41,125 59,171 32,-13 75,-39 116,-55 213,-79 264,-63 482,-67z"/>
   <path class="fil14" d="M5865 5209c0,14 -3,9 13,11 59,-5 118,-4 178,-5 54,-1 183,-69 264,-94 62,-19 92,-12 74,-91 -103,-3 -202,35 -293,62 -88,26 -151,88 -235,118z"/>
   <path class="fil25" d="M2983 3736c-1,23 50,27 108,86 25,26 60,44 81,75l45 49c39,39 15,33 43,61 31,31 26,40 48,91 26,60 12,2 27,71 -1,-33 -3,-56 -9,-79l-61 -139c-30,-38 3,-11 -35,-43l45 -8c-11,42 -18,27 12,40 -15,-84 -51,-27 -30,-104 33,15 23,24 72,38 -13,-38 -15,-29 -35,-56 -47,-62 -87,-96 -121,-138l-50 10c-17,7 -26,13 -42,19 -33,13 -69,28 -98,28z"/>
   <path class="fil0" d="M3513 4559c-90,26 -122,123 -26,217 75,74 199,-18 163,-128 -9,-29 -29,-56 -50,-70 -25,-16 -55,-27 -87,-18z"/>
   <path class="fil13" d="M5452 4657c-13,-24 -13,-39 -34,-56 -21,-18 -42,-27 -80,-28 -51,16 -111,51 -100,136 7,51 37,85 78,106 38,19 24,-2 33,28 16,-37 8,-10 42,-27 58,-29 65,-103 60,-160z"/>
   <path class="fil22" d="M5754 4908c-8,23 -71,92 -95,114 -18,17 -22,18 -30,41 47,-13 61,-36 98,-44 16,-19 70,-41 94,-60 45,1 0,-8 17,6 30,-3 56,-22 83,-34 153,-70 269,-53 284,-113 -52,-19 -79,-3 -131,-10 -56,-8 -61,-1 -120,17 -45,14 -161,61 -200,84z"/>
   <path class="fil12" d="M4240 2491c-21,23 -14,12 -32,15l-65 73c42,-3 27,-19 77,-26 45,-7 56,8 70,5 -20,21 0,-18 -9,15l-16 60 23 35 12 4 24 -24c57,-9 74,-6 123,3 -4,-37 -52,-141 -67,-179 -38,-99 -7,-102 5,-185 -9,-13 18,-14 -22,-8 7,14 8,33 -8,57 -11,16 -25,18 -47,29 0,52 -26,104 -68,128z"/>
   <path class="fil18" d="M5047 3987c20,13 21,25 30,47 6,14 6,20 10,32 11,32 2,14 18,29 20,-27 33,-48 55,-78 -1,-2 -2,-9 -2,-7l-57 -242c-18,-25 -52,-35 -82,-47 -34,-13 -60,-34 -93,-29 15,69 119,228 121,297z"/>
   <path class="fil26" d="M6720 3272c2,-2 5,-6 6,-5l18 -11c23,-7 13,-1 34,0 13,10 12,16 12,0l2 -15c7,-20 3,-6 10,-29 13,-10 0,-5 25,-6 33,-26 74,-130 84,-176l6 -59c-10,-50 -69,-6 -88,12 -51,48 -143,209 -109,289z"/>
   <path class="fil27" d="M6786 2969l-139 -58c-29,21 -43,41 -64,76 -17,29 -32,71 -37,107l146 49c6,-32 25,-69 40,-95l54 -80z"/>
   <path class="fil28" d="M5529 2569c46,-29 151,-42 214,-47 190,-13 362,26 523,124 95,58 107,31 71,260l-4 2 35 -7 -12 -9c0,-24 -4,0 11,-9l15 -30c13,-54 17,-102 9,-160 -15,-30 -134,-93 -173,-111 -238,-109 -462,-120 -700,-21 11,11 -7,2 12,7z"/>
   <path class="fil29" d="M4600 4779c23,-4 9,3 20,-23 -137,1 -297,1 -433,-11l-424 -29c-21,-71 -30,-143 -49,-209l-94 -6c0,16 45,9 58,9 22,47 30,41 45,108l32 125 -43 4c37,2 61,12 103,12l329 7c62,-1 145,0 207,5 41,3 71,-8 113,-4l137 12z"/>
   <path class="fil30" d="M6382 2853l-15 30 24 -1 -2 19 168 55c31,-33 40,-43 61,-86 -40,-4 -143,-64 -182,-83 -2,2 -4,2 -5,5 -1,3 -33,55 -49,62z"/>
   <path class="fil29" d="M5452 4657l8 16c15,60 -20,17 18,93 27,54 -3,109 -32,191l45 -6c7,-26 14,-28 31,-42 -12,-89 -8,-177 -14,-270 -1,-12 -1,-31 -2,-41 -4,-38 -2,-23 -18,-33 -22,-1 -53,-2 -74,-5 -6,-1 -34,-7 -35,-7 -67,0 -26,2 -41,19 38,1 59,11 80,28 20,17 20,32 34,56z"/>
   <path class="fil31" d="M4161 3033l25 4c158,-11 224,7 363,-2 45,-3 33,-3 44,-16 -30,-30 -79,-45 -141,-49 -90,-1 -238,18 -290,64z"/>
   <path class="fil32" d="M2908 4672c29,-9 73,14 99,27l-1 -7c-19,-12 -13,-5 -29,-24l66 22 4 -14c-53,-31 -110,-75 -179,-104 -43,-19 -175,-62 -225,-63 16,16 9,10 32,22l161 99c10,6 20,14 31,21 18,11 23,10 41,21z"/>
   <path class="fil0" d="M3520 2760l6 -7c-10,-21 -17,-52 -16,-79 1,-49 14,-30 39,-18 -11,-57 -43,-190 -108,-206l-40 62c12,-1 9,-12 36,-15 57,55 15,72 15,143 0,69 22,95 67,119z"/>
   <path class="fil8" d="M5690 4755l-37 112 85 -43c12,-9 8,-7 15,-15l-42 1c0,-21 -1,-30 24,-14l-15 -22c-1,-1 -2,-3 -3,-4l17 -16c7,18 -4,3 13,18 13,-21 1,-7 20,-17l17 -8c22,-105 98,-166 139,-225 -37,2 -97,72 -126,102 -38,39 -32,35 -52,70 0,1 -13,19 -14,20 -1,1 -3,3 -4,5l-36 37z"/>
   <path class="fil20" d="M5450 4437c-35,27 -42,38 -84,4 10,-20 18,-34 31,-52 4,-6 10,-14 15,-19 16,-18 5,-7 20,-18 -10,-25 -7,-25 -26,-44 -35,25 -13,3 -31,42 -9,20 -16,29 -29,50 -30,48 -21,12 -61,99 58,2 98,5 155,-4l14 -30c0,-1 2,-3 3,-5l-7 -21z"/>
   <path class="fil25" d="M5160 4017c18,-34 40,-56 59,-87 -8,-36 -27,-61 -44,-97 -22,-47 -24,-53 -73,-66l57 242c0,-1 2,5 2,7z"/>
   <path class="fil33" d="M6646 2911l139 58 63 -53c-25,-28 -87,-54 -127,-66 -34,11 -58,40 -75,61z"/>
   <path class="fil34" d="M3641 1799c-16,3 -17,1 -31,8 -26,15 -5,11 -4,12 -1,-10 -3,-2 4,-18 -13,-18 23,-16 -29,-14 -20,20 -32,16 -48,35 -5,5 -31,49 -37,59 -18,33 -40,95 -40,133 13,-64 158,-145 186,-215z"/>
   <path class="fil15" d="M3507 2109c21,-10 198,-147 159,-189 -26,-29 -91,42 -101,57 -20,29 -47,94 -58,132z"/>
   <path class="fil12" d="M4777 2446l15 -6c2,-1 14,-4 17,-5l-4 -84c-23,-29 -46,-55 -95,-37 -23,8 -76,29 -86,38 99,13 117,-7 154,94z"/>
   <path class="fil35" d="M5902 2747c6,-54 -221,-131 -344,-120 44,38 185,34 307,109 61,37 25,15 38,11z"/>
   <path class="fil36" d="M3334 4412c27,55 5,43 120,33 38,-3 129,-2 155,-30 -4,-46 1,-11 -16,-25 -5,24 -105,17 -118,18 -51,6 -97,14 -141,3z"/>
   <path class="fil37" d="M4584 4139c106,-9 275,-119 257,-243l-22 36c-8,14 -14,26 -22,38l-33 45c-2,3 -4,7 -7,10l-68 53c-34,24 -7,17 -48,31 -2,1 -4,1 -6,2l-51 28z"/>
   <path class="fil38" d="M2977 4432l3 -17 6 -21c-12,-22 -18,-40 -39,-57 -5,-20 -3,-1 15,-8l-144 -163c7,28 19,43 32,70 12,25 26,32 41,62 15,30 61,118 84,135z"/>
   <path class="fil34" d="M4475 3410c18,-10 18,1 35,-39 7,-16 16,-38 17,-55 2,-31 -1,-29 -11,-54 -15,-42 -5,-31 -36,-32 -12,37 -2,46 4,79 7,39 -4,60 -9,101z"/>
   <path class="fil22" d="M4290 3230l35 -35 -63 -66 -15 -7 -5 -19c-4,5 -28,-10 -5,66l-27 26 26 10c28,22 -12,-20 7,11 2,-1 5,-4 7,-5 19,-13 17,-33 39,18z"/>
   <path class="fil39" d="M4333 2780l3 -16 18 -2c76,-6 82,31 148,37 10,-20 18,-26 29,-38 -52,18 -138,-19 -195,-26 11,9 11,12 20,23l-49 -6c6,15 11,18 10,21 -13,-9 -33,-21 -9,-42l-21 -2c-13,14 -6,44 21,62 47,0 14,-1 26,-11z"/>
   <path class="fil40" d="M2199 5446l35 4c-15,-17 13,-14 53,-55 10,-10 -1,1 14,-9 21,-13 22,5 33,-46l-51 26 -7 -20c-22,18 -37,26 -49,43 -9,12 -8,14 -16,28 -13,25 -7,8 -12,28z"/>
   <path class="fil8" d="M3895 4632l2 -34c-56,-35 -32,-54 -86,-87 6,40 6,89 28,119l55 2z"/>
   <path class="fil41" d="M5450 4437l-19 -86c-15,12 -4,0 -20,18 -5,6 -10,13 -15,19 -13,18 -21,32 -31,52 43,34 49,23 84,-4z"/>
   <path class="fil42" d="M4248 2821c-32,-58 2,-100 29,-138 8,-15 -3,-9 11,-16l-23 -35c-1,2 -4,4 -4,5l-29 91c-14,40 -3,6 -25,37 0,0 -12,24 -12,25 -8,40 -1,7 3,24l51 7z"/>
   <path class="fil38" d="M6130 4578c-3,-48 -4,-20 11,-27l-4 -15 12 -6c-29,-20 -107,-41 -144,-43l11 16c2,2 4,4 6,6l108 71z"/>
   <path class="fil43" d="M6315 2987c26,9 70,10 100,20 37,12 51,36 83,35 4,-52 -143,-96 -184,-54z"/>
   <path class="fil44" d="M4451 2969c62,4 110,19 141,49l20 3 9 -8c-18,-38 -44,-46 -98,-55 -41,-7 -99,-13 -136,4 17,3 18,1 32,2l24 3c2,0 5,1 7,2z"/>
   <path class="fil38" d="M5692 4409c25,31 30,67 26,117 13,-55 5,-193 0,-254 -26,38 -13,29 -18,66 -4,27 -6,43 -8,71z"/>
   <path class="fil45" d="M5865 3162c23,6 15,9 36,-17 1,-2 2,-4 3,-6l21 -30c1,-2 5,-9 6,-12 1,-2 2,-4 3,-6l7 -13c52,27 26,27 65,33l-2 -27 -62 -29c-28,23 -63,74 -79,107z"/>
   <path class="fil7" d="M2944 3757c11,16 15,20 23,33 11,16 16,19 26,34 18,24 27,45 55,59 9,-11 19,-13 8,-34 -8,-14 -13,-8 -26,-19l-66 -78 -21 5z"/>
   <path class="fil46" d="M6230 5228l112 15 1 -32c-6,-4 7,-25 -60,-7 -4,1 -22,7 -26,8 -29,11 -13,3 -27,16z"/>
   <path class="fil42" d="M5727 5019c6,27 2,5 -2,16 -11,23 2,-20 -13,26 38,-15 42,-36 91,-67 2,-1 15,-9 16,-10 30,-23 5,-1 19,-20 -17,-14 28,-5 -17,-6 -24,19 -79,42 -94,60z"/>
   <path class="fil47" d="M6798 5836c-20,-28 -5,-11 -28,-26 6,29 15,48 20,78 2,13 1,27 5,39 9,31 10,19 16,27 -1,-39 14,-61 4,-89 0,-1 -16,-27 -17,-28z"/>
   <path class="fil5" d="M4562 2575c29,18 9,-17 22,13l-1 -18 -27 -124 -22 5 29 124z"/>
   <path class="fil48" d="M3230 4800c39,-10 -33,-90 -53,-100 12,41 22,76 53,100z"/>
   <path class="fil49" d="M4877 1973c-1,-42 1,-41 -25,-81 -3,5 -22,22 -17,47 4,22 24,27 42,34z"/>
   <path class="fil50" d="M5753 4810l14 -55c-19,9 -7,-5 -20,17 -16,-15 -5,0 -13,-18l-17 16c1,1 2,4 3,4l15 22c-25,-15 -25,-7 -24,14l42 -1z"/>
   <path class="fil45" d="M5776 3275c31,3 -1,0 25,-5l11 -2c2,0 14,6 17,7 -19,-44 28,-81 28,-81 15,-38 5,0 -13,-12 -16,26 -51,81 -68,93z"/>
   <path class="fil20" d="M5104 4095c-15,-15 -7,4 -18,-29 -4,-12 -4,-18 -10,-32 -9,-22 -10,-34 -30,-47 17,53 10,68 39,120l19 -12z"/>
   <path class="fil51" d="M6116 3013c2,-3 41,-2 -3,-53 -13,10 -19,-16 -19,28 0,32 12,18 22,25z"/>
   <path class="fil44" d="M2992 6137c19,-17 42,-41 56,-66l-34 6c-10,36 1,10 -18,31 -9,11 -14,15 -22,25l17 4z"/>
   <path class="fil24" d="M4972 4409l-2 12c-6,56 -6,10 20,29 14,-48 21,41 21,-26 0,0 -8,-13 -9,-14 -1,-1 -19,-1 -30,-1z"/>
   <path class="fil52" d="M3580 1788c52,-2 17,-4 29,14 -7,16 -4,8 -4,18 0,-1 -22,2 4,-12 14,-8 15,-5 31,-8l15 -24c-24,-3 -20,-5 -41,-1l-35 15z"/>
   <path class="fil53" d="M3734 2775c-2,-2 -4,-8 -5,-6 -1,2 -4,-4 -9,-12 -4,-6 -11,-17 -13,-21l18 104c20,-15 0,-39 9,-66z"/>
   <path class="fil47" d="M4335 2735l-28 -4c-25,22 -4,34 9,42 1,-3 -4,-6 -10,-21l49 6c-8,-12 -8,-15 -20,-23z"/>
   <path class="fil54" d="M6130 4578l46 17c-13,-35 -9,-28 -35,-44 -15,7 -14,-21 -11,27z"/>
   <path class="fil55" d="M6720 3272c8,11 3,16 31,7 31,-9 20,-14 27,-24 -21,-1 -11,-7 -34,0l-18 11c-1,-2 -4,3 -6,5z"/>
   <path class="fil56" d="M4713 2922c-6,-29 -3,-18 -24,-41 -14,-15 -15,-24 -40,-25l31 34c10,10 2,4 12,14 15,15 6,7 20,17z"/>
   <path class="fil57" d="M4562 2575c6,27 1,22 16,32 9,-2 2,2 9,-1 8,-3 11,-5 16,-8 -14,-43 4,-14 -21,-28l1 18c-12,-31 7,5 -22,-13z"/>
   <path class="fil58" d="M5827 5028c1,3 6,12 7,14 2,11 3,3 1,19 37,-8 12,-2 24,-14l-3 -28 -29 9z"/>
   <path class="fil59" d="M3798 1898l8 5c6,-14 0,-2 11,-19 20,-31 5,-2 18,-32 -34,15 -29,12 -37,47z"/>
   <path class="fil60" d="M3676 2491c-13,0 -9,-3 -7,11 22,23 8,3 17,26l-3 17 16 -60c-24,10 -11,15 -23,6z"/>
   <path class="fil55" d="M6368 2901l20 0 2 -19 -24 1c-15,10 -11,-15 -11,9l12 9z"/>
   <path class="fil39" d="M4186 3037l-25 -4c-14,13 -18,-22 -10,20l34 -16z"/>
   <path class="fil61" d="M5643 2727l-91 -19c10,6 -8,1 19,10 2,1 19,4 22,4 16,3 33,4 50,5z"/>
   <path class="fil62" d="M4262 3129c0,-14 -3,-10 12,-11l-31 -15 5 19 15 7z"/>
   <path class="fil63" d="M3686 2618l12 -14c-25,3 -3,1 -13,-8 -14,10 -11,-16 -11,18l12 4z"/>
   <path class="fil64" d="M6793 3240c19,-19 10,-20 35,-35 -24,0 -12,-4 -25,6 -7,22 -3,9 -10,29z"/>
   <path class="fil24" d="M4209 2506c17,-3 11,8 32,-15 -28,11 -8,4 -14,-11 -1,2 -3,3 -4,6 -1,3 -3,5 -4,6 -4,6 -6,9 -10,14z"/>
   <path class="fil65" d="M2977 4432l6 10c14,-11 13,24 6,-11 -4,-19 11,-5 -9,-16l-3 17z"/>
   <path class="fil66" d="M4277 2683c10,-6 7,-7 10,5l13 -17 -12 -4c-14,6 -3,0 -11,16z"/>
   <path class="fil62" d="M5878 5220c-16,-1 -13,3 -13,-11 -15,11 -12,-17 -12,19l25 -9z"/>
   <path class="fil67" d="M4636 3022l-15 -8 -9 8c3,3 8,21 8,22 -5,-46 -4,-1 16,-21z"/>
   <path class="fil68" d="M3006 4692l1 7c8,6 -14,25 19,2 -5,-5 -17,-7 -20,-9z"/>
   <path class="fil66" d="M3806 1903l-8 -5 -12 19c40,-7 5,2 20,-15z"/>
   <path class="fil66" d="M3686 2580l12 -12c-30,9 -4,3 -16,-14 -6,19 -11,8 4,26z"/>
   <path class="fil24" d="M3520 2760l14 11c8,-35 4,-4 -8,-18l-6 7z"/>
   <path class="fil68" d="M4333 2780c7,-6 14,-12 21,-19l-18 2 -3 16z"/>
   <path class="fil51" d="M5881 2834l8 -20 -14 -12c9,19 5,2 6,32z"/>
   <polygon class="fil69" points="6164,4538 6185,4549 6173,4531 "/>
   <path class="fil58" d="M3896 5843l23 3c-25,-22 18,-21 -18,-8 -1,0 -3,4 -5,5z"/>
   <path class="fil26" d="M6420 5273c-18,-10 -5,-3 -14,-23l-3 18 18 4z"/>
   <path class="fil69" d="M3317 5359l19 9 -8 -20c0,16 4,12 -12,11z"/>
   <path class="fil69" d="M6387 4825l23 8 -11 -18c2,17 5,12 -13,11z"/>
   <path class="fil38" d="M3245 4820l-13 1 15 4c0,-1 -2,-3 -2,-5z"/>
  </g>
  <path class="fil70" d="M3411 6195l-36 0c-12,0 -21,3 -28,9 -7,6 -15,22 -23,48 -4,11 -9,19 -17,22 -8,3 -24,4 -47,4 -23,0 -37,-1 -44,-3 -7,-2 -10,-6 -10,-13 0,-4 0,-7 1,-11l10 -71c1,-8 5,-14 11,-16 6,-3 22,-4 48,-4l580 0c17,0 27,1 31,2 4,2 7,8 9,18l14 63c1,5 2,10 2,15 0,6 -2,11 -6,14 -4,3 -16,5 -37,5 -27,0 -44,-1 -52,-3 -8,-2 -14,-8 -19,-19 -8,-18 -18,-32 -28,-43 -10,-11 -23,-17 -38,-17l-24 0 0 390c0,11 13,19 38,23 11,2 18,4 21,6 4,2 5,8 5,16 0,10 -2,16 -7,18 -5,2 -16,2 -33,2l-349 0c-14,0 -22,-1 -26,-3 -4,-2 -6,-8 -6,-17 0,-11 8,-18 25,-21 16,-2 26,-5 30,-7 4,-2 6,-6 6,-12l0 -395zm909 176l126 0 0 -153c0,-5 -1,-8 -4,-10 -2,-2 -8,-4 -19,-6 -11,-2 -17,-8 -17,-17 0,-11 1,-18 4,-21 2,-3 10,-4 22,-4l342 0c15,0 25,1 28,3 3,2 5,9 5,21 0,7 -2,11 -5,13 -4,1 -14,4 -32,7 -19,4 -29,10 -29,19l0 363c0,10 11,17 34,23 18,4 28,8 28,12l0 19c0,4 -2,7 -5,8 -3,1 -12,2 -28,2l-343 0c-11,0 -19,-1 -21,-2 -3,-2 -4,-9 -4,-22 0,-7 7,-12 20,-16 16,-4 24,-10 24,-16l0 -189 -126 0 0 191c0,6 7,12 20,15 14,4 20,10 20,18 0,11 -2,17 -5,19 -3,2 -9,2 -19,2l-347 0c-11,0 -18,-1 -21,-3 -3,-2 -4,-9 -4,-21 0,-6 1,-10 4,-11 3,-2 10,-4 22,-7 22,-4 34,-10 34,-18l0 -367c0,-6 -10,-11 -30,-17 -20,-5 -30,-13 -30,-23 0,-11 2,-17 7,-19 5,-2 14,-3 30,-3l325 0c14,0 24,1 29,3 5,2 8,6 8,13l0 14c-1,4 -8,7 -19,10 -16,3 -24,9 -24,17l0 153zm897 -173l0 173 56 0c15,0 26,-1 34,-4 7,-2 12,-8 16,-16 6,-14 11,-23 15,-26 4,-3 10,-4 19,-4 41,0 64,1 70,2 5,1 8,6 8,15l0 101c0,6 -3,10 -8,12 -5,2 -22,3 -49,3 -18,0 -30,-1 -36,-4 -6,-2 -12,-10 -18,-21 -6,-11 -12,-17 -17,-20 -6,-2 -15,-4 -26,-4l-63 0 0 209 42 0c26,0 44,-3 54,-8 10,-6 26,-22 48,-48 9,-11 18,-18 28,-22 10,-3 26,-5 50,-5 33,0 49,4 49,12 0,2 -1,6 -3,11l-29 69c-5,13 -9,20 -13,23 -3,3 -14,4 -32,4l-529 0c-13,0 -22,-1 -25,-4 -4,-2 -6,-9 -6,-20 0,-7 9,-12 28,-15 29,-5 43,-11 43,-19l0 -378c-1,-4 -12,-8 -36,-11 -16,-3 -25,-5 -28,-8 -3,-2 -4,-8 -4,-18 0,-8 2,-13 5,-14 3,-2 12,-2 28,-2l507 0c13,0 22,1 28,2 6,2 11,5 14,12l41 78c2,4 3,7 3,8 0,5 -13,8 -38,8 -29,0 -48,-1 -57,-4 -9,-2 -19,-9 -28,-19 -16,-18 -31,-31 -43,-38 -12,-7 -25,-11 -40,-11l-55 0z"/>
  <path class="fil70" d="M1455 7289l126 0 0 -402c0,-13 -1,-21 -4,-25 -2,-4 -8,-10 -19,-16 -11,-7 -17,-21 -17,-45 0,-30 1,-48 4,-55 2,-7 10,-10 22,-10l342 0c15,0 25,3 28,8 3,5 5,24 5,54 0,19 -2,30 -5,33 -4,4 -14,10 -32,19 -19,11 -29,27 -29,50l0 957c0,25 11,45 34,60 18,12 28,22 28,32l0 50c0,11 -2,17 -5,21 -3,4 -12,5 -28,5l-343 0c-11,0 -19,-2 -21,-6 -3,-4 -4,-24 -4,-59 0,-17 7,-31 20,-41 16,-12 24,-25 24,-41l0 -499 -126 0 0 502c0,17 7,31 20,41 14,11 20,27 20,47 0,29 -2,45 -5,49 -3,4 -9,7 -19,7l-347 0c-11,0 -18,-2 -21,-7 -3,-5 -4,-24 -4,-56 0,-15 1,-25 4,-30 3,-5 10,-11 22,-17 22,-12 34,-28 34,-47l0 -966c0,-15 -10,-30 -30,-44 -20,-14 -30,-35 -30,-62 0,-28 2,-46 7,-51 5,-6 14,-8 30,-8l325 0c14,0 24,2 29,8 5,5 8,17 8,35l0 38c-1,10 -8,18 -19,26 -16,9 -24,24 -24,45l0 402zm914 461l-198 0 -9 73c0,2 -1,4 -2,7 -4,15 -6,29 -6,41 0,19 12,35 37,49 13,7 21,14 24,22 3,7 5,20 5,37 0,22 -1,35 -4,40 -2,5 -8,7 -17,7l-209 0c-12,0 -17,-12 -17,-37 0,-29 9,-53 28,-71 18,-17 28,-34 30,-53l147 -940c3,-14 4,-27 4,-38 0,-16 -12,-31 -34,-44 -11,-6 -16,-20 -16,-42 0,-29 2,-47 5,-54 3,-7 12,-10 25,-10l303 0c18,0 31,9 39,26 7,17 15,56 22,115 3,23 6,46 9,68l130 878c6,43 21,75 45,98 7,6 11,10 13,14 2,4 3,14 3,32 0,27 -2,44 -5,50 -4,6 -12,9 -24,9l-351 0c-11,0 -16,-10 -16,-30 0,-26 1,-42 4,-48 3,-7 10,-14 23,-23 19,-12 28,-27 28,-45 0,-19 -6,-62 -18,-129zm-95 -712l-89 621 176 0 -86 -621zm690 256l0 564c0,23 13,41 40,53 22,10 33,25 33,43 0,39 -1,61 -3,65 -2,4 -10,6 -23,6l-210 0c-11,0 -17,-4 -20,-12 -3,-8 -4,-29 -4,-61 0,-15 7,-25 21,-31 27,-12 41,-26 41,-41l0 -944c0,-23 -2,-40 -6,-52 -4,-11 -13,-21 -28,-28 -13,-7 -21,-13 -26,-21 -4,-8 -6,-22 -6,-43 0,-37 10,-56 29,-56l218 0 267 628 0 -464c0,-26 -13,-44 -38,-55 -15,-7 -25,-15 -29,-24 -5,-9 -7,-26 -7,-52 0,-16 2,-26 5,-29 3,-4 9,-5 18,-5l218 0c12,2 18,19 18,52 0,20 -1,32 -4,37 -2,5 -8,10 -16,13 -18,7 -30,15 -35,22 -5,7 -7,17 -7,29l0 1136 -135 0 -311 -731zm607 554l0 -967c-2,-11 -11,-19 -28,-24 -14,-4 -23,-11 -28,-19 -5,-8 -7,-26 -7,-53 0,-20 4,-33 10,-39 7,-6 25,-10 53,-10l380 0c108,0 198,50 269,151 71,101 106,268 106,501 0,213 -34,372 -103,478 -69,106 -160,158 -273,158l-419 0c-12,0 -19,-3 -24,-8 -5,-5 -7,-18 -7,-37 0,-23 1,-37 2,-43 2,-6 9,-13 23,-20 29,-16 44,-38 44,-69zm295 -1017l0 1106 42 0c30,0 51,-12 65,-37 14,-25 21,-69 21,-132l0 -816c0,-36 -8,-65 -25,-87 -17,-22 -41,-34 -72,-34l-30 0zm1039 618l0 420c0,21 14,37 41,46 12,4 19,8 24,13 5,5 7,23 7,55 0,20 -2,32 -6,36 -4,4 -13,6 -25,6l-375 0c-18,0 -28,-8 -28,-24l0 -46c0,-19 12,-33 36,-41 13,-4 21,-10 25,-16 4,-6 6,-18 6,-35l0 -394 -159 -569c-8,-28 -23,-47 -44,-56 -12,-5 -17,-14 -17,-26l0 -60c0,-14 8,-22 23,-22l336 0c9,0 16,3 19,8 3,5 5,19 5,42 0,23 -1,37 -3,43 -2,6 -7,11 -15,16 -12,8 -18,18 -18,30 0,7 1,15 4,24l103 356 105 -357c1,-3 2,-8 2,-15 0,-17 -11,-34 -31,-52 -9,-8 -14,-16 -14,-23l0 -47c0,-17 8,-26 23,-26l175 0c16,0 24,9 24,26l0 50c0,9 -6,18 -18,26 -20,14 -34,35 -42,62l-161 549zm845 -713l281 0c19,0 31,3 37,8 6,5 9,20 9,43 0,21 -2,35 -6,43 -4,8 -14,16 -30,23 -14,6 -23,13 -27,21 -4,8 -6,20 -6,37l0 949c0,14 2,24 5,30 3,6 12,13 27,20 20,10 30,23 30,39 0,41 -1,65 -4,69 -2,5 -12,7 -28,7l-354 0c-15,0 -23,-13 -23,-39 0,-22 1,-39 2,-50 2,-11 11,-20 29,-27 20,-8 30,-22 30,-42l0 -673 -143 543 -87 0 -141 -526 0 654c0,21 9,37 28,47 23,12 35,32 35,62 0,34 -12,51 -35,51l-171 0c-19,0 -29,-16 -29,-49 0,-23 8,-40 24,-53 12,-10 20,-18 23,-24 3,-6 5,-17 5,-32l0 -923c0,-26 -2,-45 -7,-59 -4,-14 -14,-25 -29,-33 -16,-8 -24,-17 -24,-26l1 -34c1,-25 2,-40 5,-46 3,-6 10,-9 21,-9l293 0 127 493 129 -493zm740 1014l-198 0 -9 73c0,2 -1,4 -2,7 -4,15 -6,29 -6,41 0,19 12,35 37,49 13,7 21,14 24,22 3,7 5,20 5,37 0,22 -1,35 -4,40 -2,5 -8,7 -17,7l-209 0c-12,0 -17,-12 -17,-37 0,-29 9,-53 28,-71 18,-17 28,-34 30,-53l147 -940c3,-14 4,-27 4,-38 0,-16 -12,-31 -34,-44 -11,-6 -16,-20 -16,-42 0,-29 2,-47 5,-54 3,-7 12,-10 25,-10l303 0c18,0 31,9 39,26 7,17 15,56 22,115 3,23 6,46 9,68l130 878c6,43 21,75 45,98 7,6 11,10 13,14 2,4 3,14 3,32 0,27 -2,44 -5,50 -4,6 -12,9 -24,9l-351 0c-11,0 -16,-10 -16,-30 0,-26 1,-42 4,-48 3,-7 10,-14 23,-23 19,-12 28,-27 28,-45 0,-19 -6,-62 -18,-129zm-95 -712l-89 621 176 0 -86 -621zm690 256l0 564c0,23 13,41 40,53 22,10 33,25 33,43 0,39 -1,61 -3,65 -2,4 -10,6 -23,6l-210 0c-11,0 -17,-4 -20,-12 -3,-8 -4,-29 -4,-61 0,-15 7,-25 21,-31 27,-12 41,-26 41,-41l0 -944c0,-23 -2,-40 -6,-52 -4,-11 -13,-21 -28,-28 -13,-7 -21,-13 -26,-21 -4,-8 -6,-22 -6,-43 0,-37 10,-56 29,-56l218 0 267 628 0 -464c0,-26 -13,-44 -38,-55 -15,-7 -25,-15 -29,-24 -5,-9 -7,-26 -7,-52 0,-16 2,-26 5,-29 3,-4 9,-5 18,-5l218 0c12,2 18,19 18,52 0,20 -1,32 -4,37 -2,5 -8,10 -16,13 -18,7 -30,15 -35,22 -5,7 -7,17 -7,29l0 1136 -135 0 -311 -731z"/>
  <path class="fil71" d="M2540 8431l-62 264 -173 0c-16,-41 -30,-87 -42,-138 -6,22 -19,68 -39,138l-172 0 -62 -264 135 0 15 92 14 89c5,-46 18,-106 39,-181l144 0c2,8 7,37 15,87l16 100c8,-64 21,-126 39,-187l135 0zm27 0l232 0 0 53 -93 0 0 50 87 0 0 50 -87 0 0 58 102 0 0 53 -241 0 0 -264zm923 0l-62 264 -173 0c-16,-41 -30,-87 -42,-138 -6,22 -19,68 -39,138l-172 0 -62 -264 135 0 15 92 14 89c5,-46 18,-106 39,-181l144 0c2,8 7,37 15,87l16 100c8,-64 21,-126 39,-187l135 0zm167 0l0 264 -139 0 0 -264 139 0zm195 0l0 211 84 0 0 53 -223 0 0 -264 139 0zm257 0l0 211 84 0 0 53 -223 0 0 -264 139 0zm237 0l235 0 0 53 -96 0 0 50 85 0 0 50 -85 0 0 111 -139 0 0 -264zm408 0l0 264 -139 0 0 -264 139 0zm337 0l-49 117 74 147 -128 0c-15,-26 -30,-58 -43,-96 -4,17 -9,35 -15,53l-12 43 -135 0 51 -147 -51 -117 135 0c3,7 8,19 14,36 6,13 10,25 14,36l30 -72 116 0zm303 0l0 264 -139 0 0 -264 139 0zm335 0l0 53 -82 0 0 211 -139 0 0 -211 -82 0 0 -53 304 0zm391 0l80 264 -142 0 -8 -47 -50 0 -8 47 -144 0 71 -264 201 0zm-74 170c-7,-30 -14,-67 -21,-111 -14,51 -22,88 -26,111l47 0zm317 -170l0 211 84 0 0 53 -223 0 0 -264 139 0zm257 0l0 211 84 0 0 53 -223 0 0 -264 139 0z"/>
 </g>
</svg>
