<?xml version="1.0" encoding="UTF-8"?>
<!DOCTYPE svg PUBLIC "-//W3C//DTD SVG 1.1//EN" "http://www.w3.org/Graphics/SVG/1.1/DTD/svg11.dtd">
<!-- Creator: CorelDRAW X6 -->
<svg xmlns="http://www.w3.org/2000/svg" xml:space="preserve" width="3.41333in" height="3.41333in" version="1.1" style="shape-rendering:geometricPrecision; text-rendering:geometricPrecision; image-rendering:optimizeQuality; fill-rule:evenodd; clip-rule:evenodd"
viewBox="0 0 3413 3413"
 xmlns:xlink="http://www.w3.org/1999/xlink">
 <defs>
  <style type="text/css">
   <![CDATA[
    .fil20 {fill:#09263A}
    .fil0 {fill:#0A1219}
    .fil13 {fill:#0A1319}
    .fil31 {fill:#0C1319}
    .fil36 {fill:#0C2D44}
    .fil1 {fill:#12354E}
    .fil25 {fill:#143A54}
    .fil7 {fill:#153A55}
    .fil41 {fill:#1B4463}
    .fil18 {fill:#224C68}
    .fil29 {fill:#285473}
    .fil52 {fill:#321D14}
    .fil49 {fill:#32251B}
    .fil35 {fill:#423E47}
    .fil34 {fill:#4A2B17}
    .fil63 {fill:#4D3728}
    .fil60 {fill:#524634}
    .fil15 {fill:#542D17}
    .fil43 {fill:#545452}
    .fil68 {fill:#59331A}
    .fil10 {fill:#66391A}
    .fil54 {fill:#6B3C1E}
    .fil62 {fill:#70684F}
    .fil66 {fill:#714B2A}
    .fil65 {fill:#72471B}
    .fil51 {fill:#73706D}
    .fil61 {fill:#797875}
    .fil30 {fill:#837D76}
    .fil26 {fill:#8A847A}
    .fil16 {fill:#8A8884}
    .fil24 {fill:#8D572D}
    .fil53 {fill:#8F6E4A}
    .fil27 {fill:#948F8A}
    .fil69 {fill:#966833}
    .fil17 {fill:#A86A38}
    .fil55 {fill:#AAA9A7}
    .fil50 {fill:#B46D09}
    .fil38 {fill:#B4700E}
    .fil47 {fill:#B6733D}
    .fil59 {fill:#BA844D}
    .fil32 {fill:#BB740C}
    .fil45 {fill:#BC7A45}
    .fil64 {fill:#BFC0BF}
    .fil5 {fill:#C17D4A}
    .fil8 {fill:#C27A0E}
    .fil48 {fill:#C37C12}
    .fil12 {fill:#C4824D}
    .fil23 {fill:#C88653}
    .fil37 {fill:#C98314}
    .fil39 {fill:#CB8A54}
    .fil44 {fill:#D39966}
    .fil42 {fill:#D69458}
    .fil58 {fill:#D9A674}
    .fil40 {fill:#DD9B25}
    .fil57 {fill:#E9AC72}
    .fil67 {fill:#EDBC8A}
    .fil2 {fill:#EDC18E}
    .fil6 {fill:#EEBE8D}
    .fil14 {fill:#EEC191}
    .fil22 {fill:#EEC495}
    .fil21 {fill:#EFD5AF}
    .fil33 {fill:#EFE7DE}
    .fil11 {fill:#F0AE26}
    .fil9 {fill:#F1C596}
    .fil19 {fill:#F1C699}
    .fil28 {fill:#F1EAE2}
    .fil3 {fill:#F2B126}
    .fil4 {fill:#F2B129}
    .fil46 {fill:#F2CDA2}
    .fil56 {fill:#F9EDC9}
    .fil70 {fill:#FEFEFE;fill-rule:nonzero}
   ]]>
  </style>
 </defs>
 <g id="Layer_x0020_1">
  <metadata id="CorelCorpID_0Corel-Layer"/>
  <path class="fil0" d="M603 2983c74,-9 146,-16 222,-24 578,-55 1167,-49 1745,0 52,4 286,29 322,37 9,19 4,110 5,139 1,44 6,95 -20,121 -13,13 -27,18 -51,18 -17,0 -42,1 -63,1l-1853 1c-50,0 -98,1 -148,0 -58,-1 -121,12 -151,-40 -16,-28 -11,-70 -9,-102 2,-48 -4,-105 1,-152zm1056 -999c17,8 20,12 41,17 20,5 116,33 126,54l-532 3c-32,0 -71,4 -99,4 -6,11 -16,21 -24,28l-4 10 4 171c-33,2 -34,0 -60,-14 -64,-32 -65,-46 -107,-109l15 63c8,18 24,35 27,51 -17,-5 -34,-25 -45,-41 -5,-7 -5,-7 -10,-12l-62 -86c-61,-106 -67,-142 14,-229 24,-26 18,-20 45,-39 54,-50 187,-98 268,-74 27,8 59,35 45,64 -46,9 -51,3 -122,21 3,3 -1,2 7,5 14,7 107,8 129,11 39,5 84,15 123,24 36,9 81,21 113,35 18,8 36,13 53,21 17,7 39,16 55,20zm-743 -144c-8,21 -71,62 -91,128 -2,5 -2,8 -3,12l-3 9c0,-1 -1,2 -2,3 -10,-29 -25,-69 -23,-104 1,-31 14,-78 36,-92 2,-9 -1,-1 5,-12 3,-6 3,-7 7,-12 5,-7 12,-11 21,-18 9,-7 12,-14 21,-21 90,-77 254,-139 364,-86 45,22 60,44 66,108l3 9 -8 -4c-54,-32 -162,-23 -226,-4 -35,10 -61,24 -91,38 -27,13 -61,44 -77,49zm1652 -145c2,-1 9,-3 11,-4 29,-8 23,1 26,3l0 14 -48 -6c6,-6 -1,-2 12,-7zm214 418c-43,78 -135,29 -223,34 13,5 18,1 29,10 -49,14 -96,18 -151,18 -197,0 -118,-15 -159,-102 -12,-3 -12,-14 -38,-18 -17,-2 -40,-1 -58,-1l-127 1c-31,0 -48,-15 -94,-34 -91,-38 -221,-113 -302,-112 12,10 8,6 22,10 -57,-1 -108,-24 -158,-40 -75,-24 -81,-27 -162,-39 0,-2 4,-75 15,-85 9,-8 56,-28 71,-31 9,-9 52,-19 68,-21 65,-7 190,6 255,13 108,13 210,31 324,38 220,13 411,-57 578,15 20,9 44,21 62,28l-41 -48c-8,-6 -40,-25 -55,-29l-8 -2 1 -8c9,-13 8,-20 5,-37 29,-19 18,-30 27,-67 18,0 26,18 49,37 38,32 76,118 90,169 22,80 13,227 -22,299zm-376 -415l-11 4c0,-16 -1,-4 5,-8 36,-13 63,-40 101,-51 39,-11 82,-28 126,-26 8,34 -5,31 -32,39 -35,11 -90,40 -113,40 -25,0 -51,0 -76,2zm-264 -282l7 -6c13,2 87,2 91,8 7,4 6,-3 8,14 0,4 0,12 1,18 3,40 1,77 6,116 -4,35 -30,52 -42,62 -3,3 -7,7 -9,9 -3,3 -4,3 -8,6 -3,3 -7,6 -10,10 -18,21 -13,10 -26,22 -15,14 -21,22 -33,32 -25,1 -161,-9 -174,-17 7,-19 46,-71 56,-88l106 -154c9,-12 13,-24 21,-35l7 3zm248 173c-6,8 5,-1 -8,8 -1,0 -6,4 -7,4 -21,13 -23,22 -39,29 -2,11 -7,13 -14,18 0,0 27,-15 32,-17 10,-5 22,-11 32,-15l12 -4 100 -43c14,-5 110,-21 127,-20 3,9 6,18 6,31 -11,8 -71,22 -90,28l-87 30 -51 36c-69,45 -100,36 -204,38 7,-21 21,-25 34,-42 21,-29 27,-27 36,-38 29,-39 31,-23 43,-35 0,0 7,-23 43,-32 17,-10 67,-30 86,-36 25,-8 27,-11 51,-7 22,3 34,-4 56,4 -6,26 -56,18 -121,48 -11,5 -23,13 -35,15zm-950 -199l40 3c8,29 12,59 21,90l182 12c58,5 127,5 186,5 -4,11 2,8 -8,10 -4,7 -10,19 -15,25 -5,6 -5,4 -9,9l-91 125 -129 -13c-94,2 -116,-5 -207,28 -18,7 -36,18 -50,23 -8,-20 -23,-53 -25,-73 -3,-32 -10,-64 -6,-98 2,-25 -7,-106 -13,-128 12,-4 106,-19 123,-19zm776 -64l8 37 3 9c0,1 -1,2 -1,2l-6 13c-24,4 -42,3 -66,2 17,-37 13,-22 26,-42 5,-9 8,-13 12,-21 8,-17 -1,-7 13,-18 8,8 7,8 11,19zm-1050 27c8,5 2,-2 4,7 3,15 3,0 -3,5 5,18 16,39 23,58 7,19 13,41 15,59l-13 -11 -28 -10c7,8 4,5 12,10 1,1 6,2 9,4 -14,10 -5,2 -8,-1 -11,-5 -30,-15 -42,-11 21,14 43,27 61,46 26,27 56,66 66,106 -88,-29 -168,-27 -261,2 -25,8 -52,24 -71,28l-80 57c-24,17 -62,64 -68,69 -18,-46 -31,-179 -34,-234 -4,-80 8,-160 37,-226 11,-25 41,-62 54,-79 17,-21 46,-39 75,-59 59,-40 152,-51 198,-67 15,13 14,12 25,29 10,7 48,64 57,80 16,28 32,58 45,88 47,106 18,49 27,103 6,41 10,80 14,120 0,1 1,2 1,2l-6 -2 -1 -9c-13,-10 -17,-25 -22,-43 -9,-24 -27,-65 -40,-88 -9,-17 -15,-23 -25,-38 -9,-13 -23,-22 -27,-33 -8,3 -9,-5 -6,3 9,7 12,15 16,24l-3 9zm1367 49l5 8 -9 -5 -6 -4 -5 3 2 7c11,7 10,4 15,19 4,9 79,58 96,94l5 8 -10 -3 -46 -2c-9,-19 -19,-26 -41,-28 -95,-9 -163,24 -185,24 -3,3 -1,2 -6,6l-36 18 16 -48 12 -98c2,-21 0,-37 -11,-50 -3,39 -15,89 -35,115 -7,-93 -12,-58 -18,-84 -6,-26 -9,-64 -14,-91 -11,-60 -15,-51 4,-78 14,-20 26,-41 41,-58 96,19 205,156 228,249zm-1366 -340c12,0 28,-6 42,-12 7,-3 11,-5 18,-8l21 -4c15,18 32,33 52,59 9,11 10,8 15,24 24,18 106,165 113,221 8,6 5,-9 7,11 -11,12 -50,11 -66,13 -49,4 -40,10 -51,-14 -5,-29 -42,-96 -57,-119l-65 -108c-12,-6 -16,-15 -24,-25 -5,-6 -6,-7 -11,-14 -4,-5 -5,-7 -10,-14l-1 -6 17 -3zm906 13c21,5 22,8 31,28 7,15 16,26 19,42 -8,13 -17,22 -25,37 -10,13 -15,22 -24,34l-8 5c-12,-22 -9,-29 -17,-51 -1,-29 -46,-98 -52,-127 14,-2 25,7 40,13 13,5 28,10 35,20zm-702 -45l88 81c11,7 21,14 34,22 202,124 467,59 429,-110 39,13 40,37 55,76l51 145c8,26 9,27 -6,45l-54 76c-80,107 -43,92 -168,92 -80,-1 -163,-6 -243,-11l-24 -1c-9,-13 -10,-34 -12,-51 -10,-55 -29,-41 -41,-58 -5,-8 -22,-55 -28,-69 -11,-24 -20,-42 -32,-64 -6,-12 -10,-20 -17,-31 -7,-13 -13,-18 -18,-30 -10,-9 -16,-21 -23,-32l-73 -89c16,-9 42,-23 62,-27 7,21 14,21 21,39zm455 -34l40 -20c12,27 13,86 1,114 -42,99 -279,61 -306,26 -23,-6 -93,-51 -103,-63l-54 -68c-5,-9 -10,-18 -13,-30 46,-39 30,-152 33,-215 11,9 6,9 14,33 9,28 21,67 41,85 15,13 28,27 43,42l24 21c19,14 44,55 131,80 60,17 91,10 148,-4zm1 -114c-1,7 -4,16 -7,23 -7,17 -7,12 -15,17 2,-17 7,-26 4,-43 -2,-14 -7,-18 -2,-34 13,0 9,-4 16,14 4,11 6,10 5,23zm5 796l-40 -1c6,-17 0,-5 10,-18l122 -176c8,-6 38,-51 46,-63 15,-22 32,-43 46,-65l1 -5 22 -28c42,-56 115,-165 152,-211l171 -246c8,-5 22,-29 29,-40l9 -9c7,-14 22,-36 34,-46l26 13 14 10c6,3 10,4 15,6 -3,14 -10,22 -18,32l-242 358c-7,11 -9,17 -19,30 -9,11 -3,1 -9,13l-303 455c0,-1 -2,2 -3,2l-64 -11zm-106 -833c-9,10 -14,15 -29,21l-41 -28c0,0 -13,-72 22,-89 17,-8 68,-21 90,-18 16,-7 40,-5 58,-2 23,4 34,7 42,23l7 4c4,56 13,86 -19,100 -14,-11 -11,-15 -28,-27 5,-11 12,-18 14,-32 -24,5 -100,4 -122,0 -6,0 -5,-1 -5,5l27 28 -15 15zm1086 -10c-11,6 -7,7 -15,15l-1 7c0,7 1,4 -5,0 -3,4 2,6 -12,10 -12,4 -10,1 -13,-3 -14,-34 25,-103 47,-124 8,-8 33,-26 38,-5l-3 25c-4,19 -22,64 -36,75zm-176 -85c-13,-4 -32,-4 -43,-8 17,-18 80,1 79,23 -14,1 -20,-10 -36,-15zm158 -16l-23 34c-6,11 -15,27 -17,41l-63 -21c2,-15 9,-33 16,-46 9,-15 15,-23 27,-32 7,-9 18,-21 32,-26 17,5 44,16 55,28l-27 23zm-378 -95c-5,1 10,11 -16,-5 -52,-32 -113,-30 -131,-47 53,-5 150,28 147,51zm-1069 -144c18,-9 47,12 53,20 21,28 24,126 28,163 4,38 -42,8 -43,8 -74,-62 -66,-177 -38,-191zm1275 189c7,-3 21,-25 21,-27 0,-1 1,-1 2,-2 16,8 60,34 78,36 -9,19 -13,23 -26,37l-72 -23 -9 0 -15 3 -12 8c-15,9 -28,18 -39,31 -3,4 -3,5 -6,9 -8,11 -8,6 -13,19 -38,-17 -59,-33 -89,-59 -1,-28 13,-54 8,-82 -13,-63 -141,-77 -193,-72 -8,-2 0,1 -5,-3 102,-42 198,-38 300,9 17,8 68,35 74,47 4,25 2,45 -4,69zm-675 -215c-9,44 17,94 7,146l-27 137c-5,-10 -17,-32 -19,-39 -6,-4 -2,-1 -9,-7 -4,-4 -1,-2 -5,-6l-13 -15c-11,-3 -19,-10 -31,-15 6,-13 17,-27 14,-48 -2,-16 -13,-28 -14,-45 -6,-4 -4,-2 -7,-14l-12 -53 9 -2 8 -3c1,1 1,2 2,3 18,28 46,31 55,-6l30 6c-16,-43 -24,-35 -66,-40 4,-4 27,-13 37,-16 21,-8 31,3 41,16zm13 -177c-2,-11 6,-18 7,-20 11,17 10,16 11,35 -7,-3 -16,-5 -18,-15zm-568 73c5,-16 16,-44 25,-56 4,-7 32,-37 43,-25 16,18 -59,77 -68,81zm128 -88c-6,7 8,3 -9,6l5 -8c3,-15 1,-14 16,-20 -5,13 1,1 -8,14 -5,7 -2,2 -5,8zm388 -3c29,41 32,91 36,149 -29,-9 -27,-15 -60,-3 -23,9 -34,14 -61,17 -6,15 -18,24 -16,48 3,29 35,129 34,149l-12 9c-5,5 -8,8 -12,16 -28,-3 -31,-18 -63,-16 -3,3 -6,6 -9,8 -5,4 9,4 -11,4 -12,-8 -15,-21 -9,-26l1 -18c-1,-5 0,-5 -4,-2 -12,16 -26,34 -13,59l-1 5c-28,9 -61,18 -76,34 -38,39 -44,61 -45,59 0,-1 -1,2 -2,2 -6,-15 -12,-27 -17,-45 -6,9 -3,18 -2,33 -5,-8 -10,-20 -15,-31 -2,13 2,8 -5,18 -24,-53 -15,-29 -22,-33 -4,-2 -4,-7 -6,-11 -5,-11 -7,-15 -9,-25l-8 13 -12 -39c-4,12 5,22 -4,28l-8 -45 -9 -51 -5 -2c0,-15 -1,-4 5,-8l0 -7c-6,-8 -4,-3 -2,-11l0 -4 1 -7c-4,-10 2,-1 -7,-11 -1,-6 -2,-5 3,-5 7,-30 2,-45 17,-78 11,-23 24,-40 35,-62l-7 -37c-1,-17 0,-24 3,-41 5,-23 13,-48 30,-58 -4,0 -11,0 -15,-1 -15,-3 -1,0 -8,-4 29,-17 160,20 197,29 59,15 88,22 145,1 8,-3 15,-5 22,-8l18 -8 7 11zm-485 -47l15 -6c9,-2 7,-1 18,1l-6 10c-12,30 -74,65 -80,92 0,-16 10,-43 17,-57 2,-4 14,-23 16,-25 7,-8 12,-6 21,-15zm491 -14c-20,-20 -11,-25 -25,-39 -11,-11 -5,-5 -13,-9 5,19 9,28 3,46 -20,-23 -20,-40 -44,-54 4,23 20,29 10,62 -6,21 -20,35 -45,38 -6,-15 -15,-23 -26,-37 -22,-27 -89,-51 -133,-50 20,13 56,20 73,39 -54,-5 -133,-40 -185,-33 11,1 6,0 9,10 -27,2 -39,9 -64,-12 16,-6 26,-14 42,-23 13,-8 29,-13 45,-18 25,-8 76,-18 97,-26 -23,-8 -59,1 -85,2 4,-4 -3,-4 14,-10l35 -11c17,-5 38,-9 54,-9 71,0 91,1 157,29 36,15 89,61 82,105zm353 408l39 8c18,3 35,7 52,13 18,6 31,15 48,19l6 5 -4 8 -9 72c-3,18 -216,307 -223,328 -51,-4 -25,-7 -66,-29 -23,-13 -39,-19 -63,-29 -23,-9 -47,-15 -71,-22 -25,-7 -41,-17 -64,-25l-4 -32c12,-11 35,-51 42,-68 11,-25 19,-57 23,-88l10 -210c-4,-56 -13,-12 -5,-100 2,-18 0,-37 3,-54 10,-64 39,-112 -2,-176 -10,-16 -16,-17 -25,-30 15,-75 -35,-97 -83,-123 -99,-52 -242,-52 -344,-13 -54,20 -99,41 -109,96 -24,6 -44,22 -57,41 -47,65 -49,130 -32,206 14,67 6,35 -18,73 -6,10 -11,22 -14,35 -11,55 10,109 40,152 21,30 40,33 53,44 1,47 -1,143 -17,183 -7,18 -9,22 -26,27 -23,8 -85,53 -90,54 -36,-4 -71,14 -102,27 -40,16 -57,19 -82,44 -10,10 -72,26 -93,34 -73,28 -104,46 -161,94 -63,53 -113,167 -119,259 -8,113 6,238 30,349 20,91 3,38 3,109 1,77 61,170 107,207 27,21 29,39 52,73 10,15 22,26 23,37 -167,-6 -360,1 -532,1 -44,0 -61,-3 -83,25 -21,26 -12,156 -12,198 0,48 -5,506 3,529 33,90 144,36 240,31 6,52 1,139 1,195 0,64 26,107 65,130 56,33 104,23 174,23l1964 -1c64,0 125,9 174,-22 98,-63 58,-176 67,-325 46,1 150,27 187,16 64,-18 55,-81 55,-150 0,-137 0,-274 0,-411 0,-391 -171,-225 -580,-241 75,-44 213,67 229,-241 8,-161 -26,-258 -101,-363 -17,-24 -33,-41 -52,-67 -45,-61 -48,-72 -109,-124 -15,-13 -50,-107 -79,-154 -42,-67 -119,-131 -194,-153 5,-13 17,-30 24,-41 8,-13 16,-24 24,-36l150 -216c20,-4 20,2 34,-10 9,-7 14,-13 26,-18 27,-10 50,3 67,12 2,42 6,43 38,59 13,6 51,26 63,30 47,12 91,-53 107,-81 22,-39 41,-110 -14,-137 -19,-9 -47,-25 -66,-30 -26,-7 -40,18 -77,-1 -42,-21 -13,-36 -41,-56 -15,-10 -39,-26 -58,-35 -100,-51 -195,-73 -308,-42 -29,8 -123,41 -106,82 15,18 42,24 73,25z"/>
  <path class="fil1" d="M603 2983c-5,47 1,104 -1,152 -1,32 -6,74 9,102 29,53 93,40 151,40 666,6 1335,-1 2001,-1 22,0 46,-1 63,-1 24,-1 37,-5 51,-18 27,-27 21,-78 20,-121 0,-29 4,-119 -5,-139 -36,-9 -271,-33 -322,-37 -109,-9 -219,-17 -331,-24 -316,-21 -627,-20 -945,-7 -45,0 -85,3 -125,6 -121,7 -231,15 -345,25 -76,7 -148,14 -222,24z"/>
  <path class="fil2" d="M2787 1950c10,7 3,-1 12,11 0,0 7,12 7,12 4,12 -2,22 -2,38 -3,-4 -3,2 -7,-12 -2,-5 -1,-11 -2,-17 -2,-13 -6,-21 -8,-33zm-156 -239c4,8 -2,5 6,10 15,4 47,23 55,29l41 48c-18,-7 -41,-19 -62,-28 -168,-72 -359,-2 -578,-15 -114,-7 -216,-25 -324,-38 -64,-8 -190,-21 -255,-13 -17,2 -59,12 -68,21 -2,18 -5,29 2,46 2,5 20,35 20,36 6,6 56,32 73,39 21,9 68,16 91,17 41,3 44,-8 104,-8 89,0 186,29 267,63l81 30c231,75 320,97 545,111 13,1 38,3 49,1 17,-3 21,-3 38,7 60,37 33,23 62,45 0,0 2,1 2,2 35,-73 44,-219 22,-299 -14,-51 -53,-137 -90,-169 -23,-19 -31,-37 -49,-37 -9,37 2,48 -27,67 3,16 4,24 -5,37z"/>
  <path class="fil3" d="M1873 1223c1,0 2,0 3,-1 17,-6 6,-3 20,-13l29 -22c1,-1 2,-3 3,-4l14 -19c3,-5 6,-11 9,-16l9 -15c8,53 -65,100 -110,104l22 -12zm-503 -192c-5,2 -9,3 -13,3 -20,-2 5,-4 -17,-3 -6,11 -10,15 6,30l55 53c18,28 20,17 45,44l30 22c25,19 56,37 90,51 27,11 100,22 110,29 -79,11 -172,-29 -233,-73 -8,-5 -8,-6 -14,-12 -5,-4 -3,-2 -9,-6 -9,-5 -2,1 -8,-4l-8 -11c0,-1 -1,-1 -2,-2 -25,-27 3,4 -18,-12 5,12 10,18 18,30 7,12 11,19 17,31 12,23 21,40 32,64 6,13 23,61 28,69 12,17 31,4 41,58 23,14 13,22 37,37l-1 15c80,4 163,10 243,11 125,1 88,16 168,-92l54 -76c15,-18 14,-18 6,-45l-51 -145c-15,-39 -16,-63 -55,-76 39,170 -227,235 -429,110 -13,-8 -22,-15 -34,-22l-88 -81z"/>
  <path class="fil4" d="M929 1645c19,-4 46,-20 71,-28 93,-29 174,-31 261,-2 -10,-40 -39,-79 -66,-106 -18,-19 -40,-32 -61,-46 -8,-5 -10,-4 -17,-9 -5,-3 -9,-6 -13,-9l-69 -43c-10,-5 -7,-2 -14,-9 22,0 78,19 96,27 30,13 54,31 77,45l-2 6 13 11c-3,-18 -9,-40 -15,-59 -7,-20 -19,-41 -23,-58l-2 -4c-10,-7 -30,-45 -36,-58 -7,-13 -12,-16 -18,-27 -6,-11 -11,-18 -14,-30l62 70c5,11 18,20 27,33 10,14 16,21 25,38 12,23 30,64 40,88 8,4 39,38 22,43l1 9 6 -1c-4,-41 -8,-79 -14,-120 -8,-53 21,3 -27,-103 -14,-31 -29,-60 -45,-88 -9,-16 -47,-72 -57,-80 -17,-1 -134,30 -152,40 3,4 -3,3 14,9 21,8 27,10 39,24 -44,-9 -68,-22 -113,5 -18,11 -5,3 -19,18 -82,90 -14,342 25,413z"/>
  <path class="fil5" d="M2182 2054c-4,-3 2,-1 -11,-6l-27 -6c-118,-28 -215,-88 -234,-92 10,-8 -22,-17 59,7l276 84c30,9 81,30 109,32 -11,9 14,8 -22,7l-55 -7c16,34 7,63 14,81 22,18 111,21 145,21 55,0 102,-4 151,-18 -11,-9 -16,-5 -29,-10 65,-3 122,11 186,10 21,-16 24,-20 37,-43 -1,-1 -2,-1 -2,-2 -30,-22 -2,-8 -62,-45 -17,-10 -21,-11 -38,-7 -11,2 -36,0 -49,-1 -225,-15 -314,-36 -545,-111l-81 -30c-80,-34 -178,-62 -267,-63 -60,0 -63,11 -104,8 -24,-2 -70,-9 -91,-17 -17,-7 -67,-32 -73,-39 0,0 -18,-31 -20,-36 -7,-17 -4,-28 -2,-46 -15,3 -62,24 -71,31 -11,9 -16,82 -15,85 82,12 88,14 162,39 50,16 101,39 158,40 -14,-5 -10,-1 -22,-10 82,0 212,75 302,112 46,19 63,34 94,34l127 -1z"/>
  <path class="fil6" d="M1557 1964c1,-1 2,-2 2,-2 15,-5 -3,-6 8,4l-10 -1zm-570 -107l-5 10c12,8 41,100 67,144 15,25 45,77 67,92 14,10 7,3 19,7 8,3 12,8 17,13 5,-11 3,-12 14,-22l4 -10 -7 -2c3,-4 5,-6 9,-11 8,-9 3,2 8,-13l15 -2c27,0 66,-4 99,-4l0 -9c-14,-2 -17,-5 -23,-14l14 9c35,1 68,4 100,7 78,8 180,-21 253,-52 19,-8 16,-9 21,-15 -17,-4 -38,-13 -55,-20 -18,-7 -35,-13 -53,-21 -33,-14 -77,-26 -113,-35 -39,-9 -84,-19 -123,-24 -22,-3 -115,-4 -129,-11 -7,-4 -3,-2 -7,-5 71,-19 76,-12 122,-21 14,-29 -18,-56 -45,-64 -81,-24 -214,24 -268,74z"/>
  <path class="fil7" d="M1393 1415c14,-4 26,1 37,8 9,6 17,18 22,30 15,47 -37,87 -70,55 -41,-40 -27,-82 11,-93zm-65 122c8,12 5,35 5,49 15,9 19,11 32,27 7,8 6,6 18,12 10,5 12,4 17,15 37,-6 73,-2 110,3l93 9c23,5 -17,-6 6,1l5 3 129 13 91 -125c4,-6 5,-4 9,-9 5,-6 11,-18 15,-25l-59 -5c-18,-2 -31,3 -48,2 -27,-2 -62,-3 -89,-2l-141 -3c-18,0 -28,-4 -44,-5l18 -2 -14 -54c-7,-29 -10,-26 -19,-46 -5,0 -25,3 -25,-4 -17,1 -112,15 -123,19 6,22 15,103 13,128z"/>
  <path class="fil8" d="M929 1645c-39,-71 -107,-323 -25,-413 14,-15 1,-7 19,-18 45,-28 69,-14 113,-5 -12,-14 -18,-17 -39,-24 -17,-6 -11,-5 -14,-9 18,-10 135,-41 152,-40 -10,-17 -10,-16 -25,-29 -46,16 -139,27 -198,67 -29,19 -58,38 -75,59 -14,17 -43,54 -54,79 -30,66 -41,146 -37,226 3,55 17,188 34,234 6,-4 44,-52 68,-69l80 -57z"/>
  <path class="fil4" d="M2326 1350c1,-12 2,-19 4,-31 2,-16 -3,-12 8,-28 2,26 6,85 0,109l-12 98 15 -16c0,-1 1,-1 2,-2 0,0 6,-8 6,-9 9,-15 6,-13 22,-30 13,-13 38,-42 54,-43 -17,25 -50,51 -59,96l-7 3 -6 24c22,0 90,-33 185,-24 22,2 32,10 41,28l46 2c8,1 6,3 5,-5 -16,-36 -92,-85 -96,-94l-20 -7 -46 -30c-1,-1 -2,-2 -2,-3l-5 -7c16,1 49,10 62,19l6 4 4 -3c-23,-93 -132,-230 -228,-249 -15,17 -27,39 -41,58 -19,27 -15,18 -4,78 5,27 8,66 14,91 6,26 12,-8 18,84 20,-26 32,-76 35,-115z"/>
  <path class="fil9" d="M1578 432c36,-37 132,-2 179,6 17,-3 5,-2 9,3 -5,36 -18,37 -2,79 6,16 27,61 29,77 -21,-4 -28,-5 -53,-1l-10 10 -6 7 -1 18 9 1 12 2c25,3 61,19 84,11l12 -9c1,-21 -31,-120 -34,-149 -3,-24 9,-33 16,-48 27,-3 38,-8 61,-17 33,-13 31,-6 60,3 -4,-58 -6,-108 -36,-149 -35,3 -34,27 -166,20 -20,-1 -100,-12 -120,-19 -13,-5 -25,-11 -40,-10 -15,38 -7,106 -9,142 -2,26 0,20 6,23z"/>
  <path class="fil5" d="M1166 2100c-11,10 -9,12 -14,22 -5,-4 -9,-10 -17,-13 -13,-4 -5,3 -19,-7 -22,-15 -52,-68 -67,-92 -27,-44 -56,-137 -67,-144l5 -10c-27,20 -20,13 -45,39 -81,87 -75,122 -14,229l62 86c5,5 5,6 10,12 11,15 28,36 45,41 -3,-16 -19,-34 -27,-51l-15 -63c42,62 43,76 107,109 26,13 27,16 60,14l-4 -171z"/>
  <path class="fil10" d="M2461 795c-10,23 -18,29 -29,45 -8,12 -7,11 -16,21l-91 125c-38,44 -86,127 -104,148l-210 298c-3,5 -5,8 -7,11 -17,24 -19,24 -24,27 -2,11 -1,8 -7,16 -24,25 -34,49 -40,57 0,1 -1,1 -2,2 -6,6 -6,1 -11,11 -6,11 1,2 -7,12l-36 49c-10,12 -23,30 -35,39l4 7c0,0 2,2 3,1 -10,2 -6,-2 -12,7 -8,12 5,-1 -5,9l64 11c1,-1 2,-3 3,-2l303 -455c6,-12 0,-2 9,-13 10,-12 12,-19 19,-30l242 -358c8,-10 15,-18 18,-32 -5,-2 -9,-3 -15,-6l-14 -10 1 12z"/>
  <path class="fil11" d="M863 1752l3 9 22 -11c9,0 23,-10 33,-15 16,-7 26,-8 42,-13 -5,16 -13,16 -25,34 -17,28 -38,58 -23,83 15,-5 50,-36 77,-49 30,-14 56,-28 91,-38 63,-19 172,-28 226,4 7,1 5,2 5,-5 -6,-63 -21,-86 -66,-108 -110,-53 -274,9 -364,86 -9,7 -12,14 -21,21z"/>
  <path class="fil12" d="M1561 1116c-15,-67 -22,-64 -35,-149 15,4 13,9 23,16l77 53c35,21 84,38 127,49l-9 -25c5,-12 22,-29 34,-36 15,-9 36,-13 47,-28 -58,14 -89,21 -148,4 -87,-24 -112,-65 -131,-80l-24 -21c-15,-15 -28,-29 -43,-42 -20,-18 -32,-57 -41,-85 -7,-23 -2,-24 -14,-33 -4,63 12,176 -33,215 2,12 7,21 13,30l54 68c10,12 80,57 103,63z"/>
  <path class="fil13" d="M2489 2434c-35,8 -43,30 -44,71 -1,35 -3,205 4,228 14,50 115,78 115,-32 0,-37 3,-203 -5,-227 -10,-27 -32,-49 -70,-41z"/>
  <path class="fil0" d="M944 2728c7,-38 6,-184 2,-226 -8,-90 -102,-85 -113,-18 -7,40 -5,184 -2,229 6,95 102,78 113,15z"/>
  <path class="fil12" d="M1463 529c5,4 0,2 10,-3l-7 26 0 4c5,7 -6,10 7,6l-5 5 0 7c4,4 -5,5 5,3l-5 6 9 51c1,2 4,6 5,9 2,3 4,6 4,5 0,-1 1,2 2,3l12 39 8 -13c3,10 5,14 9,25 2,4 2,9 6,11 7,4 -2,-20 22,33 7,-10 3,-5 5,-18 4,11 10,23 15,31 -1,-15 -4,-24 2,-33 5,-3 2,1 3,-7 0,-1 0,-5 -1,-6 0,-2 -3,-12 -3,-15 -6,-34 -18,-54 -33,-79 -24,-40 -15,-92 3,-113l28 5c5,-7 13,-10 21,-16 29,-19 20,-19 53,-24 30,-2 64,13 70,11 2,-1 -11,-10 -10,-11 -57,-15 -96,-31 -146,3 -4,2 -7,4 -12,7 13,-31 12,-32 37,-48 -7,-4 -8,2 -6,-23 2,-36 -5,-104 9,-142 14,-1 26,5 40,10 21,7 101,18 120,19 132,7 131,-17 166,-20l-7 -11 -18 8c-7,3 -14,5 -22,8 -58,21 -86,14 -145,-1 -37,-9 -168,-46 -197,-29 7,5 -7,1 8,4 4,1 11,1 15,1 -17,10 -25,35 -30,58 -3,16 -4,24 -3,41l7 37c-10,22 -24,40 -35,62 -15,32 -11,47 -17,78z"/>
  <path class="fil14" d="M1561 1116c27,35 264,74 306,-26 12,-28 11,-87 -1,-114l-40 20c-11,15 -32,19 -47,28 -11,7 -28,24 -34,36l9 25c-43,-10 -92,-28 -127,-49l-77 -53c-10,-8 -9,-13 -23,-16 13,84 20,82 35,149z"/>
  <path class="fil15" d="M1571 110c26,-1 61,-10 85,-2 -20,8 -72,18 -97,26 -16,5 -32,10 -45,18 -15,9 -25,17 -42,23 26,21 37,13 64,12 -4,-10 2,-9 -9,-10 52,-7 130,28 185,33 -16,-19 -53,-25 -73,-39 44,-1 111,22 133,50 11,14 20,22 26,37 26,-3 39,-16 45,-38 9,-33 -7,-39 -10,-62 25,15 25,32 44,54 6,-18 2,-27 -3,-46 9,5 3,-2 13,9 14,15 5,19 25,39 6,-44 -47,-90 -82,-105 -65,-28 -85,-29 -157,-29 -16,0 -37,4 -54,9l-35 11c-17,6 -10,5 -14,10z"/>
  <path class="fil9" d="M1567 727c6,18 11,30 17,45 1,-1 1,-3 2,-2 1,2 7,-21 45,-59 16,-16 49,-25 76,-34l1 -5 -22 -3c-2,-7 -5,7 -1,-10 0,0 5,-11 5,-11 9,-13 5,1 11,-16l13 -39c0,-1 1,-2 2,-2l7 -26c4,-14 -5,3 4,-6 -6,1 -10,-5 -30,-2 -21,3 -15,10 -33,11l28 -31c2,-2 3,-4 4,-6 0,0 1,-1 2,-2 0,-1 1,-2 2,-3 0,-20 4,-28 -17,-15 -10,9 -11,22 -33,21 -24,-1 -23,-17 -30,-27 -18,3 -37,11 -54,7l-28 -5c-18,21 -27,73 -3,113 15,25 26,45 33,79 1,3 3,14 3,15 0,1 1,5 1,6 -1,8 2,4 -3,7z"/>
  <path class="fil16" d="M2506 730c19,22 2,22 1,23 -5,-3 -9,3 -9,-11 0,-19 3,-7 8,-12zm-250 -167c51,-6 180,9 193,72 6,28 -8,53 -8,82 30,26 51,42 89,59 5,-13 5,-9 13,-19 3,-4 3,-5 6,-9 11,-13 24,-23 39,-31l12 -8 2 -1c15,-98 10,-87 -30,-111 -69,-42 -143,-59 -224,-53 -27,2 -72,8 -92,20z"/>
  <path class="fil17" d="M2400 816l-9 9c7,5 12,-11 5,5 0,0 -20,16 -12,34 -1,-1 -6,-3 -7,-3l-5 1c-11,2 3,3 -11,2l-171 246c-37,46 -109,155 -152,211l-22 28c5,0 13,0 13,1 1,0 4,6 4,6 0,29 -3,-10 -9,11 -11,-8 -11,12 -9,-12 -15,21 -31,43 -46,65 -9,13 -38,57 -46,63 25,-4 9,-35 49,-49 8,10 12,-5 14,18 1,14 -3,18 -8,17 5,-3 7,-3 24,-27 2,-3 4,-6 7,-11l210 -298c17,-21 65,-104 104,-148l91 -125c10,-10 9,-9 16,-21 11,-17 20,-22 29,-45 -16,-3 -5,-3 -28,-14l-3 5c0,1 -1,2 -1,3 -1,1 -2,4 -3,5l-9 13c0,1 -1,2 -1,2 -9,11 -6,10 -15,7z"/>
  <path class="fil18" d="M1149 1071l9 -2 28 33c6,5 8,2 11,8 5,9 0,10 -3,15l65 108c15,23 52,89 57,119 19,4 38,1 60,-1 5,-1 48,2 50,-8 -6,-56 -89,-203 -113,-221 -21,-6 -17,-10 -31,-16 -9,33 6,9 13,44 -13,-6 -10,1 -5,-17l-19 4c16,13 2,2 15,18l26 60c3,10 4,20 4,34 -6,-30 0,-5 -11,-31 -9,-22 -7,-26 -20,-39 -12,-12 -2,-10 -18,-26l-19 -21c-9,-13 -24,-21 -35,-32 -25,-25 -47,-27 -46,-37l-17 3 1 6z"/>
  <path class="fil7" d="M2240 1583l-19 3c12,-35 25,-59 14,-82 -16,-33 -1,-14 -8,-40l-3 -7c2,24 -1,56 -26,68 -15,7 -11,-4 -18,11 -4,-13 2,-4 -14,-12 -18,-9 -31,-23 -34,-45 -5,-36 21,-51 43,-58 6,-7 -11,-8 17,-8 0,0 12,3 15,3 9,1 22,2 32,2 -4,-6 -78,-6 -91,-8l-7 6c-5,17 -8,13 -16,25 -5,7 -11,20 -16,29l-75 162c-3,11 2,-1 -3,8 -8,16 3,-1 -4,6 4,34 22,20 51,19 24,0 63,4 80,-9 12,-9 5,-9 16,-14 27,-11 29,-17 54,-45l9 -11c1,-1 1,-2 2,-3z"/>
  <path class="fil19" d="M1934 510l-30 -6c-9,37 -37,34 -55,6 0,-1 -1,-2 -2,-3l-8 3 12 53c10,6 3,-6 9,12 -2,1 -3,2 -7,3 -3,1 0,0 -4,0 1,16 11,28 14,45 3,21 -8,35 -14,48 12,5 20,12 31,15 10,0 11,4 17,11 9,10 7,5 10,17 2,7 15,29 19,39l27 -137c10,-52 -16,-102 -7,-146l2 36c-1,0 -6,2 -7,2l-6 3z"/>
  <path class="fil8" d="M888 1749c-5,22 -5,14 -14,20 -6,4 -2,-1 -6,4 -17,17 -29,16 -23,23l-15 -2c-22,14 -34,61 -36,92 -2,35 13,75 23,104 1,-1 1,-3 2,-3l3 -9c1,-4 1,-6 3,-12 20,-66 83,-107 91,-128 -15,-25 6,-55 23,-83 11,-18 20,-18 25,-34 -16,4 -26,6 -42,13 -11,5 -25,14 -33,15z"/>
  <path class="fil20" d="M2253 1565c-7,6 -10,7 -13,18 -1,1 -2,2 -2,3l-9 11c-26,28 -28,34 -54,45 -12,5 -4,5 -16,14 -18,13 -56,9 -80,9 -29,1 -47,15 -51,-19 7,-7 -3,10 4,-6 5,-10 -1,2 3,-8l75 -162c5,-9 11,-22 16,-29 8,-12 11,-9 16,-25l-7 -3c-7,11 -12,23 -21,35l-106 154c-10,17 -49,69 -56,88 13,8 150,17 174,17 12,-10 18,-18 33,-32 12,-12 7,-2 26,-22 3,-3 6,-7 10,-10 4,-4 5,-4 8,-6 2,-2 6,-6 9,-9 13,-11 38,-28 42,-62z"/>
  <path class="fil12" d="M1293 2058l532 -3c-10,-21 -106,-49 -126,-54 -21,-5 -24,-9 -41,-17 -6,6 -2,7 -21,15 -73,31 -175,60 -253,52 -32,-3 -65,-6 -100,-7l-14 -9c6,10 9,12 23,14l0 9z"/>
  <path class="fil0" d="M1578 432c-25,16 -24,16 -37,48 5,-3 8,-5 12,-7 38,-25 60,-24 117,-9 44,8 41,25 25,13 -6,-5 -29,-9 -30,-9 -6,5 -7,0 -27,3 -34,5 -24,5 -53,24 -9,6 -16,9 -21,16 16,3 36,-5 54,-7 7,10 6,26 30,27 22,1 23,-12 33,-21 4,1 12,-7 14,-7 5,2 1,13 3,22 3,6 -6,9 6,5 18,-10 29,-33 29,-55 9,-5 16,-6 20,-12 7,-10 6,-18 4,-24 -48,-8 -144,-44 -179,-6z"/>
  <path class="fil21" d="M1725 846c-9,-22 -8,-13 -17,-8 -1,0 -2,1 -3,2 -8,-13 9,5 -3,-5l-11 -4 12 -11c-10,-32 0,-26 2,-28l13 6c22,3 98,5 122,0 -1,14 -8,21 -14,32 17,12 14,16 28,27 32,-14 23,-43 19,-100 -9,9 -9,-11 -7,9 0,0 -2,-8 -3,-9l-9 -1c-5,6 0,6 -19,7 -60,4 -88,-3 -155,1l-15 7c-4,-18 -2,-3 4,-9 22,-20 86,-28 124,-27 -1,0 -2,-1 -3,-1l-10 -1c-6,0 -7,0 -14,-1 -22,-3 -73,10 -90,18 -35,17 -22,88 -22,89l41 28c15,-6 20,-11 29,-21z"/>
  <path class="fil5" d="M2452 1638c-33,10 -64,35 -101,37 6,-23 24,-26 35,-46 1,-7 1,-4 0,-8 0,-1 -2,-5 -3,-6 -10,5 -22,11 -32,15 -4,2 -31,17 -32,17 8,-5 12,-7 14,-18 6,-20 1,-1 5,-11 2,-4 4,5 1,-7 -16,3 -22,13 -42,19 3,-10 5,-11 13,-18 10,-10 37,-39 41,-49 -37,9 -43,31 -43,32 -11,12 -14,-4 -43,35 -8,11 -14,10 -36,38 -12,17 -26,20 -34,42 105,-2 135,7 204,-38l51 -36z"/>
  <path class="fil22" d="M2396 1611l1 12c-5,5 5,3 -10,6 -11,19 -29,23 -35,46 36,-2 68,-27 101,-37l87 -30c19,-6 79,-21 90,-28 0,-13 -2,-21 -6,-31 -17,-1 -113,15 -127,20l-100 43z"/>
  <path class="fil23" d="M1398 642c5,6 7,-7 3,8l-6 -5c-19,-10 -29,-22 -29,-51 0,-30 18,-38 -6,-61 -12,1 -11,6 -16,6l17 -27c28,7 41,64 46,88 -11,-5 -16,-13 -17,8 0,12 3,25 7,34zm-52 -146c-28,14 -36,129 38,191 1,0 47,31 43,-8 -4,-37 -7,-136 -28,-163 -6,-8 -35,-29 -53,-20z"/>
  <path class="fil8" d="M1385 1141c21,16 -7,-15 18,12 0,1 1,1 2,2l8 11c6,5 -1,-1 8,4 6,3 4,1 9,6 7,6 7,7 14,12 61,44 154,83 233,73 -10,-6 -84,-17 -110,-29 -33,-14 -65,-32 -90,-51l-30 -22c-25,-27 -28,-15 -45,-44l-55 -53c-16,-15 -12,-19 -6,-30 22,0 -3,1 17,3 4,0 8,-1 13,-3 -7,-17 -14,-17 -21,-39 -19,4 -46,19 -62,27l73 89c8,11 13,23 23,32z"/>
  <path class="fil24" d="M1924 1483l-122 176c-11,13 -4,2 -10,18l40 1c10,-10 -3,4 5,-9 6,-9 2,-6 12,-7 -1,0 -2,-1 -3,-1l-4 -7c12,-8 24,-26 35,-39l36 -49c7,-10 0,-2 7,-12 6,-10 6,-5 11,-11 1,-1 1,-1 2,-2 6,-8 16,-32 40,-57 7,-7 6,-4 7,-16 5,1 9,-3 8,-17 -2,-23 -6,-8 -14,-18 -40,14 -24,45 -49,49z"/>
  <path class="fil14" d="M2182 2054c18,0 41,-1 58,1 25,3 26,15 38,18l55 7c36,2 12,2 22,-7 -28,-2 -79,-23 -109,-32l-276 -84c-81,-25 -49,-15 -59,-7 19,4 116,64 234,92l27 6c13,5 6,3 11,6z"/>
  <path class="fil20" d="M1615 1656l-5 -3c-23,-8 17,3 -6,-1l-93 -9c-37,-4 -73,-9 -110,-3 -6,-10 -7,-9 -17,-15 -12,-6 -11,-4 -18,-12 -13,-15 -16,-18 -32,-27 0,-14 2,-37 -5,-49 -4,34 2,66 6,98 2,20 17,53 25,73 14,-6 32,-17 50,-23 91,-34 113,-27 207,-28z"/>
  <path class="fil14" d="M2400 1693c0,6 -1,4 5,5 25,-2 51,-2 76,-2 23,0 78,-30 113,-40 26,-8 40,-5 32,-39 -44,-1 -86,15 -126,26 -38,11 -65,38 -101,51z"/>
  <path class="fil25" d="M1166 1062c0,10 22,11 46,37 11,11 26,19 35,32l19 21c17,17 6,14 18,26 13,13 11,17 20,39 11,26 5,1 11,31 0,-14 -1,-24 -4,-34l-26 -60c-13,-16 1,-5 -15,-18l19 -4c-5,18 -8,12 5,17 -6,-36 -22,-12 -13,-44 14,6 10,10 31,16 -5,-16 -7,-13 -15,-24 -20,-27 -37,-41 -52,-59l-21 4c-7,3 -11,5 -18,8 -14,5 -30,12 -42,12z"/>
  <path class="fil0" d="M1393 1415c-38,11 -52,53 -11,93 32,32 85,-8 70,-55 -4,-12 -12,-24 -22,-30 -11,-7 -23,-12 -37,-8z"/>
  <path class="fil13" d="M2223 1457c-6,-10 -6,-17 -14,-24 -9,-7 -18,-12 -34,-12 -22,7 -48,22 -43,58 3,22 16,36 34,45 16,8 10,-1 14,12 7,-16 3,-4 18,-11 25,-13 28,-44 26,-68z"/>
  <path class="fil22" d="M2352 1564c-3,10 -31,39 -41,49 -8,7 -10,8 -13,18 20,-6 26,-15 42,-19 7,-8 30,-18 40,-26 19,0 0,-3 7,3 13,-1 24,-9 35,-15 65,-30 115,-23 121,-48 -22,-8 -34,-1 -56,-4 -24,-3 -26,0 -51,7 -19,6 -69,26 -86,36z"/>
  <path class="fil12" d="M1704 530c-9,10 -6,5 -14,6l-28 31c18,-1 12,-8 33,-11 19,-3 24,3 30,2 -9,9 0,-8 -4,6l-7 26 10 15 5 2 10 -10c25,-4 31,-3 53,1 -2,-16 -22,-60 -29,-77 -16,-42 -3,-44 2,-79 -4,-5 8,-6 -9,-3 3,6 3,14 -4,24 -5,7 -11,8 -20,12 0,22 -11,44 -29,55z"/>
  <path class="fil18" d="M2049 1170c9,6 9,10 13,20 2,6 3,9 4,14 5,14 1,6 8,12 9,-11 14,-21 24,-34 0,-1 -1,-4 -1,-3l-24 -104c-8,-11 -22,-15 -35,-20 -14,-6 -26,-15 -40,-13 6,29 51,98 52,127z"/>
  <path class="fil26" d="M2766 863c1,-1 2,-3 2,-2l8 -5c10,-3 6,0 15,0 6,4 5,7 5,0l1 -7c3,-9 1,-3 4,-12 6,-4 0,-2 11,-2 14,-11 32,-56 36,-75l3 -25c-4,-21 -29,-2 -38,5 -22,21 -61,89 -47,124z"/>
  <path class="fil27" d="M2794 734l-60 -25c-13,9 -18,18 -27,32 -7,12 -14,30 -16,46l63 21c2,-14 11,-30 17,-41l23 -34z"/>
  <path class="fil28" d="M2256 563c20,-12 65,-18 92,-20 81,-6 155,11 224,53 41,25 46,13 30,111l-2 1 15 -3 -5 -4c0,-10 -2,0 5,-4l7 -13c6,-23 7,-44 4,-69 -6,-13 -57,-40 -74,-47 -102,-47 -198,-51 -300,-9 5,5 -3,1 5,3z"/>
  <path class="fil29" d="M1858 1509c10,-2 4,1 8,-10 -59,1 -127,1 -186,-5l-182 -12c-9,-30 -13,-61 -21,-90l-40 -3c0,7 19,4 25,4 10,20 13,18 19,46l14 54 -18 2c16,1 26,5 44,5l141 3c27,-1 62,0 89,2 18,1 30,-4 48,-2l59 5z"/>
  <path class="fil30" d="M2621 684l-7 13 10 -1 -1 8 72 23c13,-14 17,-18 26,-37 -17,-2 -61,-27 -78,-36 -1,1 -2,1 -2,2 0,1 -14,24 -21,27z"/>
  <path class="fil29" d="M2223 1457l3 7c6,25 -8,7 8,40 11,23 -1,47 -14,82l19 -3c3,-11 6,-12 13,-18 -5,-38 -3,-76 -6,-116 0,-5 0,-13 -1,-18 -2,-16 -1,-10 -8,-14 -9,0 -23,-1 -32,-2 -3,0 -15,-3 -15,-3 -28,0 -11,1 -17,8 16,0 25,5 34,12 9,7 9,14 14,24z"/>
  <path class="fil31" d="M1670 762l11 2c68,-5 96,3 155,-1 19,-1 14,-1 19,-7 -13,-13 -34,-19 -60,-21 -38,-1 -102,8 -124,27z"/>
  <path class="fil32" d="M1134 1463c13,-4 31,6 42,11l0 -3c-8,-5 -6,-2 -12,-10l28 10 2 -6c-23,-13 -47,-32 -77,-45 -18,-8 -75,-27 -96,-27 7,7 4,4 14,9l69 43c4,3 9,6 13,9 8,5 10,4 17,9z"/>
  <path class="fil0" d="M1396 644l3 -3c-4,-9 -7,-22 -7,-34 1,-21 6,-13 17,-8 -5,-24 -19,-81 -46,-88l-17 27c5,0 4,-5 16,-6 24,24 7,31 6,61 0,29 10,41 29,51z"/>
  <path class="fil8" d="M2325 1499l-16 48 36 -18c5,-4 4,-3 6,-6l-18 0c0,-9 -1,-13 10,-6l-6 -10c0,0 -1,-1 -1,-2l7 -7c3,8 -2,1 5,8 5,-9 1,-3 9,-7l7 -3c9,-45 42,-71 59,-96 -16,1 -41,31 -54,43 -16,17 -13,15 -22,30 0,0 -6,8 -6,9 0,1 -1,1 -2,2l-15 16z"/>
  <path class="fil20" d="M2222 1362c-15,11 -18,16 -36,2 4,-9 8,-15 13,-22 2,-3 4,-6 6,-8 7,-8 2,-3 9,-8 -4,-11 -3,-11 -11,-19 -15,11 -6,1 -13,18 -4,9 -7,13 -12,21 -13,20 -9,5 -26,42 25,1 42,2 66,-2l6 -13c0,0 1,-1 1,-2l-3 -9z"/>
  <path class="fil25" d="M2098 1183c8,-15 17,-24 25,-37 -3,-15 -12,-26 -19,-42 -10,-20 -10,-23 -31,-28l24 104c0,-1 1,2 1,3z"/>
  <path class="fil33" d="M2734 709l60 25 27 -23c-11,-12 -37,-23 -55,-28 -14,5 -25,17 -32,26z"/>
  <path class="fil34" d="M1448 233c-7,1 -7,0 -13,3 -11,6 -2,5 -2,5 0,-4 -1,-1 2,-8 -5,-8 10,-7 -13,-6 -9,8 -14,7 -21,15 -2,2 -13,21 -16,25 -8,14 -17,41 -17,57 5,-27 67,-62 80,-92z"/>
  <path class="fil15" d="M1390 366c9,-4 85,-63 68,-81 -11,-12 -39,18 -43,25 -8,13 -20,40 -25,56z"/>
  <path class="fil12" d="M1934 510l6 -3c1,0 6,-2 7,-2l-2 -36c-10,-13 -20,-23 -41,-16 -10,4 -33,13 -37,16 42,6 50,-3 66,40z"/>
  <path class="fil35" d="M2416 639c3,-23 -95,-56 -147,-51 19,16 79,15 131,47 26,16 11,6 16,5z"/>
  <path class="fil36" d="M1316 1352c11,24 2,19 51,14 16,-1 55,-1 66,-13 -2,-20 1,-5 -7,-11 -2,10 -45,7 -50,8 -22,3 -41,6 -60,1z"/>
  <path class="fil37" d="M1851 1235c45,-4 118,-51 110,-104l-9 15c-4,6 -6,11 -9,16l-14 19c-1,1 -2,3 -3,4l-29 22c-15,10 -3,7 -20,13 -1,0 -2,1 -3,1l-22 12z"/>
  <path class="fil38" d="M1163 1360l1 -7 3 -9c-5,-9 -8,-17 -16,-24 -2,-9 -1,0 6,-3l-62 -70c3,12 8,19 14,30 5,11 11,14 18,27 7,13 26,51 36,58z"/>
  <path class="fil34" d="M1805 923c8,-4 8,0 15,-17 3,-7 7,-16 7,-23 1,-13 -1,-12 -5,-23 -6,-18 -2,-13 -16,-14 -5,16 -1,20 2,34 3,17 -2,26 -4,43z"/>
  <path class="fil22" d="M1725 846l15 -15 -27 -28 -6 -3 -2 -8c-2,2 -12,-4 -2,28l-12 11 11 4c12,9 -5,-9 3,5 1,-1 2,-2 3,-2 8,-6 7,-14 17,8z"/>
  <path class="fil39" d="M1744 653l1 -7 8 -1c33,-3 35,13 63,16 4,-8 8,-11 12,-16 -22,8 -59,-8 -84,-11 5,4 5,5 8,10l-21 -3c3,6 5,8 4,9 -5,-4 -14,-9 -4,-18l-9 -1c-5,6 -2,19 9,26 20,0 6,0 11,-4z"/>
  <path class="fil40" d="M830 1794l15 2c-7,-7 6,-6 23,-23 4,-4 -1,0 6,-4 9,-6 10,2 14,-20l-22 11 -3 -9c-9,8 -16,11 -21,18 -4,5 -3,6 -7,12 -6,11 -3,3 -5,12z"/>
  <path class="fil8" d="M1556 1446l1 -15c-24,-15 -14,-23 -37,-37 3,17 3,38 12,51l24 1z"/>
  <path class="fil41" d="M2222 1362l-8 -37c-6,5 -2,0 -9,8 -2,2 -4,6 -6,8 -5,8 -9,14 -13,22 18,14 21,10 36,-2z"/>
  <path class="fil42" d="M1708 671c-14,-25 1,-43 13,-59 4,-7 -1,-4 5,-7l-10 -15c-1,1 -2,2 -2,2l-13 39c-6,17 -1,3 -11,16 0,0 -5,10 -5,11 -3,17 0,3 1,10l22 3z"/>
  <path class="fil38" d="M2513 1423c-1,-21 -2,-8 5,-12l-2 -7 5 -3c-13,-8 -46,-17 -62,-19l5 7c1,1 2,2 2,3l46 30z"/>
  <path class="fil43" d="M2593 742c11,4 30,4 43,8 16,5 22,15 36,15 2,-22 -61,-41 -79,-23z"/>
  <path class="fil44" d="M1795 734c26,2 47,8 60,21l9 1 4 -3c-8,-16 -19,-20 -42,-23 -18,-3 -42,-5 -58,2 7,1 8,1 14,1l10 1c1,0 2,1 3,1z"/>
  <path class="fil38" d="M2326 1350c11,13 13,29 11,50 6,-24 2,-83 0,-109 -11,16 -6,13 -8,28 -2,12 -3,18 -4,31z"/>
  <path class="fil45" d="M2400 816c10,3 7,4 15,-7 1,-1 1,-2 1,-2l9 -13c1,-1 2,-4 3,-5 0,-1 1,-2 1,-3l3 -5c22,11 11,12 28,14l-1 -12 -26 -13c-12,10 -27,31 -34,46z"/>
  <path class="fil7" d="M1149 1071c5,7 6,9 10,14 5,7 7,8 11,14 8,10 11,19 24,25 4,-5 8,-6 3,-15 -3,-6 -5,-4 -11,-8l-28 -33 -9 2z"/>
  <path class="fil46" d="M2556 1701l48 6 0 -14c-2,-2 3,-11 -26,-3 -2,0 -9,3 -11,4 -12,5 -5,1 -12,7z"/>
  <path class="fil42" d="M2341 1612c3,12 1,2 -1,7 -5,10 1,-9 -5,11 16,-6 18,-15 39,-29 1,-1 6,-4 7,-4 13,-10 2,-1 8,-8 -7,-6 12,-2 -7,-3 -10,8 -34,18 -40,26z"/>
  <path class="fil47" d="M2799 1961c-9,-12 -2,-5 -12,-11 2,13 7,21 8,33 1,5 1,12 2,17 4,13 4,8 7,12 0,-17 6,-26 2,-38 0,0 -7,-12 -7,-12z"/>
  <path class="fil5" d="M1842 565c12,8 4,-7 9,6l0 -8 -12 -53 -9 2 12 53z"/>
  <path class="fil48" d="M1272 1518c17,-4 -14,-39 -22,-43 5,18 9,32 22,43z"/>
  <path class="fil49" d="M1977 307c0,-18 1,-18 -11,-35 -1,2 -9,9 -7,20 2,9 10,11 18,15z"/>
  <path class="fil50" d="M2352 1522l6 -24c-8,4 -3,-2 -9,7 -7,-6 -2,0 -5,-8l-7 7c0,1 1,2 1,2l6 10c-11,-7 -11,-3 -10,6l18 0z"/>
  <path class="fil45" d="M2362 865c13,1 -1,0 11,-2l5 -1c1,0 6,2 7,3 -8,-19 12,-34 12,-34 6,-16 2,0 -5,-5 -7,11 -22,35 -29,40z"/>
  <path class="fil20" d="M2074 1216c-7,-6 -3,2 -8,-12 -2,-5 -2,-8 -4,-14 -4,-10 -4,-14 -13,-20 7,23 4,29 17,51l8 -5z"/>
  <path class="fil51" d="M2507 753c1,-1 17,-1 -1,-23 -6,4 -8,-7 -8,12 0,14 5,8 9,11z"/>
  <path class="fil44" d="M1170 2090c8,-7 18,-17 24,-28l-15 2c-4,15 0,4 -8,13 -4,5 -6,6 -9,11l7 2z"/>
  <path class="fil24" d="M2017 1350l-1 5c-3,24 -3,4 9,12 6,-21 9,17 9,-11 0,0 -3,-6 -4,-6 0,0 -8,0 -13,-1z"/>
  <path class="fil52" d="M1421 228c22,-1 7,-2 13,6 -3,7 -2,3 -2,8 0,0 -9,1 2,-5 6,-3 6,-2 13,-3l6 -10c-10,-1 -8,-2 -18,-1l-15 6z"/>
  <path class="fil53" d="M1488 651c-1,-1 -2,-3 -2,-3 0,1 -2,-2 -4,-5 -2,-3 -5,-7 -5,-9l8 45c9,-6 0,-16 4,-28z"/>
  <path class="fil47" d="M1745 634l-12 -2c-10,9 -2,14 4,18 0,-1 -2,-3 -4,-9l21 3c-4,-5 -3,-6 -8,-10z"/>
  <path class="fil54" d="M2513 1423l20 7c-5,-15 -4,-12 -15,-19 -6,3 -6,-9 -5,12z"/>
  <path class="fil55" d="M2766 863c4,5 1,7 13,3 13,-4 9,-6 12,-10 -9,0 -5,-3 -15,0l-8 5c0,-1 -2,1 -2,2z"/>
  <path class="fil56" d="M1906 714c-3,-12 -1,-8 -10,-17 -6,-6 -7,-10 -17,-11l13 15c4,4 1,2 5,6 6,7 3,3 9,7z"/>
  <path class="fil57" d="M1842 565c3,11 1,9 7,14 4,-1 1,1 4,0 4,-1 5,-2 7,-3 -6,-18 2,-6 -9,-12l0 8c-5,-13 3,2 -9,-6z"/>
  <path class="fil58" d="M2383 1615c1,1 3,5 3,6 1,5 1,1 0,8 16,-3 5,-1 10,-6l-1 -12 -12 4z"/>
  <path class="fil59" d="M1515 276l3 2c3,-6 0,-1 5,-8 8,-13 2,-1 8,-14 -15,7 -12,5 -16,20z"/>
  <path class="fil60" d="M1463 529c-5,0 -4,-1 -3,5 10,10 3,1 7,11l-1 7 7 -26c-10,4 -5,6 -10,3z"/>
  <path class="fil55" d="M2615 705l9 0 1 -8 -10 1c-6,4 -5,-6 -5,4l5 4z"/>
  <path class="fil39" d="M1681 763l-11 -2c-6,6 -8,-9 -4,9l15 -7z"/>
  <path class="fil61" d="M2305 630l-39 -8c4,3 -3,0 8,4 1,0 8,2 10,2 7,1 14,2 21,2z"/>
  <path class="fil62" d="M1713 802c0,-6 -1,-4 5,-5l-13 -6 2 8 6 3z"/>
  <path class="fil63" d="M1467 584l5 -6c-11,1 -1,1 -5,-3 -6,4 -5,-7 -5,8l5 2z"/>
  <path class="fil64" d="M2797 850c8,-8 4,-9 15,-15 -10,0 -5,-2 -11,2 -3,10 -1,4 -4,12z"/>
  <path class="fil24" d="M1691 536c7,-1 5,3 14,-6 -12,5 -3,2 -6,-5 -1,1 -1,1 -2,3 0,1 -1,2 -2,2 -2,2 -3,4 -4,6z"/>
  <path class="fil65" d="M1163 1360l2 4c6,-5 6,10 3,-5 -2,-8 5,-2 -4,-7l-1 7z"/>
  <path class="fil66" d="M1720 612c4,-2 3,-3 4,2l6 -7 -5 -2c-6,3 -1,0 -5,7z"/>
  <path class="fil62" d="M2405 1698c-7,-1 -5,1 -5,-5 -6,5 -5,-7 -5,8l11 -4z"/>
  <path class="fil67" d="M1874 756l-7 -4 -4 3c1,1 3,9 3,9 -2,-20 -2,0 7,-9z"/>
  <path class="fil68" d="M1176 1472l0 3c3,3 -6,11 8,1 -2,-2 -7,-3 -9,-4z"/>
  <path class="fil66" d="M1518 278l-3 -2 -5 8c17,-3 2,1 9,-6z"/>
  <path class="fil66" d="M1467 567l5 -5c-13,4 -2,1 -7,-6 -3,8 -5,3 2,11z"/>
  <path class="fil24" d="M1396 644l6 5c3,-15 2,-2 -3,-8l-3 3z"/>
  <path class="fil68" d="M1744 653c3,-2 6,-5 9,-8l-8 1 -1 7z"/>
  <path class="fil51" d="M2407 676l4 -8 -6 -5c4,8 2,1 3,14z"/>
  <polygon class="fil69" points="2528,1405 2537,1410 2532,1403 "/>
  <path class="fil58" d="M1557 1964l10 1c-11,-9 8,-9 -8,-4 0,0 -1,2 -2,2z"/>
  <path class="fil26" d="M2638 1720c-8,-4 -2,-1 -6,-10l-1 8 8 2z"/>
  <path class="fil69" d="M1309 1757l8 4 -3 -9c0,7 2,5 -5,5z"/>
  <path class="fil69" d="M2623 1528l10 3 -5 -8c1,7 2,5 -5,5z"/>
  <path class="fil38" d="M1278 1527l-6 1 6 2c0,0 -1,-1 -1,-2z"/>
  <path class="fil70" d="M1349 2115l-15 0c-5,0 -9,1 -12,4 -3,3 -6,9 -10,21 -2,5 -4,8 -7,9 -3,1 -10,2 -20,2 -10,0 -16,0 -19,-1 -3,-1 -4,-3 -4,-5 0,-2 0,-3 0,-5l4 -30c0,-4 2,-6 5,-7 3,-1 10,-2 20,-2l248 0c7,0 12,0 13,1 2,1 3,3 4,8l6 27c0,2 1,4 1,6 0,3 -1,5 -3,6 -2,1 -7,2 -16,2 -12,0 -19,0 -22,-1 -3,-1 -6,-4 -8,-8 -4,-8 -8,-14 -12,-18 -4,-5 -10,-7 -16,-7l-10 0 0 167c0,5 5,8 16,10 5,1 8,2 9,3 2,1 2,3 2,7 0,4 -1,7 -3,8 -2,1 -7,1 -14,1l-150 0c-6,0 -10,0 -11,-1 -2,-1 -3,-3 -3,-7 0,-5 4,-8 11,-9 7,-1 11,-2 13,-3 2,-1 3,-3 3,-5l0 -169zm389 75l54 0 0 -65c0,-2 0,-3 -2,-4 -1,-1 -4,-2 -8,-3 -5,-1 -7,-3 -7,-7 0,-5 1,-8 2,-9 1,-1 4,-2 9,-2l146 0c7,0 11,0 12,1 1,1 2,4 2,9 0,3 -1,5 -2,5 -2,1 -6,2 -14,3 -8,2 -13,4 -13,8l0 156c0,4 5,7 15,10 8,2 12,4 12,5l0 8c0,2 -1,3 -2,3 -1,1 -5,1 -12,1l-147 0c-5,0 -8,0 -9,-1 -1,-1 -2,-4 -2,-10 0,-3 3,-5 9,-7 7,-2 10,-4 10,-7l0 -81 -54 0 0 82c0,3 3,5 9,7 6,2 9,4 9,8 0,5 -1,7 -2,8 -1,1 -4,1 -8,1l-149 0c-5,0 -8,0 -9,-1 -1,-1 -2,-4 -2,-9 0,-2 1,-4 2,-5 1,-1 4,-2 10,-3 10,-2 14,-4 14,-8l0 -157c0,-2 -4,-5 -13,-7 -9,-2 -13,-6 -13,-10 0,-5 1,-7 3,-8 2,-1 6,-1 13,-1l139 0c6,0 10,0 13,1 2,1 3,3 3,6l0 6c0,2 -3,3 -8,4 -7,1 -10,4 -10,7l0 65zm384 -74l0 74 24 0c6,0 11,-1 14,-2 3,-1 5,-3 7,-7 3,-6 5,-10 6,-11 2,-1 4,-2 8,-2 18,0 28,0 30,1 2,1 3,3 3,7l0 43c0,3 -1,4 -3,5 -2,1 -9,1 -21,1 -8,0 -13,-1 -15,-2 -3,-1 -5,-4 -8,-9 -3,-5 -5,-7 -7,-8 -2,-1 -6,-2 -11,-2l-27 0 0 89 18 0c11,0 19,-1 23,-4 4,-2 11,-9 20,-21 4,-5 8,-8 12,-9 4,-1 11,-2 21,-2 14,0 21,2 21,5 0,1 0,3 -1,5l-13 29c-2,5 -4,9 -6,10 -1,1 -6,2 -14,2l-226 0c-6,0 -9,0 -11,-2 -2,-1 -2,-4 -2,-9 0,-3 4,-5 12,-7 12,-2 19,-5 19,-8l0 -162c0,-2 -5,-3 -15,-5 -7,-1 -11,-2 -12,-3 -1,-1 -2,-4 -2,-7 0,-3 1,-5 2,-6 1,-1 5,-1 12,-1l217 0c5,0 9,0 12,1 3,1 5,2 6,5l17 34c1,2 1,3 1,4 0,2 -5,4 -16,4 -12,0 -20,-1 -25,-2 -4,-1 -8,-4 -12,-8 -7,-8 -13,-13 -18,-16 -5,-3 -11,-5 -17,-5l-23 0z"/>
  <path class="fil70" d="M512 2584l54 0 0 -172c0,-5 0,-9 -2,-11 -1,-2 -4,-4 -8,-7 -5,-3 -7,-9 -7,-19 0,-13 1,-21 2,-23 1,-3 4,-4 9,-4l146 0c7,0 11,1 12,4 1,2 2,10 2,23 0,8 -1,13 -2,14 -2,2 -6,4 -14,8 -8,5 -12,12 -12,21l0 410c0,11 5,19 15,26 8,5 12,9 12,14l0 21c0,5 -1,7 -2,9 -1,2 -5,2 -12,2l-147 0c-5,0 -8,-1 -9,-3 -1,-2 -2,-10 -2,-25 0,-7 3,-13 9,-18 7,-5 10,-11 10,-18l0 -214 -54 0 0 215c0,7 3,13 9,17 6,5 9,12 9,20 0,12 -1,19 -2,21 -1,2 -4,3 -8,3l-149 0c-5,0 -8,-1 -9,-3 -1,-2 -2,-10 -2,-24 0,-7 1,-11 2,-13 1,-2 4,-5 10,-7 10,-5 14,-12 14,-20l0 -413c0,-7 -4,-13 -13,-19 -9,-6 -13,-15 -13,-26 0,-12 1,-19 3,-22 2,-2 6,-4 13,-4l139 0c6,0 10,1 13,3 2,2 3,7 3,15l0 16c0,4 -3,8 -8,11 -7,4 -10,10 -10,19l0 172zm391 197l-85 0 -4 31c0,1 0,2 -1,3 -2,7 -3,12 -3,18 0,8 5,15 16,21 6,3 9,6 10,9 1,3 2,8 2,16 0,9 0,15 -2,17 -1,2 -3,3 -7,3l-89 0c-5,0 -7,-5 -7,-16 0,-12 4,-23 12,-30 8,-7 12,-15 13,-23l63 -402c1,-6 2,-12 2,-16 0,-7 -5,-13 -15,-19 -5,-3 -7,-9 -7,-18 0,-12 1,-20 2,-23 1,-3 5,-4 11,-4l130 0c8,0 13,4 17,11 3,7 6,24 9,49 1,10 3,19 4,29l56 376c3,18 9,32 19,42 3,2 5,4 6,6 1,2 1,6 1,14 0,12 -1,19 -2,21 -2,3 -5,4 -10,4l-150 0c-5,0 -7,-4 -7,-13 0,-11 1,-18 2,-21 1,-3 4,-6 10,-10 8,-5 12,-11 12,-19 0,-8 -3,-26 -8,-55zm-41 -305l-38 266 75 0 -37 -266zm295 110l0 241c0,10 6,18 17,23 9,4 14,11 14,19 0,17 0,26 -1,28 -1,2 -4,3 -10,3l-90 0c-5,0 -7,-2 -8,-5 -1,-4 -2,-12 -2,-26 0,-6 3,-11 9,-13 12,-5 17,-11 17,-18l0 -404c0,-10 -1,-17 -3,-22 -2,-5 -6,-9 -12,-12 -6,-3 -9,-6 -11,-9 -2,-3 -3,-9 -3,-18 0,-16 4,-24 12,-24l93 0 114 269 0 -199c0,-11 -5,-19 -16,-23 -6,-3 -11,-6 -13,-10 -2,-4 -3,-11 -3,-22 0,-7 1,-11 2,-12 1,-2 4,-2 8,-2l93 0c5,1 8,8 8,22 0,8 0,14 -2,16 -1,2 -3,4 -7,6 -8,3 -13,6 -15,9 -2,3 -3,7 -3,12l0 486 -58 0 -133 -313zm260 237l0 -414c-1,-5 -5,-8 -12,-10 -6,-2 -10,-5 -12,-8 -2,-4 -3,-11 -3,-23 0,-8 2,-14 4,-17 3,-3 11,-4 23,-4l163 0c46,0 85,22 115,65 30,43 46,115 46,215 0,91 -15,159 -44,205 -30,45 -68,68 -117,68l-179 0c-5,0 -8,-1 -10,-4 -2,-2 -3,-8 -3,-16 0,-10 0,-16 1,-18 1,-3 4,-5 10,-9 13,-7 19,-16 19,-29zm126 -436l0 473 18 0c13,0 22,-5 28,-16 6,-11 9,-30 9,-57l0 -349c0,-15 -4,-28 -11,-37 -7,-10 -18,-14 -31,-14l-13 0zm445 264l0 180c0,9 6,16 17,20 5,2 8,4 10,5 2,2 3,10 3,24 0,9 -1,14 -3,15 -2,2 -5,3 -11,3l-161 0c-8,0 -12,-4 -12,-10l0 -20c0,-8 5,-14 16,-17 5,-2 9,-4 11,-7 2,-3 3,-8 3,-15l0 -169 -68 -244c-3,-12 -10,-20 -19,-24 -5,-2 -7,-6 -7,-11l0 -26c0,-6 3,-9 10,-9l144 0c4,0 7,1 8,3 1,2 2,8 2,18 0,10 0,16 -1,19 -1,3 -3,5 -7,7 -5,3 -8,8 -8,13 0,3 1,6 2,10l44 153 45 -153c1,-1 1,-4 1,-6 0,-7 -5,-15 -13,-22 -4,-4 -6,-7 -6,-10l0 -20c0,-7 3,-11 10,-11l75 0c7,0 10,4 10,11l0 21c0,4 -3,8 -8,11 -9,6 -15,15 -18,26l-69 235zm362 -305l120 0c8,0 13,1 16,4 2,2 4,8 4,18 0,9 -1,15 -3,19 -2,4 -6,7 -13,10 -6,3 -10,6 -11,9 -2,3 -2,8 -2,16l0 406c0,6 1,10 2,13 1,3 5,6 11,9 9,4 13,10 13,17 0,18 -1,28 -2,30 -1,2 -5,3 -12,3l-152 0c-7,0 -10,-6 -10,-17 0,-10 0,-17 1,-21 1,-5 5,-8 12,-11 9,-3 13,-9 13,-18l0 -288 -61 233 -37 0 -60 -225 0 280c0,9 4,16 12,20 10,5 15,14 15,27 0,15 -5,22 -15,22l-73 0c-8,0 -13,-7 -13,-21 0,-10 3,-17 10,-23 5,-4 8,-8 10,-10 1,-3 2,-7 2,-14l0 -395c0,-11 -1,-19 -3,-25 -2,-6 -6,-11 -12,-14 -7,-4 -10,-7 -10,-11l0 -15c0,-11 1,-17 2,-20 1,-3 4,-4 9,-4l125 0 55 211 55 -211zm317 434l-85 0 -4 31c0,1 0,2 -1,3 -2,7 -3,12 -3,18 0,8 5,15 16,21 6,3 9,6 10,9 1,3 2,8 2,16 0,9 0,15 -2,17 -1,2 -3,3 -7,3l-89 0c-5,0 -7,-5 -7,-16 0,-12 4,-23 12,-30 8,-7 12,-15 13,-23l63 -402c1,-6 2,-12 2,-16 0,-7 -5,-13 -15,-19 -5,-3 -7,-9 -7,-18 0,-12 1,-20 2,-23 1,-3 5,-4 11,-4l130 0c8,0 13,4 17,11 3,7 6,24 9,49 1,10 3,19 4,29l56 376c3,18 9,32 19,42 3,2 5,4 6,6 1,2 1,6 1,14 0,12 -1,19 -2,21 -2,3 -5,4 -10,4l-150 0c-5,0 -7,-4 -7,-13 0,-11 1,-18 2,-21 1,-3 4,-6 10,-10 8,-5 12,-11 12,-19 0,-8 -3,-26 -8,-55zm-41 -305l-38 266 75 0 -37 -266zm295 110l0 241c0,10 6,18 17,23 9,4 14,11 14,19 0,17 0,26 -1,28 -1,2 -4,3 -10,3l-90 0c-5,0 -7,-2 -8,-5 -1,-4 -2,-12 -2,-26 0,-6 3,-11 9,-13 12,-5 17,-11 17,-18l0 -404c0,-10 -1,-17 -3,-22 -2,-5 -6,-9 -12,-12 -6,-3 -9,-6 -11,-9 -2,-3 -3,-9 -3,-18 0,-16 4,-24 12,-24l93 0 114 269 0 -199c0,-11 -5,-19 -16,-23 -6,-3 -11,-6 -13,-10 -2,-4 -3,-11 -3,-22 0,-7 1,-11 2,-12 1,-2 4,-2 8,-2l93 0c5,1 8,8 8,22 0,8 0,14 -2,16 -1,2 -3,4 -7,6 -8,3 -13,6 -15,9 -2,3 -3,7 -3,12l0 486 -58 0 -133 -313z"/>
 </g>
</svg>
