<?xml version="1.0" encoding="UTF-8"?>
<!DOCTYPE svg PUBLIC "-//W3C//DTD SVG 1.1//EN" "http://www.w3.org/Graphics/SVG/1.1/DTD/svg11.dtd">
<!-- Creator: CorelDRAW X6 -->
<svg xmlns="http://www.w3.org/2000/svg" xml:space="preserve" width="3.41333in" height="3.41333in" version="1.1" style="shape-rendering:geometricPrecision; text-rendering:geometricPrecision; image-rendering:optimizeQuality; fill-rule:evenodd; clip-rule:evenodd"
viewBox="0 0 3413 3413"
 xmlns:xlink="http://www.w3.org/1999/xlink">
 <defs>
  <style type="text/css">
   <![CDATA[
    .fil0 {fill:black}
    .fil1 {fill:white}
   ]]>
  </style>
 </defs>
 <g id="Layer_x0020_1">
  <metadata id="CorelCorpID_0Corel-Layer"/>
  <g id="_856517312">
   <path class="fil0" d="M1104 2993l53 0 0 110 -53 0 0 -110zm-114 273l-284 0c-74,-3 -126,-44 -138,-111 -5,-31 -1,-158 -1,-197 0,-11 -2,-12 -3,-22 -48,1 -88,19 -138,19 -81,0 -91,-34 -91,-110l-3 -511 0 -28c1,-48 0,-109 66,-109l311 -3c19,0 26,-2 41,-3 14,-1 33,0 47,0 18,0 22,3 41,3 29,0 59,0 88,0 -3,-11 -16,-25 -22,-35l-21 -35c-29,-47 -57,-42 -99,-127 -51,-102 -11,-100 -30,-190 -20,-101 -32,-195 -32,-301 0,-123 48,-230 126,-295 103,-84 182,-78 236,-119 28,-22 67,-32 99,-45 34,-14 49,-8 68,-14 11,-4 41,-26 52,-33 14,-8 44,-19 51,-31 16,-27 21,-101 21,-145 0,-27 7,-33 -18,-48 -8,-5 -12,-8 -18,-14 -31,-30 -56,-85 -56,-133 0,-58 36,-71 40,-89 2,-9 -15,-86 -15,-109 0,-61 34,-158 94,-163 0,-16 6,-25 12,-35 9,-13 9,-14 23,-24 20,-15 39,-22 62,-32 98,-39 222,-36 318,5 13,6 20,11 33,18 88,44 47,93 65,114 8,9 12,11 19,22 39,62 0,113 -1,180 0,16 -3,17 -3,31 -3,69 -3,30 5,90 5,36 -5,87 -5,127 0,72 -11,154 -56,211 -29,38 8,47 27,56 23,10 68,19 124,42 14,6 33,15 43,23 23,19 18,13 47,19 32,-61 112,-163 155,-225 46,-66 62,-74 62,-165 -19,-4 -30,-13 -50,-19 -34,-11 -78,-15 -112,-23 -108,-23 24,-112 153,-112 83,0 167,28 228,68 10,6 27,16 34,23 14,16 5,54 56,54 55,0 16,-24 106,20 32,16 39,37 39,71 0,51 -62,141 -110,141 -15,0 -54,-22 -68,-29 -28,-14 -39,-13 -39,-56 -64,-34 -63,-6 -94,9 -13,6 -16,-1 -27,8 -10,8 -89,127 -102,146 -9,14 -19,27 -28,41 -15,22 -48,62 -53,85 39,9 73,33 103,57 60,47 87,99 118,165 12,25 22,57 44,76 31,25 52,52 76,84 35,46 70,89 100,139 41,67 65,146 65,253 0,95 -9,235 -109,253 -31,6 -80,-3 -105,14 71,0 132,-2 198,-6 76,-6 200,-35 272,2 70,35 74,147 74,225l0 453c0,140 -149,69 -229,69l0 101c0,54 7,108 -17,156 -42,85 -122,70 -219,70 -415,0 -830,0 -1245,0 -134,0 -267,2 -400,3zm39 -255l47 0c7,0 9,2 9,9l0 82 -57 0 0 -91zm-145 60c0,-72 -12,-60 53,-60 0,69 -7,81 19,75l0 -75c68,0 53,-18 53,91 -12,0 -34,1 -44,0 -22,-3 1,-5 -15,-4 -10,0 3,4 -42,4 -19,0 -25,-13 -25,-31zm1490 31c-78,0 -75,-2 -75,-60 0,-44 123,-42 123,0 0,30 6,60 -47,60zm-987 -38c0,-47 11,-53 66,-53 67,0 57,26 57,63 0,34 -54,28 -82,28 -25,0 -41,-12 -41,-38zm1248 22c21,4 19,-4 19,-22l50 0c0,21 -6,38 -47,38 -85,0 -75,-11 -75,-66 0,-31 123,-41 123,9l0 13 -69 0 0 28zm-648 0c21,4 19,-4 19,-22l50 0c0,43 -40,38 -75,38 -56,0 -47,-26 -47,-66 0,-31 123,-41 123,9l0 13 -69 0 0 28zm-261 -9c0,7 6,15 14,11 9,-5 5,-11 5,-23l50 0c0,14 2,38 -41,38 -22,0 -48,2 -67,-8 -17,-9 -14,-25 -14,-45 0,-39 37,-38 69,-38 52,0 53,21 53,47l-69 0 0 19zm402 -22l0 47 -53 0 0 -91 50 0 0 13c11,-7 17,-12 35,-13l0 31c-12,0 -31,-2 -31,13zm-544 -9c-5,23 -3,29 -3,57l-53 0c0,-109 -14,-91 53,-91l0 9c13,-3 12,-9 31,-9l0 31c-10,0 -18,-1 -28,3zm-745 0c42,1 30,45 14,52 -17,7 -97,5 -118,5l0 -110c42,0 126,-9 126,28 0,14 1,12 -8,17 -11,7 -4,-5 -14,8zm1653 57l-53 0 0 -91 53 0 0 9c27,-14 69,-16 69,13l0 69 -53 0 0 -75 -16 0 0 75zm-1323 -88l13 0 0 -13 53 0 0 13 13 0 0 13 -13 0 0 60c7,2 7,2 16,3l0 13c-33,0 -45,4 -69,-9 0,-50 7,-64 -13,-66l0 -13zm635 -3l44 0c10,22 10,53 19,66 1,-10 4,-25 6,-35 6,-36 -3,-31 51,-31 0,14 -7,32 -11,45 -4,13 -10,34 -11,46l-72 0c-1,-14 -9,-30 -13,-44 -4,-16 -10,-29 -13,-47zm361 0l47 0 19 60c3,-15 8,-44 9,-60l47 0 -16 69c-10,42 -36,34 -94,34l0 -13c10,0 11,-1 19,-3 -1,-14 -11,-33 -15,-44l-16 -44zm-811 3l22 0 0 13c-19,2 -13,8 -13,75l-53 0 0 -75 -9 0 0 -13 9 0c2,-27 30,-22 66,-22l0 13c-16,0 -22,-2 -22,9zm-327 -22l57 0 0 13 -57 0 0 -13zm349 -644c0,-47 -12,-35 176,-35 57,0 101,38 123,84 40,83 41,267 -1,353 -23,47 -61,85 -120,85l-173 0c-13,0 -9,-9 -9,-31 0,-17 28,-10 28,-47l0 -380c0,-17 -25,-11 -25,-28zm-556 0c0,-47 -20,-35 135,-35 23,0 26,79 32,116 8,49 41,323 57,352 14,25 15,2 15,45 0,7 -2,9 -9,9l-148 0 0 -28c0,-22 29,6 17,-67 -2,-14 -1,-15 -16,-15 -20,-1 -45,0 -66,0 -1,17 -6,31 -6,50 0,28 25,-4 25,50 0,7 -2,9 -9,9 -68,0 -95,9 -90,-20 6,-36 16,2 28,-76 7,-43 12,-79 19,-123 4,-29 36,-219 36,-243 0,-16 -19,-12 -19,-25zm1666 -6c0,-39 -18,-28 135,-28 23,0 27,83 32,116 6,42 43,327 57,352 14,25 15,2 15,45 0,7 -2,9 -9,9l-148 0c0,-69 14,-23 20,-55 1,-7 -2,-31 -3,-41 -4,-23 -16,-15 -83,-15 -2,18 -6,32 -6,53 0,10 25,15 25,28 0,37 12,28 -88,28 -12,0 -18,-21 1,-43 14,-16 12,-27 16,-53 6,-42 13,-80 19,-122 6,-42 11,-78 18,-120 4,-21 6,-38 9,-60 3,-21 8,-42 8,-64 0,-16 -19,-9 -19,-31zm-547 0c0,-36 -11,-28 79,-28 15,0 13,17 13,28 0,9 -14,18 -19,25 -6,9 -8,20 -11,33 -7,24 -13,45 -20,68 -49,176 -38,99 -38,308 0,23 28,1 28,41 0,10 -3,19 -13,19l-154 0c-13,0 -9,-9 -9,-31 0,-19 25,-8 25,-25l0 -163c0,-16 -59,-232 -68,-246 -14,-23 -20,7 -20,-46 0,-7 2,-9 9,-9l135 0c13,0 9,10 9,35 0,30 -29,-26 7,97 7,24 16,51 22,76 9,-10 19,-56 23,-71l21 -77c0,-17 -19,-18 -19,-31zm446 41l0 390c0,16 25,15 25,31 0,43 21,31 -154,31 -13,0 -23,-29 2,-48 3,-2 7,-2 9,-13 3,-15 1,-250 1,-266 0,1 -1,1 -1,2l-28 101c-5,17 -9,34 -13,53 -5,20 -10,36 -14,55l-35 0c-4,-8 -11,-37 -14,-49l-42 -153c0,0 -1,-1 -1,-2l0 242c0,19 -1,23 9,31 27,22 14,47 3,47 -78,0 -82,7 -82,-22 0,-22 19,-21 19,-35l0 -393c0,-25 -22,-23 -22,-38 0,-38 -3,-35 25,-35l104 0c1,13 8,35 11,48l26 100c5,20 7,39 16,47 1,-25 47,-171 47,-195 34,0 103,-4 132,3 1,13 3,7 3,19 0,34 -28,19 -28,47zm-1132 -53c0,-8 2,-9 3,-16l97 0c24,50 -19,35 -19,63l0 459 -57 0 -29 -72c-10,-23 -21,-49 -31,-73l-46 -108c-3,-8 -5,-11 -8,-18l-6 -13c-2,-4 -2,-3 -4,-6l0 217c1,46 29,0 29,63 0,7 -2,9 -9,9l-85 0c-13,0 -9,-9 -9,-31 0,-15 22,-10 22,-25l0 -396c0,-32 -25,-6 -25,-50 0,-25 17,-19 41,-19 20,0 40,0 60,0 2,9 9,23 13,31l94 217c0,-23 5,-181 -4,-194 -12,-17 -28,-5 -28,-38zm-852 6c0,-10 2,-22 13,-22l138 0c13,0 13,16 13,25 0,23 -19,15 -19,31l0 167 50 0 0 -167c0,-23 -16,11 -16,-47 0,-7 2,-9 9,-9l141 0c12,0 6,1 9,7 19,35 -25,37 -25,62l0 384c0,33 25,7 25,60 0,16 -45,9 -75,9 -28,0 -57,0 -85,0 -12,-52 16,-33 16,-63l0 -198 -50 0 0 201c0,29 16,1 16,50 0,16 -42,9 -72,9 -28,0 -57,0 -85,0 -15,-63 22,-32 22,-69l0 -380c0,-22 -25,-25 -25,-50zm2518 -9c0,-7 1,-4 3,-13l97 0c24,50 -19,35 -19,63l0 459 -57 0 -123 -289 0 217c1,46 29,0 29,63 0,7 -2,9 -9,9l-85 0c-13,0 -9,-9 -9,-31 0,-17 25,-5 25,-41l0 -355c0,-70 -28,-25 -28,-75 0,-28 23,-19 94,-19 9,0 8,4 11,11l74 175c6,13 19,52 28,63 0,-23 5,-181 -4,-194 -12,-18 -28,-5 -28,-41zm-660 -182c4,-4 18,5 4,1 0,0 -9,4 -4,-1zm-13 -3c3,-3 12,5 4,2 0,0 -9,4 -4,-2zm349 -9c4,-4 18,5 4,1 0,0 -9,4 -4,-1zm-31 -3c4,-4 18,5 4,1 0,0 -9,4 -4,-1zm-1003 138c11,-1 15,-4 25,-6l0 -154c-6,-4 -5,-3 -10,-6 -27,-12 -13,-20 -6,-20 23,0 141,-4 154,3 -1,15 -4,12 -19,16l0 66 50 0 0 -66c-7,-2 -7,-2 -16,-3l0 -16c24,0 151,-4 163,3 -2,25 -28,7 -28,28l0 138c0,12 13,15 25,16l0 16c-24,0 -151,4 -163,-3 2,-24 19,-7 19,-25l0 -72 -50 0 0 82c13,3 15,3 16,19l-160 0 0 -16zm-299 -138c-17,0 -10,-47 6,-47l255 0c11,0 11,13 14,24 5,26 2,23 -33,23 -21,0 -7,-34 -47,-35l0 167c10,2 14,5 25,6l0 13c-8,4 3,3 -9,3l-160 0 0 -16c16,0 25,-2 25,-19l0 -145c0,-7 -2,-9 -9,-9 -36,0 -18,35 -41,35l-25 0zm685 -28c-27,-1 -26,-7 -28,-16 5,-7 203,-3 226,-3 11,0 15,14 19,22 4,9 16,22 0,22 -68,0 -37,-28 -72,-28l-25 0 0 69 31 0c16,0 9,-19 25,-19l31 0 0 53 -41 0c-3,-11 -8,-19 -22,-19 -18,0 -25,-2 -25,9l0 75c57,0 38,-1 61,-24 11,-11 30,-7 49,-7 -1,6 -12,47 -25,47 -31,0 -220,4 -233,-3 1,-15 2,-10 15,-13 7,-2 13,-1 13,-12l0 -154zm336 -47l0 9c-99,0 -74,-21 -113,-25 -28,-3 -37,3 -64,-5 -19,-6 -37,-8 -55,-14 -55,-18 -96,-35 -147,-60 -36,-18 -37,-10 -39,-27 16,0 85,24 106,30l104 31c28,9 192,62 209,62zm-1295 -195c46,-53 212,-112 282,-65 27,19 21,35 20,49 -9,1 -19,3 -30,5 -10,1 -21,2 -31,3 -20,3 -38,10 -55,11 12,16 94,13 125,16 42,4 79,15 118,23 98,21 166,60 209,71l0 6c-8,2 -15,8 -26,12 -9,4 -17,7 -25,10 -18,7 -35,13 -55,17 -39,10 -84,21 -124,21l-113 -6 0 9c-18,0 -26,3 -47,3 -51,-1 -56,2 -85,57 -51,-14 -75,-60 -100,-104l-63 -138zm-141 -63c3,-14 11,-27 21,-35 43,-34 20,-28 94,-72 77,-46 220,-83 304,-20 23,17 36,52 36,89 -14,-1 -23,-9 -40,-13 -75,-17 -165,3 -230,29 -46,19 -54,29 -89,53 -45,30 -9,-48 -2,-59 5,-7 9,-14 14,-20 9,-9 10,-7 13,-21 -15,3 -52,15 -64,24 -5,4 -1,0 -4,5 -15,22 -3,7 -32,28l-7 6c-8,6 -1,6 -16,6zm1791 261c-39,-25 -38,-13 -62,-13 -42,0 -86,-7 -126,-9 -80,-5 -155,-21 -231,-40 -38,-9 -68,-20 -105,-30 -146,-40 -260,-116 -422,-116 -47,0 -103,29 -198,-19 -39,-19 -44,-17 -62,-51 -9,-17 -7,-25 -7,-43 0,-17 48,-27 66,-28 73,-6 39,-1 88,0 92,1 245,25 340,37 54,7 117,13 175,13 105,0 198,-19 302,-19 180,0 206,50 242,53 -6,-9 -11,-11 -18,-20 -13,-16 -22,-25 -40,-35 -43,-23 -37,-7 -32,-33 4,-20 -5,-16 8,-30 14,-16 16,-27 18,-57 17,1 22,11 32,21 34,35 39,36 64,87 45,89 45,115 45,213 0,82 -16,101 -28,154 -15,-1 -15,-9 -26,-18 -8,-6 -16,-11 -24,-16zm-163 -356c14,-1 44,-19 44,0l0 9c-18,0 -24,-3 -44,-3l0 -6zm-148 0c6,-9 31,-19 43,-26 14,-8 31,-19 46,-23 47,-15 75,-26 125,-26 0,27 3,27 -20,33 -13,3 -15,4 -26,8 -17,7 -30,12 -47,19 -17,7 -32,14 -54,15 -22,1 -44,0 -66,0zm-16 -79c16,-1 43,-16 57,-22 60,-27 53,-23 123,-35 38,-7 50,-10 50,13 0,21 -26,22 -65,33 -25,7 -42,14 -66,22 -23,8 -44,16 -65,26 -21,10 -38,21 -65,23 1,-14 11,-22 20,-31 15,-14 13,-9 12,-29zm-82 16c10,-18 19,-22 32,-37 17,-19 9,-21 36,-33 22,-10 74,-33 102,-33l22 2c16,0 -8,-6 40,1 -2,19 -25,20 -49,26 -22,5 -85,26 -104,41l-42 30 0 -11c0,-1 0,-1 0,-2 -12,6 -22,14 -38,16zm262 -155c16,15 49,36 49,61 -11,-5 -31,-3 -47,-3 -10,-20 -21,-28 -50,-28 -49,0 -83,3 -129,16 -10,3 -17,6 -32,6l5 -20c0,-1 1,-1 1,-2 0,-1 1,-1 1,-2 11,-17 6,-21 18,-39 12,-18 35,-41 37,-51 -25,13 -25,17 -48,40 -18,18 -20,35 -40,48 0,-45 13,-84 13,-129 0,-24 -3,-35 -3,-60 -17,19 -6,117 -44,160 0,-54 -12,-60 -17,-77l-21 -140 36 -58c6,-9 9,-10 14,-18 17,8 34,5 75,38 53,41 133,139 138,198 -16,-1 -31,-16 -66,-19 15,22 55,34 87,61 8,6 13,10 21,17zm-1249 -125c7,15 13,26 13,47 0,42 9,69 9,110 -2,-2 -22,-23 -24,-26 -17,-27 -12,-54 -72,-129l-71 -80c3,12 49,88 59,101 12,16 40,90 42,116 -9,-6 -6,-7 -12,-13 -1,-1 -39,-28 -62,-39 -19,-9 -73,-27 -96,-29 7,9 84,56 100,64 52,28 111,88 124,144 -11,-1 -17,-4 -28,-7 -150,-40 -258,33 -287,35 -38,-72 -90,-281 -37,-370 47,-79 109,-43 137,-42 -8,-10 -32,-22 -47,-25l0 -6c33,-8 101,-35 135,-35 18,0 48,51 56,66 15,26 28,52 41,78 6,13 13,28 19,41zm635 -277c0,-8 -2,-9 -3,-16 15,7 15,3 28,16 15,16 48,122 58,150 22,67 29,57 6,88l-84 120c-12,16 -21,34 -48,34 -78,0 -139,0 -217,-6l-85 -3c0,-19 2,-10 -8,-20l-23 -28c-7,-9 -6,-15 -10,-25 -8,-20 -22,-21 -29,-28 -9,-9 -26,-58 -34,-76 -6,-13 -10,-25 -18,-39l-39 -71 43 32c6,6 4,5 12,10 69,48 130,68 215,68l-14 -5c-3,-1 -10,-2 -13,-3 -12,-2 -17,-4 -28,-6 -23,-6 -33,-7 -53,-16 -77,-34 -80,-49 -123,-81 -8,-6 -13,-8 -19,-16 -43,-52 -79,-62 -64,-90 31,3 27,-3 65,35 11,11 18,15 28,25 42,42 111,74 176,89 59,14 128,12 182,-5 45,-15 99,-54 99,-112l0 -22zm-204 107c-42,0 -124,-13 -139,-37 -9,-16 -29,-117 -34,-139 17,1 16,6 26,15 7,6 16,12 24,17 41,28 56,41 105,59l59 19c-5,-22 -12,-22 5,-39 13,-13 15,-16 32,-24 34,-16 13,-7 36,-21 9,-6 26,-15 36,-17 1,15 6,20 6,38 0,46 5,81 -43,108 -35,20 -73,21 -114,21zm1000 -277c16,-4 7,-6 22,-3 -8,11 -5,9 -22,9l0 -6zm-1050 -63c0,-15 6,-28 14,-36 18,-17 144,-44 180,-10 9,8 11,8 13,21 4,21 9,64 -9,80l-8 6 -28 -29c7,-11 9,-13 13,-28 -7,2 -7,3 -16,3 -56,0 -64,4 -110,-6 3,11 1,4 8,11l23 27c-8,6 -11,11 -20,18 -8,6 -13,10 -21,14 -47,-31 -41,-20 -41,-69zm1018 -79c5,-8 19,-25 31,-25 4,0 39,11 50,28 -28,19 -17,31 -82,-3zm-1327 -151c0,-78 55,-53 70,-26 13,24 17,87 20,115 2,19 8,50 -9,50 -24,0 -49,-31 -59,-48 -16,-30 -23,-51 -23,-90zm874 6c19,-5 34,-12 55,-17 73,-17 141,-7 208,21 15,6 38,17 53,26 14,8 36,20 36,40 0,36 -9,55 -6,63 0,0 1,2 1,2l2 4c-12,1 -8,3 -22,3 2,-20 6,-32 6,-57 0,-35 -6,-30 -36,-48 -73,-43 -164,-60 -251,-44 -10,2 -17,3 -25,6 -10,3 -11,5 -21,7l0 -6zm-695 3c0,-22 8,-39 16,-53l40 8c13,-1 28,-6 39,-8 7,12 9,25 28,25 30,0 21,-18 47,-25 0,50 -21,34 -28,60 38,-20 35,-11 53,-9 -1,13 -6,17 -6,28 0,16 13,8 -3,31 -23,35 -8,35 -6,53 -20,2 -58,19 -71,29 -10,8 -39,44 -42,59 -27,-20 -3,-53 -52,-140 -12,-22 -14,-31 -14,-58zm339 -28c17,0 22,-11 25,-25 17,4 21,7 38,3 28,119 -14,166 -16,229 -11,-8 -23,-59 -72,-72 1,-16 12,-24 12,-41 0,-12 -15,-46 -16,-50 -4,-17 8,9 -4,-46l-2 -15c0,-17 20,17 35,17zm-289 -94c0,-205 -12,-151 106,-135 55,8 103,14 160,2 17,-4 32,-11 51,-15 44,82 25,121 35,141 -11,-2 -24,-9 -35,-9 -15,0 -45,22 -82,22 -4,17 -16,20 -14,43 3,36 32,110 33,146 -10,7 -18,9 -22,22 -18,-1 -23,-9 -38,-13 -48,-13 -14,-12 -47,-12l0 13c7,-2 7,-2 16,-3 -2,25 -21,11 -20,-10 3,-42 30,-41 64,-34 -2,-19 -19,-54 -26,-71 -17,-39 1,-48 1,-76l-43 -11c-16,-4 -30,-8 -47,-10 -75,-12 -71,9 -93,11z"/>
   <path class="fil1" d="M2695 1940c16,11 22,25 18,43l-5 14c-2,-10 -3,-19 -5,-30 -2,-7 -6,-22 -8,-27zm-53 -148c-36,-3 -62,-53 -242,-53 -104,0 -197,19 -302,19 -59,0 -121,-6 -175,-13 -95,-12 -248,-36 -340,-37 -48,-1 -15,-5 -88,0 -18,1 -66,11 -66,28 0,18 -1,26 7,43 18,34 23,32 62,51 95,47 151,19 198,19 162,0 276,75 422,116 36,10 67,21 105,30 75,19 151,34 231,40 40,3 83,9 126,9 25,0 23,-12 62,13 8,5 16,10 24,16 11,9 11,16 26,18 12,-53 28,-72 28,-154 0,-98 0,-123 -45,-213 -25,-51 -30,-52 -64,-87 -10,-10 -15,-20 -32,-21 -3,30 -4,41 -18,57 -13,14 -4,10 -8,30 -5,26 -12,10 32,33 19,10 27,19 40,35 7,9 12,12 18,20z"/>
   <path class="fil1" d="M1824 1261c14,-12 6,1 29,-18 8,-7 17,-12 25,-19 19,-17 24,-35 33,-46 6,-8 -1,1 4,-5 0,49 -62,86 -91,88zm57 -179l0 22c0,58 -53,97 -99,112 -54,18 -123,19 -182,5 -64,-15 -133,-46 -176,-89 -10,-10 -18,-14 -28,-25 -38,-38 -34,-33 -65,-35 -15,28 21,38 64,90 6,7 11,10 19,16 44,32 47,47 123,81 20,9 30,10 53,16 11,3 17,4 28,6 2,1 10,2 13,3l14 5c-85,0 -146,-20 -215,-68 -8,-5 -6,-4 -12,-10l-43 -32 39 71c8,13 11,26 18,39 9,18 25,66 34,76 7,7 20,8 29,28 4,10 2,16 10,25l23 28c10,10 8,1 8,20l85 3c78,6 139,6 217,6 26,0 36,-18 48,-34l84 -120c23,-31 16,-22 -6,-88 -9,-27 -42,-134 -58,-150 -12,-13 -13,-9 -28,-16 2,7 3,7 3,16z"/>
   <path class="fil1" d="M548 2370c0,-16 19,-9 19,-31 0,-10 1,-25 -13,-25l-138 0c-10,0 -13,12 -13,22 0,26 25,28 25,50l0 380c0,37 -37,6 -22,69 28,0 57,0 85,0 30,0 72,6 72,-9 0,-50 -16,-21 -16,-50l0 -201 50 0 0 198c0,29 -28,11 -16,63 28,0 57,0 85,0 31,0 75,6 75,-9 0,-53 -25,-26 -25,-60l0 -384c0,-26 44,-27 25,-62 -3,-6 3,-7 -9,-7l-141 0c-7,0 -9,2 -9,9 0,58 16,24 16,47l0 167 -50 0 0 -167z"/>
   <path class="fil1" d="M2386 2383c0,-29 28,-13 28,-47 0,-12 -2,-6 -3,-19 -29,-7 -98,-3 -132,-3 -1,24 -47,170 -47,195 -10,-7 -11,-27 -16,-47l-26 -100c-4,-13 -10,-36 -11,-48l-104 0c-28,0 -25,-4 -25,35 0,15 22,13 22,38l0 393c0,13 -19,13 -19,35 0,29 3,22 82,22 11,0 24,-25 -3,-47 -11,-9 -10,-12 -9,-31l0 -242c0,1 1,2 1,2l42 153c3,12 10,41 14,49l35 0c4,-19 10,-35 14,-55 5,-19 9,-36 13,-53l28 -101c0,-1 1,-1 1,-2 0,16 2,251 -1,266 -3,11 -6,10 -9,13 -25,20 -15,48 -2,48 175,0 154,12 154,-31 0,-16 -25,-15 -25,-31l0 -390z"/>
   <path class="fil1" d="M994 1207l0 6c15,3 40,15 47,25 -28,-1 -90,-37 -137,42 -53,88 -2,298 37,370 29,-2 136,-75 287,-35 11,3 17,6 28,7 -13,-55 -72,-116 -124,-144 -15,-8 -93,-55 -100,-64 23,2 77,20 96,29 23,11 61,38 62,39 6,7 2,7 12,13 -2,-25 -30,-99 -42,-116 -10,-13 -56,-89 -59,-101l71 80c60,76 55,103 72,129 2,4 21,25 24,26 0,-41 -9,-68 -9,-110 0,-21 -6,-32 -13,-47 -6,-13 -12,-28 -19,-41 -13,-27 -26,-53 -41,-78 -9,-15 -39,-66 -56,-66 -34,0 -102,27 -135,35z"/>
   <path class="fil1" d="M1522 2351c34,1 50,18 50,53l0 330c0,35 -5,66 -41,66l-9 0 0 -450zm-148 453c0,23 -3,31 9,31l173 0c59,0 97,-38 120,-85 42,-86 41,-270 1,-353 -22,-46 -66,-84 -123,-84 -188,0 -176,-12 -176,35 0,17 25,11 25,28l0 380c0,37 -28,30 -28,47z"/>
   <path class="fil1" d="M991 1858l63 138c25,44 49,90 100,104 29,-55 34,-57 85,-57 21,0 29,-3 47,-3l0 -9 113 6c40,0 85,-11 124,-21 20,-5 37,-11 55,-17 8,-3 16,-6 25,-10 11,-4 18,-10 26,-12l0 -6c-43,-10 -111,-49 -209,-71 -39,-9 -77,-19 -118,-23 -32,-3 -114,0 -125,-16 17,0 35,-8 55,-11 10,-2 21,-2 31,-3 11,-2 21,-4 30,-5 1,-14 7,-30 -20,-49 -70,-47 -236,12 -282,65z"/>
   <path class="fil1" d="M1255 2329c0,33 16,21 28,38 9,13 4,172 4,194l-94 -217c-4,-9 -11,-23 -13,-31 -20,0 -40,0 -60,0 -23,0 -41,-6 -41,19 0,45 25,18 25,50l0 396c0,15 -22,10 -22,25 0,23 -3,31 9,31l85 0c7,0 9,-2 9,-9 0,-62 -28,-17 -29,-63l0 -217c2,2 2,1 4,6l6 13c3,6 4,9 8,18l46 108c10,24 22,49 31,73l29 72 57 0 0 -459c0,-28 43,-13 19,-63l-97 0c-2,7 -3,7 -3,16z"/>
   <path class="fil1" d="M2921 2326c0,37 15,23 28,41 9,13 4,172 4,194 -9,-10 -23,-50 -28,-63l-74 -175c-3,-7 -2,-11 -11,-11 -71,0 -94,-9 -94,19 0,51 28,5 28,75l0 355c0,36 -25,24 -25,41 0,23 -3,31 9,31l85 0c7,0 9,-2 9,-9 0,-62 -28,-17 -29,-63l0 -217 123 289 57 0 0 -459c0,-28 43,-13 19,-63l-97 0c-2,9 -3,5 -3,13z"/>
   <path class="fil1" d="M843 2688c0,-24 20,-146 25,-180 3,-20 7,-38 7,-59l38 239 -69 0zm217 138c0,-43 -1,-20 -15,-45 -16,-29 -49,-302 -57,-352 -6,-37 -9,-116 -32,-116 -155,0 -135,-12 -135,35 0,13 19,10 19,25 0,24 -32,214 -36,243 -7,43 -12,80 -19,123 -13,78 -22,40 -28,76 -5,29 22,20 90,20 7,0 9,-2 9,-9 0,-54 -25,-22 -25,-50 0,-19 5,-34 6,-50 21,0 46,-1 66,0 15,1 14,1 16,15 12,73 -17,45 -17,67l0 28 148 0c7,0 9,-2 9,-9z"/>
   <path class="fil1" d="M2509 2688c0,-20 5,-44 8,-64l22 -151c2,-16 -1,-20 8,-26 0,31 11,87 15,123l16 119 -69 0zm217 138c0,-43 -1,-20 -15,-45 -14,-25 -51,-310 -57,-352 -5,-33 -9,-116 -32,-116 -153,0 -135,-10 -135,28 0,23 19,15 19,31 0,22 -5,43 -8,64 -3,21 -6,39 -9,60 -7,42 -12,78 -18,120 -6,42 -13,80 -19,122 -4,26 -2,36 -16,53 -19,22 -13,43 -1,43 100,0 88,8 88,-28 0,-13 -25,-18 -25,-28 0,-22 5,-35 6,-53 67,0 79,-9 83,15 1,9 5,33 3,41 -6,32 -20,-14 -20,55l148 0c7,0 9,-2 9,-9z"/>
   <path class="fil1" d="M1940 2342c0,14 19,15 19,31l-21 77c-4,15 -14,61 -23,71 -6,-25 -15,-52 -22,-76 -36,-123 -7,-67 -7,-97 0,-25 3,-35 -9,-35l-135 0c-7,0 -9,2 -9,9 0,53 6,23 20,46 9,15 68,230 68,246l0 163c0,17 -25,6 -25,25 0,23 -3,31 9,31l154 0c10,0 13,-9 13,-19 0,-40 -28,-18 -28,-41 0,-209 -12,-132 38,-308 7,-23 13,-44 20,-68 4,-13 6,-23 11,-33 5,-7 19,-16 19,-25 0,-12 3,-28 -13,-28 -90,0 -79,-8 -79,28z"/>
   <path class="fil1" d="M2188 1264l21 140c5,17 17,24 17,77 38,-43 27,-141 44,-160 0,25 3,36 3,60 0,44 -13,84 -13,129 20,-13 22,-30 40,-48 23,-23 23,-27 48,-40 -3,9 -25,33 -37,51 -12,18 -7,22 -18,39 0,1 -1,1 -1,2 0,1 -1,1 -1,2l-5 20c14,0 21,-3 32,-6 46,-14 80,-16 129,-16 30,0 40,9 50,28 16,0 37,-2 47,3 -1,-24 -33,-46 -49,-61 -7,-7 -13,-11 -21,-17 -32,-26 -73,-39 -87,-61 35,3 50,17 66,19 -5,-59 -85,-157 -138,-198 -42,-32 -59,-30 -75,-38 -5,7 -8,9 -14,18l-36 58z"/>
   <path class="fil1" d="M1547 506c23,-2 18,-23 93,-11 16,3 30,6 47,10l43 11c0,28 -18,37 -1,76 7,17 25,53 26,71 -33,-8 -61,-9 -64,34 -2,22 18,36 20,10 -8,1 -9,1 -16,3l0 -13c33,0 0,0 47,12 15,4 20,11 38,13 4,-13 12,-15 22,-22 -1,-35 -30,-110 -33,-146 -2,-23 10,-26 14,-43 37,0 67,-22 82,-22 10,0 24,7 35,9 -10,-21 9,-59 -35,-141 -19,5 -34,11 -51,15 -57,12 -105,6 -160,-2 -118,-16 -106,-71 -106,135z"/>
   <path class="fil1" d="M1588 2106l0 154c-10,2 -14,5 -25,6l0 16 160 0c0,-16 -2,-16 -16,-19l0 -82 50 0 0 72c0,18 -17,1 -19,25 13,7 139,3 163,3l0 -16c-13,0 -25,-4 -25,-16l0 -138c0,-22 26,-3 28,-28 -13,-7 -139,-3 -163,-3l0 16c8,1 9,1 16,3l0 66 -50 0 0 -66c15,-3 18,0 19,-16 -13,-7 -131,-3 -154,-3 -7,0 -21,7 6,20 5,2 5,2 10,6z"/>
   <path class="fil1" d="M849 1795c15,0 8,0 16,-6l7 -6c29,-21 16,-6 32,-28 3,-5 -1,-1 4,-5 12,-10 49,-21 64,-24 -3,14 -5,12 -13,21 -6,6 -10,13 -14,20 -7,11 -43,89 2,59 35,-24 43,-34 89,-53 65,-26 154,-47 230,-29 17,4 26,12 40,13 0,-38 -14,-73 -36,-89 -84,-63 -227,-27 -304,20 -74,45 -51,38 -94,72 -10,8 -18,21 -21,35z"/>
   <path class="fil1" d="M1921 2084c2,9 1,15 28,16l0 154c0,10 -7,10 -13,12 -13,4 -14,-2 -15,13 13,7 202,3 233,3 13,0 25,-41 25,-47 -20,0 -39,-3 -49,7 -23,23 -3,24 -61,24l0 -75c0,-12 7,-9 25,-9 14,0 19,8 22,19l41 0 0 -53 -31 0c-16,0 -9,19 -25,19l-31 0 0 -69 25 0c36,0 4,28 72,28 16,0 4,-13 0,-22 -4,-8 -8,-22 -19,-22 -24,0 -221,-3 -226,3z"/>
   <path class="fil1" d="M1676 1188c42,0 79,-1 114,-21 48,-27 43,-62 43,-108 0,-18 -5,-22 -6,-38 -10,2 -27,11 -36,17 -23,14 -2,5 -36,21 -17,8 -19,11 -32,24 -17,17 -10,17 -5,39l-59 -19c-49,-18 -64,-31 -105,-59 -8,-5 -16,-11 -24,-17 -10,-9 -9,-13 -26,-15 5,22 25,123 34,139 14,24 97,37 139,37z"/>
   <path class="fil1" d="M1264 2128l25 0c22,0 5,-35 41,-35 7,0 9,2 9,9l0 145c0,17 -9,19 -25,19l0 16 160 0c12,0 1,1 9,-3l0 -13c-11,-1 -15,-4 -25,-6l0 -167c41,1 26,35 47,35 34,0 38,3 33,-23 -2,-11 -3,-24 -14,-24l-255 0c-16,0 -23,47 -6,47z"/>
   <path class="fil1" d="M1497 629c0,27 2,36 14,58 49,87 24,120 52,140 3,-14 32,-51 42,-59 13,-10 51,-28 71,-29 -2,-19 -17,-19 6,-53 16,-24 3,-15 3,-31 0,-12 5,-15 6,-28 -18,-2 -16,-10 -53,9 7,-26 28,-10 28,-60 -26,7 -17,25 -47,25 -19,0 -22,-13 -28,-25 -11,2 -26,7 -39,8l-40 -8c-8,14 -16,32 -16,53z"/>
   <path class="fil0" d="M1522 2801l9 0c36,0 41,-31 41,-66l0 -330c0,-35 -16,-53 -50,-53l0 450z"/>
   <path class="fil1" d="M1836 601c-15,0 -35,-34 -35,-17l2 15c12,56 -1,29 4,46 1,4 16,38 16,50 0,17 -11,25 -12,41 49,13 61,64 72,72 1,-63 43,-111 16,-229 -16,4 -21,1 -38,-3 -3,14 -8,25 -25,25z"/>
   <path class="fil1" d="M1641 821c18,-27 162,-45 173,-3 -38,9 -126,3 -173,3zm-16 28c0,50 -6,38 41,69 8,-4 13,-8 21,-14 9,-7 12,-12 20,-18l-23 -27c-7,-7 -5,0 -8,-11 46,11 54,6 110,6 8,0 9,-2 16,-3 -4,15 -5,17 -13,28l28 29 8 -6c18,-16 13,-59 9,-80 -3,-13 -4,-13 -13,-21 -36,-33 -162,-7 -180,10 -8,8 -14,21 -14,36z"/>
   <path class="fil1" d="M793 3052c13,0 19,-2 19,9 0,23 2,22 -19,22l0 -31zm0 -41c13,0 19,-2 19,9 0,17 0,16 -19,16l0 -25zm47 35c10,-13 3,-1 14,-8 8,-5 8,-3 8,-17 0,-38 -83,-28 -126,-28l0 110c21,0 101,2 118,-5 16,-6 28,-51 -14,-52z"/>
   <path class="fil1" d="M2314 1622c2,20 3,15 -12,29 -9,8 -19,17 -20,31 27,-2 44,-13 65,-23 21,-10 42,-18 65,-26 24,-8 41,-15 66,-22 39,-11 65,-11 65,-33 0,-23 -12,-19 -50,-13 -70,12 -63,8 -123,35 -14,6 -40,21 -57,22z"/>
   <path class="fil1" d="M2286 2062l0 -9c-16,0 -181,-53 -209,-62l-104 -31c-21,-6 -90,-29 -106,-30 1,17 3,9 39,27 51,26 92,43 147,60 18,6 35,9 55,14 27,8 36,2 64,5 40,4 14,25 113,25z"/>
   <path class="fil1" d="M884 3071c0,19 6,31 25,31 45,0 32,-4 42,-4 16,-1 -7,1 15,4 10,2 32,0 44,0 0,-109 15,-91 -53,-91l0 75c-26,6 -19,-7 -19,-75 -66,0 -53,-13 -53,60z"/>
   <path class="fil1" d="M2493 3027l16 0 0 75 53 0 0 -69c0,-28 -42,-27 -69,-13l0 -9 -53 0 0 91 53 0 0 -75z"/>
   <path class="fil1" d="M1352 582c29,15 36,51 44,85 -8,-1 -9,-1 -16,-3 0,51 8,28 9,50 -15,-4 -31,-19 -34,-35 -9,-44 17,-40 -6,-75 -12,3 -4,3 -16,6 3,-9 12,-23 19,-28zm-35 38c0,39 7,61 23,90 9,17 35,48 59,48 17,0 11,-31 9,-50 -3,-28 -7,-91 -20,-115 -15,-27 -70,-52 -70,26z"/>
   <path class="fil1" d="M2352 3027l16 0 0 60c-12,3 -4,3 -16,0l0 -60zm22 75c54,0 47,-29 47,-60 0,-42 -123,-44 -123,0 0,58 -3,60 75,60z"/>
   <path class="fil1" d="M1440 3037c0,-6 1,-6 3,-9l13 0c2,18 11,50 -6,63 -14,-9 -9,-12 -9,-53zm-53 28c0,26 16,38 41,38 28,0 82,5 82,-28 0,-36 10,-63 -57,-63 -55,0 -66,7 -66,53z"/>
   <path class="fil1" d="M1742 3027l0 19c-10,0 -16,1 -16,-9 0,-10 6,-9 16,-9zm-16 31l69 0c0,-26 -2,-47 -53,-47 -32,0 -69,-1 -69,38 0,20 -3,36 14,45 19,10 45,8 67,8 43,0 41,-23 41,-38l-50 0c0,12 3,19 -5,23 -7,4 -14,-3 -14,-11l0 -19z"/>
   <path class="fil1" d="M1987 3027c10,0 16,-1 16,9l0 9 -16 0 0 -19zm0 31l69 0 0 -13c0,-51 -123,-40 -123,-9 0,40 -8,66 47,66 36,0 75,6 75,-38l-50 0c0,18 2,26 -19,22l0 -28z"/>
   <path class="fil0" d="M2509 2688l69 0 -16 -119c-4,-36 -15,-92 -15,-123 -9,7 -6,11 -8,26l-22 151c-3,21 -8,44 -8,64z"/>
   <path class="fil1" d="M2635 3027c10,0 16,-1 16,9l0 9 -16 0 0 -19zm0 31l69 0 0 -13c0,-51 -123,-40 -123,-9 0,55 -9,66 75,66 41,0 47,-16 47,-38l-50 0c0,18 2,26 -19,22l0 -28z"/>
   <path class="fil1" d="M2166 3012l16 44c5,11 14,30 15,44 -7,2 -9,3 -19,3l0 13c58,0 84,8 94,-34l16 -69 -47 0c-1,15 -6,45 -9,60l-19 -60 -47 0z"/>
   <path class="fil0" d="M843 2688l69 0 -38 -239c0,21 -4,39 -7,59 -5,34 -25,156 -25,180z"/>
   <path class="fil1" d="M1849 3012l-44 0c2,18 8,31 13,47 4,14 11,30 13,44l72 0c0,-12 7,-33 11,-46 4,-14 11,-31 11,-45 -54,0 -45,-5 -51,31 -2,10 -5,25 -6,35 -8,-13 -8,-44 -19,-66z"/>
   <path class="fil1" d="M2232 1638c16,-1 26,-9 38,-16 0,0 0,1 0,2l0 11 42 -30c19,-14 82,-35 104,-41 24,-6 47,-8 49,-26 -48,-7 -24,-1 -40,-1l-22 -2c-28,0 -80,23 -102,33 -26,12 -19,14 -36,33 -13,15 -23,19 -32,37z"/>
   <path class="fil1" d="M2330 1701c22,0 44,1 66,0 22,-1 37,-8 54,-15 17,-7 30,-12 47,-19 11,-4 14,-5 26,-8 23,-6 20,-7 20,-33 -50,0 -78,11 -125,26 -15,5 -32,15 -46,23 -12,7 -37,17 -43,26z"/>
   <path class="fil1" d="M1355 3015c0,-12 6,-9 22,-9l0 -13c-36,0 -64,-5 -66,22l-9 0 0 13 9 0 0 75 53 0c0,-68 -7,-74 13,-75l0 -13 -22 0z"/>
   <polygon class="fil1" points="1104,3103 1157,3103 1157,2993 1104,2993 "/>
   <path class="fil1" d="M1585 3046c10,-4 18,-3 28,-3l0 -31c-20,0 -18,6 -31,9l0 -9c-67,0 -53,-18 -53,91l53 0c0,-27 -2,-34 3,-57z"/>
   <path class="fil1" d="M2192 626l0 6c10,-2 10,-4 21,-7 9,-3 16,-4 25,-6 87,-16 178,0 251,44 31,18 36,13 36,48 0,24 -5,37 -6,57 14,0 10,-2 22,-3l-2 -4c0,0 -1,-1 -1,-2 -3,-9 6,-27 6,-63 0,-19 -22,-31 -36,-40 -15,-9 -38,-20 -53,-26 -68,-28 -135,-37 -208,-21 -21,5 -36,12 -55,17z"/>
   <path class="fil1" d="M1252 3090c-8,-1 -9,-1 -16,-3l0 -60 13 0 0 -13 -13 0 0 -13 -53 0 0 13 -13 0 0 13c20,2 13,16 13,66 25,13 37,9 69,9l0 -13z"/>
   <path class="fil1" d="M2129 3056c0,-15 20,-13 31,-13l0 -31c-18,0 -24,5 -35,13l0 -13 -50 0 0 91 53 0 0 -47z"/>
   <path class="fil1" d="M1028 3103l57 0 0 -82c0,-7 -2,-9 -9,-9l-47 0 0 91z"/>
   <path class="fil0" d="M1641 821c47,0 135,6 173,-3 -11,-42 -155,-24 -173,3z"/>
   <path class="fil0" d="M1333 610c12,-3 4,-3 16,-6 24,35 -3,31 6,75 3,16 19,31 34,35 -2,-23 -9,1 -9,-50 7,2 7,2 16,3 -8,-34 -15,-70 -44,-85 -7,5 -16,19 -19,28z"/>
   <path class="fil1" d="M2644 770c65,34 54,22 82,3 -11,-17 -47,-28 -50,-28 -12,0 -26,17 -31,25z"/>
   <path class="fil0" d="M1440 3037c0,41 -5,44 9,53 17,-13 8,-45 6,-63l-13 0c-2,4 -3,3 -3,9z"/>
   <path class="fil0" d="M1824 1261c29,-2 91,-39 91,-88 -5,6 2,-3 -4,5 -9,12 -14,30 -33,46 -8,7 -17,12 -25,19 -23,19 -15,6 -29,18z"/>
   <path class="fil0" d="M2352 3087c12,3 4,3 16,0l0 -60 -16 0 0 60z"/>
   <polygon class="fil1" points="1085,3005 1085,2993 1028,2993 1028,3005 "/>
   <path class="fil0" d="M793 3084c21,0 19,1 19,-22 0,-11 -6,-9 -19,-9l0 31z"/>
   <path class="fil1" d="M2478 1701l0 6c20,0 26,3 44,3l0 -9c0,-19 -30,-1 -44,0z"/>
   <path class="fil0" d="M793 3037c19,0 19,1 19,-16 0,-11 -6,-9 -19,-9l0 25z"/>
   <path class="fil0" d="M2695 1940c2,5 6,20 8,27 2,11 3,20 5,30l5 -14c4,-18 -2,-32 -18,-43z"/>
   <path class="fil0" d="M2635 3046l16 0 0 -9c0,-10 -6,-9 -16,-9l0 19z"/>
   <path class="fil0" d="M1987 3046l16 0 0 -9c0,-10 -6,-9 -16,-9l0 19z"/>
   <path class="fil0" d="M1726 3037c0,10 6,9 16,9l0 -19c-10,0 -16,-1 -16,9z"/>
   <path class="fil1" d="M2676 912l0 6c17,0 14,2 22,-9 -15,-3 -6,-1 -22,3z"/>
  </g>
 </g>
</svg>
